<?xml version="1.0" encoding="UTF-8" standalone="no"?>
<!DOCTYPE svg PUBLIC "-//W3C//DTD SVG 1.1//EN" "http://www.w3.org/Graphics/SVG/1.1/DTD/svg11.dtd">
<svg width="100%" height="100%" viewBox="0 0 1404 1872" version="1.1" xmlns="http://www.w3.org/2000/svg" xmlns:xlink="http://www.w3.org/1999/xlink" xml:space="preserve" xmlns:serif="http://www.serif.com/" style="fill-rule:evenodd;clip-rule:evenodd;stroke-linecap:round;stroke-linejoin:round;stroke-miterlimit:1.5;">
    <g id="Row-Shading" serif:id="Row Shading">
        <g transform="matrix(21.2878,0,0,0.546875,-6313.52,1710.5)">
            <rect x="297.754" y="106.969" width="63.605" height="71.314" style="fill:rgb(230,230,230);"/>
        </g>
        <g transform="matrix(21.2878,0,0,0.546875,-6313.52,1632.5)">
            <rect x="297.754" y="106.969" width="63.605" height="71.314" style="fill:rgb(230,230,230);"/>
        </g>
        <g transform="matrix(21.2878,0,0,0.546875,-6313.52,1554.5)">
            <rect x="297.754" y="106.969" width="63.605" height="71.314" style="fill:rgb(230,230,230);"/>
        </g>
        <g transform="matrix(21.2878,0,0,0.546875,-6313.52,1476.5)">
            <rect x="297.754" y="106.969" width="63.605" height="71.314" style="fill:rgb(230,230,230);"/>
        </g>
        <g transform="matrix(21.2878,0,0,0.546875,-6313.52,1398.5)">
            <rect x="297.754" y="106.969" width="63.605" height="71.314" style="fill:rgb(230,230,230);"/>
        </g>
        <g transform="matrix(21.2878,0,0,0.546875,-6313.52,1320.5)">
            <rect x="297.754" y="106.969" width="63.605" height="71.314" style="fill:rgb(230,230,230);"/>
        </g>
        <g transform="matrix(21.2878,0,0,0.546875,-6313.52,1242.5)">
            <rect x="297.754" y="106.969" width="63.605" height="71.314" style="fill:rgb(230,230,230);"/>
        </g>
        <g transform="matrix(21.2878,0,0,0.546875,-6313.52,1164.5)">
            <rect x="297.754" y="106.969" width="63.605" height="71.314" style="fill:rgb(230,230,230);"/>
        </g>
        <g transform="matrix(21.2878,0,0,0.546875,-6313.52,1086.5)">
            <rect x="297.754" y="106.969" width="63.605" height="71.314" style="fill:rgb(230,230,230);"/>
        </g>
        <g transform="matrix(21.2878,0,0,0.546875,-6313.52,1008.5)">
            <rect x="297.754" y="106.969" width="63.605" height="71.314" style="fill:rgb(230,230,230);"/>
        </g>
        <g transform="matrix(21.2878,0,0,0.546875,-6313.52,930.501)">
            <rect x="297.754" y="106.969" width="63.605" height="71.314" style="fill:rgb(230,230,230);"/>
        </g>
        <g transform="matrix(21.2878,0,0,0.546875,-6313.52,852.501)">
            <rect x="297.754" y="106.969" width="63.605" height="71.314" style="fill:rgb(230,230,230);"/>
        </g>
        <g transform="matrix(21.2878,0,0,0.546875,-6313.52,774.501)">
            <rect x="297.754" y="106.969" width="63.605" height="71.314" style="fill:rgb(230,230,230);"/>
        </g>
        <g transform="matrix(21.2878,0,0,0.546875,-6313.52,696.501)">
            <rect x="297.754" y="106.969" width="63.605" height="71.314" style="fill:rgb(230,230,230);"/>
        </g>
        <g transform="matrix(21.2878,0,0,0.546875,-6313.52,618.501)">
            <rect x="297.754" y="106.969" width="63.605" height="71.314" style="fill:rgb(230,230,230);"/>
        </g>
        <g transform="matrix(21.2878,0,0,0.546875,-6313.52,540.501)">
            <rect x="297.754" y="106.969" width="63.605" height="71.314" style="fill:rgb(230,230,230);"/>
        </g>
        <g transform="matrix(21.2878,0,0,0.546875,-6313.52,462.501)">
            <rect x="297.754" y="106.969" width="63.605" height="71.314" style="fill:rgb(230,230,230);"/>
        </g>
        <g transform="matrix(21.2878,0,0,0.546875,-6313.52,384.501)">
            <rect x="297.754" y="106.969" width="63.605" height="71.314" style="fill:rgb(230,230,230);"/>
        </g>
        <g transform="matrix(21.2878,0,0,0.546875,-6313.52,306.501)">
            <rect x="297.754" y="106.969" width="63.605" height="71.314" style="fill:rgb(230,230,230);"/>
        </g>
        <g transform="matrix(21.2878,0,0,0.546875,-6313.52,228.501)">
            <rect x="297.754" y="106.969" width="63.605" height="71.314" style="fill:rgb(230,230,230);"/>
        </g>
        <g transform="matrix(21.2878,0,0,0.546875,-6313.52,150.501)">
            <rect x="297.754" y="106.969" width="63.605" height="71.314" style="fill:rgb(230,230,230);"/>
        </g>
        <g transform="matrix(21.2878,0,0,0.546875,-6313.52,72.5014)">
            <rect x="297.754" y="106.969" width="63.605" height="71.314" style="fill:rgb(200,200,200);"/>
        </g>
    </g>
    <g id="Column-Lines" serif:id="Column Lines">
        <g transform="matrix(6.56717e-16,-10.725,1,6.12323e-17,1019,5064.5)">
            <path d="M300,330L460,330" style="fill:none;stroke:black;stroke-opacity:0.25;stroke-width:0.13px;"/>
        </g>
        <g transform="matrix(6.56717e-16,-10.725,1,6.12323e-17,989,5064.5)">
            <path d="M300,330L460,330" style="fill:none;stroke:black;stroke-opacity:0.5;stroke-width:0.13px;"/>
        </g>
        <g transform="matrix(6.56717e-16,-10.725,1,6.12323e-17,959,5064.5)">
            <path d="M300,330L460,330" style="fill:none;stroke:black;stroke-opacity:0.25;stroke-width:0.13px;"/>
        </g>
        <g transform="matrix(6.56717e-16,-10.725,1,6.12323e-17,929,5064.5)">
            <path d="M300,330L460,330" style="fill:none;stroke:black;stroke-opacity:0.25;stroke-width:0.13px;"/>
        </g>
        <g transform="matrix(6.56717e-16,-10.725,1,6.12323e-17,899,5064.5)">
            <path d="M300,330L460,330" style="fill:none;stroke:black;stroke-opacity:0.25;stroke-width:0.13px;"/>
        </g>
        <g transform="matrix(6.56717e-16,-10.725,1,6.12323e-17,869,5064.5)">
            <path d="M300,330L460,330" style="fill:none;stroke:black;stroke-opacity:0.25;stroke-width:0.13px;"/>
        </g>
        <g transform="matrix(6.56717e-16,-10.725,1,6.12323e-17,839,5064.5)">
            <path d="M300,330L460,330" style="fill:none;stroke:black;stroke-opacity:0.25;stroke-width:0.13px;"/>
        </g>
        <g transform="matrix(6.56717e-16,-10.725,1,6.12323e-17,809,5064.5)">
            <path d="M300,330L460,330" style="fill:none;stroke:black;stroke-width:0.13px;"/>
        </g>
        <g transform="matrix(6.56717e-16,-10.725,1,6.12323e-17,779,5064.5)">
            <path d="M300,330L460,330" style="fill:none;stroke:black;stroke-opacity:0.25;stroke-width:0.13px;"/>
        </g>
        <g transform="matrix(6.56717e-16,-10.725,1,6.12323e-17,749,5064.5)">
            <path d="M300,330L460,330" style="fill:none;stroke:black;stroke-opacity:0.5;stroke-width:0.13px;"/>
        </g>
        <g transform="matrix(6.56717e-16,-10.725,1,6.12323e-17,719,5064.5)">
            <path d="M300,330L460,330" style="fill:none;stroke:black;stroke-opacity:0.25;stroke-width:0.13px;"/>
        </g>
        <g transform="matrix(6.56717e-16,-10.725,1,6.12323e-17,689,5064.5)">
            <path d="M300,330L460,330" style="fill:none;stroke:black;stroke-opacity:0.25;stroke-width:0.13px;"/>
        </g>
        <g transform="matrix(6.56717e-16,-10.725,1,6.12323e-17,659,5064.5)">
            <path d="M300,330L460,330" style="fill:none;stroke:black;stroke-opacity:0.25;stroke-width:0.13px;"/>
        </g>
        <g transform="matrix(6.56717e-16,-10.725,1,6.12323e-17,629,5064.5)">
            <path d="M300,330L460,330" style="fill:none;stroke:black;stroke-opacity:0.25;stroke-width:0.13px;"/>
        </g>
        <g transform="matrix(6.56717e-16,-10.725,1,6.12323e-17,599,5064.5)">
            <path d="M300,330L460,330" style="fill:none;stroke:black;stroke-opacity:0.75;stroke-width:0.13px;"/>
        </g>
        <g transform="matrix(6.56717e-16,-10.725,1,6.12323e-17,569,5064.5)">
            <path d="M300,330L460,330" style="fill:none;stroke:black;stroke-width:0.13px;"/>
        </g>
        <g transform="matrix(6.56717e-16,-10.725,1,6.12323e-17,-105,5064.5)">
            <path d="M300,330L460,330" style="fill:none;stroke:black;stroke-width:0.13px;"/>
        </g>
        <g transform="matrix(6.56717e-16,-10.725,1,6.12323e-17,-230,5064.5)">
            <path d="M300,330L460,330" style="fill:none;stroke:black;stroke-width:0.13px;"/>
        </g>
    </g>
    <g id="Row-Liness" serif:id="Row Liness">
        <g transform="matrix(8.4625,0,0,1,-2513.75,1478)">
            <path d="M300,330L460,330" style="fill:none;stroke:black;stroke-width:0.17px;"/>
        </g>
        <g transform="matrix(8.4625,0,0,1,-2513.75,1439)">
            <path d="M300,330L460,330" style="fill:none;stroke:black;stroke-width:0.17px;"/>
        </g>
        <g transform="matrix(8.4625,0,0,1,-2513.75,1400)">
            <path d="M300,330L460,330" style="fill:none;stroke:black;stroke-width:0.17px;"/>
        </g>
        <g transform="matrix(8.4625,0,0,1,-2513.75,1361)">
            <path d="M300,330L460,330" style="fill:none;stroke:black;stroke-width:0.17px;"/>
        </g>
        <g transform="matrix(8.4625,0,0,1,-2513.75,1322)">
            <path d="M300,330L460,330" style="fill:none;stroke:black;stroke-width:0.17px;"/>
        </g>
        <g transform="matrix(8.4625,0,0,1,-2513.75,1283)">
            <path d="M300,330L460,330" style="fill:none;stroke:black;stroke-width:0.17px;"/>
        </g>
        <g transform="matrix(8.4625,0,0,1,-2513.75,1244)">
            <path d="M300,330L460,330" style="fill:none;stroke:black;stroke-width:0.17px;"/>
        </g>
        <g transform="matrix(8.4625,0,0,1,-2513.75,1205)">
            <path d="M300,330L460,330" style="fill:none;stroke:black;stroke-width:0.17px;"/>
        </g>
        <g transform="matrix(8.4625,0,0,1,-2513.75,1166)">
            <path d="M300,330L460,330" style="fill:none;stroke:black;stroke-width:0.17px;"/>
        </g>
        <g transform="matrix(8.4625,0,0,1,-2513.75,1127)">
            <path d="M300,330L460,330" style="fill:none;stroke:black;stroke-width:0.17px;"/>
        </g>
        <g transform="matrix(8.4625,0,0,1,-2513.75,1088)">
            <path d="M300,330L460,330" style="fill:none;stroke:black;stroke-width:0.17px;"/>
        </g>
        <g transform="matrix(8.4625,0,0,1,-2513.75,1049)">
            <path d="M300,330L460,330" style="fill:none;stroke:black;stroke-width:0.17px;"/>
        </g>
        <g transform="matrix(8.4625,0,0,1,-2513.75,1010)">
            <path d="M300,330L460,330" style="fill:none;stroke:black;stroke-width:0.17px;"/>
        </g>
        <g transform="matrix(8.4625,0,0,1,-2513.75,971)">
            <path d="M300,330L460,330" style="fill:none;stroke:black;stroke-width:0.17px;"/>
        </g>
        <g transform="matrix(8.4625,0,0,1,-2513.75,932)">
            <path d="M300,330L460,330" style="fill:none;stroke:black;stroke-width:0.17px;"/>
        </g>
        <g transform="matrix(8.4625,0,0,1,-2513.75,893)">
            <path d="M300,330L460,330" style="fill:none;stroke:black;stroke-width:0.17px;"/>
        </g>
        <g transform="matrix(8.4625,0,0,1,-2513.75,854)">
            <path d="M300,330L460,330" style="fill:none;stroke:black;stroke-width:0.17px;"/>
        </g>
        <g transform="matrix(8.4625,0,0,1,-2513.75,815)">
            <path d="M300,330L460,330" style="fill:none;stroke:black;stroke-width:0.17px;"/>
        </g>
        <g transform="matrix(8.4625,0,0,1,-2513.75,776)">
            <path d="M300,330L460,330" style="fill:none;stroke:black;stroke-width:0.17px;"/>
        </g>
        <g transform="matrix(8.4625,0,0,1,-2513.75,737)">
            <path d="M300,330L460,330" style="fill:none;stroke:black;stroke-width:0.17px;"/>
        </g>
        <g transform="matrix(8.4625,0,0,1,-2513.75,698)">
            <path d="M300,330L460,330" style="fill:none;stroke:black;stroke-width:0.17px;"/>
        </g>
        <g transform="matrix(8.4625,0,0,1,-2513.75,659)">
            <path d="M300,330L460,330" style="fill:none;stroke:black;stroke-width:0.17px;"/>
        </g>
        <g transform="matrix(8.4625,0,0,1,-2513.75,620)">
            <path d="M300,330L460,330" style="fill:none;stroke:black;stroke-width:0.17px;"/>
        </g>
        <g transform="matrix(8.4625,0,0,1,-2513.75,581)">
            <path d="M300,330L460,330" style="fill:none;stroke:black;stroke-width:0.17px;"/>
        </g>
        <g transform="matrix(8.4625,0,0,1,-2513.75,542)">
            <path d="M300,330L460,330" style="fill:none;stroke:black;stroke-width:0.17px;"/>
        </g>
        <g transform="matrix(8.4625,0,0,1,-2513.75,503)">
            <path d="M300,330L460,330" style="fill:none;stroke:black;stroke-width:0.17px;"/>
        </g>
        <g transform="matrix(8.4625,0,0,1,-2513.75,464)">
            <path d="M300,330L460,330" style="fill:none;stroke:black;stroke-width:0.17px;"/>
        </g>
        <g transform="matrix(8.4625,0,0,1,-2513.75,425)">
            <path d="M300,330L460,330" style="fill:none;stroke:black;stroke-width:0.17px;"/>
        </g>
        <g transform="matrix(8.4625,0,0,1,-2513.75,386)">
            <path d="M300,330L460,330" style="fill:none;stroke:black;stroke-width:0.17px;"/>
        </g>
        <g transform="matrix(8.4625,0,0,1,-2513.75,347)">
            <path d="M300,330L460,330" style="fill:none;stroke:black;stroke-width:0.17px;"/>
        </g>
        <g transform="matrix(8.4625,0,0,1,-2513.75,308)">
            <path d="M300,330L460,330" style="fill:none;stroke:black;stroke-width:0.17px;"/>
        </g>
        <g transform="matrix(8.4625,0,0,1,-2513.75,269)">
            <path d="M300,330L460,330" style="fill:none;stroke:black;stroke-width:0.17px;"/>
        </g>
        <g transform="matrix(8.4625,0,0,1,-2513.75,230)">
            <path d="M300,330L460,330" style="fill:none;stroke:black;stroke-width:0.17px;"/>
        </g>
        <g transform="matrix(8.4625,0,0,1,-2513.75,191)">
            <path d="M300,330L460,330" style="fill:none;stroke:black;stroke-width:0.17px;"/>
        </g>
        <g transform="matrix(8.4625,0,0,1,-2513.75,152)">
            <path d="M300,330L460,330" style="fill:none;stroke:black;stroke-width:0.17px;"/>
        </g>
        <g transform="matrix(8.4625,0,0,1,-2513.75,113)">
            <path d="M300,330L460,330" style="fill:none;stroke:black;stroke-width:0.17px;"/>
        </g>
        <g transform="matrix(8.4625,0,0,1,-2513.75,74)">
            <path d="M300,330L460,330" style="fill:none;stroke:black;stroke-width:0.17px;"/>
        </g>
        <g transform="matrix(8.4625,0,0,1,-2513.75,35)">
            <path d="M300,330L460,330" style="fill:none;stroke:black;stroke-width:0.17px;"/>
        </g>
        <g transform="matrix(8.4625,0,0,1,-2513.75,-4)">
            <path d="M300,330L460,330" style="fill:none;stroke:black;stroke-width:0.17px;"/>
        </g>
        <g transform="matrix(8.4625,0,0,1,-2513.75,-43)">
            <path d="M300,330L460,330" style="fill:none;stroke:black;stroke-width:0.17px;"/>
        </g>
        <g transform="matrix(8.4625,0,0,1,-2513.75,-82)">
            <path d="M300,330L460,330" style="fill:none;stroke:black;stroke-width:0.17px;"/>
        </g>
        <g transform="matrix(8.4625,0,0,1,-2513.75,-121)">
            <path d="M300,330L460,330" style="fill:none;stroke:black;stroke-width:0.17px;"/>
        </g>
        <g transform="matrix(8.4625,0,0,1,-2513.75,-160)">
            <path d="M300,330L460,330" style="fill:none;stroke:black;stroke-width:0.17px;"/>
        </g>
    </g>
    <g id="Decimal-Points" serif:id="Decimal Points">
        <g id="Bal-Column" serif:id="Bal Column" transform="matrix(1,0,0,1,240,0)">
            <g transform="matrix(1,0,0,1,7.03873,1687.16)">
                <g transform="matrix(36,0,0,36,1067.45,157.348)">
                    <path d="M0.192,-0.072C0.192,-0.053 0.185,-0.036 0.173,-0.021C0.16,-0.006 0.142,0.001 0.119,0.001C0.1,0.001 0.085,-0.005 0.074,-0.018C0.064,-0.031 0.059,-0.046 0.059,-0.063C0.059,-0.082 0.065,-0.099 0.078,-0.113C0.091,-0.127 0.109,-0.134 0.132,-0.134C0.152,-0.134 0.166,-0.128 0.177,-0.116C0.187,-0.104 0.192,-0.089 0.192,-0.072Z" style="fill-opacity:0.5;fill-rule:nonzero;"/>
                </g>
            </g>
            <g transform="matrix(1,0,0,1,7.03873,1648.16)">
                <g transform="matrix(36,0,0,36,1067.45,157.348)">
                    <path d="M0.192,-0.072C0.192,-0.053 0.185,-0.036 0.173,-0.021C0.16,-0.006 0.142,0.001 0.119,0.001C0.1,0.001 0.085,-0.005 0.074,-0.018C0.064,-0.031 0.059,-0.046 0.059,-0.063C0.059,-0.082 0.065,-0.099 0.078,-0.113C0.091,-0.127 0.109,-0.134 0.132,-0.134C0.152,-0.134 0.166,-0.128 0.177,-0.116C0.187,-0.104 0.192,-0.089 0.192,-0.072Z" style="fill-opacity:0.5;fill-rule:nonzero;"/>
                </g>
            </g>
            <g transform="matrix(1,0,0,1,7.03873,1609.12)">
                <g transform="matrix(36,0,0,36,1067.45,157.348)">
                    <path d="M0.192,-0.072C0.192,-0.053 0.185,-0.036 0.173,-0.021C0.16,-0.006 0.142,0.001 0.119,0.001C0.1,0.001 0.085,-0.005 0.074,-0.018C0.064,-0.031 0.059,-0.046 0.059,-0.063C0.059,-0.082 0.065,-0.099 0.078,-0.113C0.091,-0.127 0.109,-0.134 0.132,-0.134C0.152,-0.134 0.166,-0.128 0.177,-0.116C0.187,-0.104 0.192,-0.089 0.192,-0.072Z" style="fill-opacity:0.5;fill-rule:nonzero;"/>
                </g>
            </g>
            <g transform="matrix(1,0,0,1,7.03873,1570.12)">
                <g transform="matrix(36,0,0,36,1067.45,157.348)">
                    <path d="M0.192,-0.072C0.192,-0.053 0.185,-0.036 0.173,-0.021C0.16,-0.006 0.142,0.001 0.119,0.001C0.1,0.001 0.085,-0.005 0.074,-0.018C0.064,-0.031 0.059,-0.046 0.059,-0.063C0.059,-0.082 0.065,-0.099 0.078,-0.113C0.091,-0.127 0.109,-0.134 0.132,-0.134C0.152,-0.134 0.166,-0.128 0.177,-0.116C0.187,-0.104 0.192,-0.089 0.192,-0.072Z" style="fill-opacity:0.5;fill-rule:nonzero;"/>
                </g>
            </g>
            <g transform="matrix(1,0,0,1,7.03873,1531.16)">
                <g transform="matrix(36,0,0,36,1067.45,157.348)">
                    <path d="M0.192,-0.072C0.192,-0.053 0.185,-0.036 0.173,-0.021C0.16,-0.006 0.142,0.001 0.119,0.001C0.1,0.001 0.085,-0.005 0.074,-0.018C0.064,-0.031 0.059,-0.046 0.059,-0.063C0.059,-0.082 0.065,-0.099 0.078,-0.113C0.091,-0.127 0.109,-0.134 0.132,-0.134C0.152,-0.134 0.166,-0.128 0.177,-0.116C0.187,-0.104 0.192,-0.089 0.192,-0.072Z" style="fill-opacity:0.5;fill-rule:nonzero;"/>
                </g>
            </g>
            <g transform="matrix(1,0,0,1,7.03873,1492.16)">
                <g transform="matrix(36,0,0,36,1067.45,157.348)">
                    <path d="M0.192,-0.072C0.192,-0.053 0.185,-0.036 0.173,-0.021C0.16,-0.006 0.142,0.001 0.119,0.001C0.1,0.001 0.085,-0.005 0.074,-0.018C0.064,-0.031 0.059,-0.046 0.059,-0.063C0.059,-0.082 0.065,-0.099 0.078,-0.113C0.091,-0.127 0.109,-0.134 0.132,-0.134C0.152,-0.134 0.166,-0.128 0.177,-0.116C0.187,-0.104 0.192,-0.089 0.192,-0.072Z" style="fill-opacity:0.5;fill-rule:nonzero;"/>
                </g>
            </g>
            <g transform="matrix(1,0,0,1,7.03873,1453.12)">
                <g transform="matrix(36,0,0,36,1067.45,157.348)">
                    <path d="M0.192,-0.072C0.192,-0.053 0.185,-0.036 0.173,-0.021C0.16,-0.006 0.142,0.001 0.119,0.001C0.1,0.001 0.085,-0.005 0.074,-0.018C0.064,-0.031 0.059,-0.046 0.059,-0.063C0.059,-0.082 0.065,-0.099 0.078,-0.113C0.091,-0.127 0.109,-0.134 0.132,-0.134C0.152,-0.134 0.166,-0.128 0.177,-0.116C0.187,-0.104 0.192,-0.089 0.192,-0.072Z" style="fill-opacity:0.5;fill-rule:nonzero;"/>
                </g>
            </g>
            <g transform="matrix(1,0,0,1,7.03873,1414.12)">
                <g transform="matrix(36,0,0,36,1067.45,157.348)">
                    <path d="M0.192,-0.072C0.192,-0.053 0.185,-0.036 0.173,-0.021C0.16,-0.006 0.142,0.001 0.119,0.001C0.1,0.001 0.085,-0.005 0.074,-0.018C0.064,-0.031 0.059,-0.046 0.059,-0.063C0.059,-0.082 0.065,-0.099 0.078,-0.113C0.091,-0.127 0.109,-0.134 0.132,-0.134C0.152,-0.134 0.166,-0.128 0.177,-0.116C0.187,-0.104 0.192,-0.089 0.192,-0.072Z" style="fill-opacity:0.5;fill-rule:nonzero;"/>
                </g>
            </g>
            <g transform="matrix(1,0,0,1,7.03873,1375.12)">
                <g transform="matrix(36,0,0,36,1067.45,157.348)">
                    <path d="M0.192,-0.072C0.192,-0.053 0.185,-0.036 0.173,-0.021C0.16,-0.006 0.142,0.001 0.119,0.001C0.1,0.001 0.085,-0.005 0.074,-0.018C0.064,-0.031 0.059,-0.046 0.059,-0.063C0.059,-0.082 0.065,-0.099 0.078,-0.113C0.091,-0.127 0.109,-0.134 0.132,-0.134C0.152,-0.134 0.166,-0.128 0.177,-0.116C0.187,-0.104 0.192,-0.089 0.192,-0.072Z" style="fill-opacity:0.5;fill-rule:nonzero;"/>
                </g>
            </g>
            <g transform="matrix(1,0,0,1,7.03873,1336.12)">
                <g transform="matrix(36,0,0,36,1067.45,157.348)">
                    <path d="M0.192,-0.072C0.192,-0.053 0.185,-0.036 0.173,-0.021C0.16,-0.006 0.142,0.001 0.119,0.001C0.1,0.001 0.085,-0.005 0.074,-0.018C0.064,-0.031 0.059,-0.046 0.059,-0.063C0.059,-0.082 0.065,-0.099 0.078,-0.113C0.091,-0.127 0.109,-0.134 0.132,-0.134C0.152,-0.134 0.166,-0.128 0.177,-0.116C0.187,-0.104 0.192,-0.089 0.192,-0.072Z" style="fill-opacity:0.5;fill-rule:nonzero;"/>
                </g>
            </g>
            <g transform="matrix(1,0,0,1,7.03873,1297.09)">
                <g transform="matrix(36,0,0,36,1067.45,157.348)">
                    <path d="M0.192,-0.072C0.192,-0.053 0.185,-0.036 0.173,-0.021C0.16,-0.006 0.142,0.001 0.119,0.001C0.1,0.001 0.085,-0.005 0.074,-0.018C0.064,-0.031 0.059,-0.046 0.059,-0.063C0.059,-0.082 0.065,-0.099 0.078,-0.113C0.091,-0.127 0.109,-0.134 0.132,-0.134C0.152,-0.134 0.166,-0.128 0.177,-0.116C0.187,-0.104 0.192,-0.089 0.192,-0.072Z" style="fill-opacity:0.5;fill-rule:nonzero;"/>
                </g>
            </g>
            <g transform="matrix(1,0,0,1,7.03873,1258.09)">
                <g transform="matrix(36,0,0,36,1067.45,157.348)">
                    <path d="M0.192,-0.072C0.192,-0.053 0.185,-0.036 0.173,-0.021C0.16,-0.006 0.142,0.001 0.119,0.001C0.1,0.001 0.085,-0.005 0.074,-0.018C0.064,-0.031 0.059,-0.046 0.059,-0.063C0.059,-0.082 0.065,-0.099 0.078,-0.113C0.091,-0.127 0.109,-0.134 0.132,-0.134C0.152,-0.134 0.166,-0.128 0.177,-0.116C0.187,-0.104 0.192,-0.089 0.192,-0.072Z" style="fill-opacity:0.5;fill-rule:nonzero;"/>
                </g>
            </g>
            <g transform="matrix(1,0,0,1,7.03873,1219.19)">
                <g transform="matrix(36,0,0,36,1067.45,157.348)">
                    <path d="M0.192,-0.072C0.192,-0.053 0.185,-0.036 0.173,-0.021C0.16,-0.006 0.142,0.001 0.119,0.001C0.1,0.001 0.085,-0.005 0.074,-0.018C0.064,-0.031 0.059,-0.046 0.059,-0.063C0.059,-0.082 0.065,-0.099 0.078,-0.113C0.091,-0.127 0.109,-0.134 0.132,-0.134C0.152,-0.134 0.166,-0.128 0.177,-0.116C0.187,-0.104 0.192,-0.089 0.192,-0.072Z" style="fill-opacity:0.5;fill-rule:nonzero;"/>
                </g>
            </g>
            <g transform="matrix(1,0,0,1,7.03873,1180.19)">
                <g transform="matrix(36,0,0,36,1067.45,157.348)">
                    <path d="M0.192,-0.072C0.192,-0.053 0.185,-0.036 0.173,-0.021C0.16,-0.006 0.142,0.001 0.119,0.001C0.1,0.001 0.085,-0.005 0.074,-0.018C0.064,-0.031 0.059,-0.046 0.059,-0.063C0.059,-0.082 0.065,-0.099 0.078,-0.113C0.091,-0.127 0.109,-0.134 0.132,-0.134C0.152,-0.134 0.166,-0.128 0.177,-0.116C0.187,-0.104 0.192,-0.089 0.192,-0.072Z" style="fill-opacity:0.5;fill-rule:nonzero;"/>
                </g>
            </g>
            <g transform="matrix(1,0,0,1,7.03873,1141.16)">
                <g transform="matrix(36,0,0,36,1067.45,157.348)">
                    <path d="M0.192,-0.072C0.192,-0.053 0.185,-0.036 0.173,-0.021C0.16,-0.006 0.142,0.001 0.119,0.001C0.1,0.001 0.085,-0.005 0.074,-0.018C0.064,-0.031 0.059,-0.046 0.059,-0.063C0.059,-0.082 0.065,-0.099 0.078,-0.113C0.091,-0.127 0.109,-0.134 0.132,-0.134C0.152,-0.134 0.166,-0.128 0.177,-0.116C0.187,-0.104 0.192,-0.089 0.192,-0.072Z" style="fill-opacity:0.5;fill-rule:nonzero;"/>
                </g>
            </g>
            <g transform="matrix(1,0,0,1,7.03873,1102.16)">
                <g transform="matrix(36,0,0,36,1067.45,157.348)">
                    <path d="M0.192,-0.072C0.192,-0.053 0.185,-0.036 0.173,-0.021C0.16,-0.006 0.142,0.001 0.119,0.001C0.1,0.001 0.085,-0.005 0.074,-0.018C0.064,-0.031 0.059,-0.046 0.059,-0.063C0.059,-0.082 0.065,-0.099 0.078,-0.113C0.091,-0.127 0.109,-0.134 0.132,-0.134C0.152,-0.134 0.166,-0.128 0.177,-0.116C0.187,-0.104 0.192,-0.089 0.192,-0.072Z" style="fill-opacity:0.5;fill-rule:nonzero;"/>
                </g>
            </g>
            <g transform="matrix(1,0,0,1,7.03873,1063.16)">
                <g transform="matrix(36,0,0,36,1067.45,157.348)">
                    <path d="M0.192,-0.072C0.192,-0.053 0.185,-0.036 0.173,-0.021C0.16,-0.006 0.142,0.001 0.119,0.001C0.1,0.001 0.085,-0.005 0.074,-0.018C0.064,-0.031 0.059,-0.046 0.059,-0.063C0.059,-0.082 0.065,-0.099 0.078,-0.113C0.091,-0.127 0.109,-0.134 0.132,-0.134C0.152,-0.134 0.166,-0.128 0.177,-0.116C0.187,-0.104 0.192,-0.089 0.192,-0.072Z" style="fill-opacity:0.5;fill-rule:nonzero;"/>
                </g>
            </g>
            <g transform="matrix(1,0,0,1,7.03873,1024.16)">
                <g transform="matrix(36,0,0,36,1067.45,157.348)">
                    <path d="M0.192,-0.072C0.192,-0.053 0.185,-0.036 0.173,-0.021C0.16,-0.006 0.142,0.001 0.119,0.001C0.1,0.001 0.085,-0.005 0.074,-0.018C0.064,-0.031 0.059,-0.046 0.059,-0.063C0.059,-0.082 0.065,-0.099 0.078,-0.113C0.091,-0.127 0.109,-0.134 0.132,-0.134C0.152,-0.134 0.166,-0.128 0.177,-0.116C0.187,-0.104 0.192,-0.089 0.192,-0.072Z" style="fill-opacity:0.5;fill-rule:nonzero;"/>
                </g>
            </g>
            <g transform="matrix(1,0,0,1,7.03873,985.121)">
                <g transform="matrix(36,0,0,36,1067.45,157.348)">
                    <path d="M0.192,-0.072C0.192,-0.053 0.185,-0.036 0.173,-0.021C0.16,-0.006 0.142,0.001 0.119,0.001C0.1,0.001 0.085,-0.005 0.074,-0.018C0.064,-0.031 0.059,-0.046 0.059,-0.063C0.059,-0.082 0.065,-0.099 0.078,-0.113C0.091,-0.127 0.109,-0.134 0.132,-0.134C0.152,-0.134 0.166,-0.128 0.177,-0.116C0.187,-0.104 0.192,-0.089 0.192,-0.072Z" style="fill-opacity:0.5;fill-rule:nonzero;"/>
                </g>
            </g>
            <g transform="matrix(1,0,0,1,7.03873,946.121)">
                <g transform="matrix(36,0,0,36,1067.45,157.348)">
                    <path d="M0.192,-0.072C0.192,-0.053 0.185,-0.036 0.173,-0.021C0.16,-0.006 0.142,0.001 0.119,0.001C0.1,0.001 0.085,-0.005 0.074,-0.018C0.064,-0.031 0.059,-0.046 0.059,-0.063C0.059,-0.082 0.065,-0.099 0.078,-0.113C0.091,-0.127 0.109,-0.134 0.132,-0.134C0.152,-0.134 0.166,-0.128 0.177,-0.116C0.187,-0.104 0.192,-0.089 0.192,-0.072Z" style="fill-opacity:0.5;fill-rule:nonzero;"/>
                </g>
            </g>
            <g transform="matrix(1,0,0,1,7.03873,907.156)">
                <g transform="matrix(36,0,0,36,1067.45,157.348)">
                    <path d="M0.192,-0.072C0.192,-0.053 0.185,-0.036 0.173,-0.021C0.16,-0.006 0.142,0.001 0.119,0.001C0.1,0.001 0.085,-0.005 0.074,-0.018C0.064,-0.031 0.059,-0.046 0.059,-0.063C0.059,-0.082 0.065,-0.099 0.078,-0.113C0.091,-0.127 0.109,-0.134 0.132,-0.134C0.152,-0.134 0.166,-0.128 0.177,-0.116C0.187,-0.104 0.192,-0.089 0.192,-0.072Z" style="fill-opacity:0.5;fill-rule:nonzero;"/>
                </g>
            </g>
            <g transform="matrix(1,0,0,1,7.03873,868.156)">
                <g transform="matrix(36,0,0,36,1067.45,157.348)">
                    <path d="M0.192,-0.072C0.192,-0.053 0.185,-0.036 0.173,-0.021C0.16,-0.006 0.142,0.001 0.119,0.001C0.1,0.001 0.085,-0.005 0.074,-0.018C0.064,-0.031 0.059,-0.046 0.059,-0.063C0.059,-0.082 0.065,-0.099 0.078,-0.113C0.091,-0.127 0.109,-0.134 0.132,-0.134C0.152,-0.134 0.166,-0.128 0.177,-0.116C0.187,-0.104 0.192,-0.089 0.192,-0.072Z" style="fill-opacity:0.5;fill-rule:nonzero;"/>
                </g>
            </g>
            <g transform="matrix(1,0,0,1,7.03873,829.121)">
                <g transform="matrix(36,0,0,36,1067.45,157.348)">
                    <path d="M0.192,-0.072C0.192,-0.053 0.185,-0.036 0.173,-0.021C0.16,-0.006 0.142,0.001 0.119,0.001C0.1,0.001 0.085,-0.005 0.074,-0.018C0.064,-0.031 0.059,-0.046 0.059,-0.063C0.059,-0.082 0.065,-0.099 0.078,-0.113C0.091,-0.127 0.109,-0.134 0.132,-0.134C0.152,-0.134 0.166,-0.128 0.177,-0.116C0.187,-0.104 0.192,-0.089 0.192,-0.072Z" style="fill-opacity:0.5;fill-rule:nonzero;"/>
                </g>
            </g>
            <g transform="matrix(1,0,0,1,7.03873,790.121)">
                <g transform="matrix(36,0,0,36,1067.45,157.348)">
                    <path d="M0.192,-0.072C0.192,-0.053 0.185,-0.036 0.173,-0.021C0.16,-0.006 0.142,0.001 0.119,0.001C0.1,0.001 0.085,-0.005 0.074,-0.018C0.064,-0.031 0.059,-0.046 0.059,-0.063C0.059,-0.082 0.065,-0.099 0.078,-0.113C0.091,-0.127 0.109,-0.134 0.132,-0.134C0.152,-0.134 0.166,-0.128 0.177,-0.116C0.187,-0.104 0.192,-0.089 0.192,-0.072Z" style="fill-opacity:0.5;fill-rule:nonzero;"/>
                </g>
            </g>
            <g transform="matrix(1,0,0,1,7.03873,751.121)">
                <g transform="matrix(36,0,0,36,1067.45,157.348)">
                    <path d="M0.192,-0.072C0.192,-0.053 0.185,-0.036 0.173,-0.021C0.16,-0.006 0.142,0.001 0.119,0.001C0.1,0.001 0.085,-0.005 0.074,-0.018C0.064,-0.031 0.059,-0.046 0.059,-0.063C0.059,-0.082 0.065,-0.099 0.078,-0.113C0.091,-0.127 0.109,-0.134 0.132,-0.134C0.152,-0.134 0.166,-0.128 0.177,-0.116C0.187,-0.104 0.192,-0.089 0.192,-0.072Z" style="fill-opacity:0.5;fill-rule:nonzero;"/>
                </g>
            </g>
            <g transform="matrix(1,0,0,1,7.03873,712.121)">
                <g transform="matrix(36,0,0,36,1067.45,157.348)">
                    <path d="M0.192,-0.072C0.192,-0.053 0.185,-0.036 0.173,-0.021C0.16,-0.006 0.142,0.001 0.119,0.001C0.1,0.001 0.085,-0.005 0.074,-0.018C0.064,-0.031 0.059,-0.046 0.059,-0.063C0.059,-0.082 0.065,-0.099 0.078,-0.113C0.091,-0.127 0.109,-0.134 0.132,-0.134C0.152,-0.134 0.166,-0.128 0.177,-0.116C0.187,-0.104 0.192,-0.089 0.192,-0.072Z" style="fill-opacity:0.5;fill-rule:nonzero;"/>
                </g>
            </g>
            <g transform="matrix(1,0,0,1,7.03873,673.086)">
                <g transform="matrix(36,0,0,36,1067.45,157.348)">
                    <path d="M0.192,-0.072C0.192,-0.053 0.185,-0.036 0.173,-0.021C0.16,-0.006 0.142,0.001 0.119,0.001C0.1,0.001 0.085,-0.005 0.074,-0.018C0.064,-0.031 0.059,-0.046 0.059,-0.063C0.059,-0.082 0.065,-0.099 0.078,-0.113C0.091,-0.127 0.109,-0.134 0.132,-0.134C0.152,-0.134 0.166,-0.128 0.177,-0.116C0.187,-0.104 0.192,-0.089 0.192,-0.072Z" style="fill-opacity:0.5;fill-rule:nonzero;"/>
                </g>
            </g>
            <g transform="matrix(1,0,0,1,7.03873,634.086)">
                <g transform="matrix(36,0,0,36,1067.45,157.348)">
                    <path d="M0.192,-0.072C0.192,-0.053 0.185,-0.036 0.173,-0.021C0.16,-0.006 0.142,0.001 0.119,0.001C0.1,0.001 0.085,-0.005 0.074,-0.018C0.064,-0.031 0.059,-0.046 0.059,-0.063C0.059,-0.082 0.065,-0.099 0.078,-0.113C0.091,-0.127 0.109,-0.134 0.132,-0.134C0.152,-0.134 0.166,-0.128 0.177,-0.116C0.187,-0.104 0.192,-0.089 0.192,-0.072Z" style="fill-opacity:0.5;fill-rule:nonzero;"/>
                </g>
            </g>
            <g transform="matrix(1,0,0,1,7.03873,595.156)">
                <g transform="matrix(36,0,0,36,1067.45,157.348)">
                    <path d="M0.192,-0.072C0.192,-0.053 0.185,-0.036 0.173,-0.021C0.16,-0.006 0.142,0.001 0.119,0.001C0.1,0.001 0.085,-0.005 0.074,-0.018C0.064,-0.031 0.059,-0.046 0.059,-0.063C0.059,-0.082 0.065,-0.099 0.078,-0.113C0.091,-0.127 0.109,-0.134 0.132,-0.134C0.152,-0.134 0.166,-0.128 0.177,-0.116C0.187,-0.104 0.192,-0.089 0.192,-0.072Z" style="fill-opacity:0.5;fill-rule:nonzero;"/>
                </g>
            </g>
            <g transform="matrix(1,0,0,1,7.03873,556.156)">
                <g transform="matrix(36,0,0,36,1067.45,157.348)">
                    <path d="M0.192,-0.072C0.192,-0.053 0.185,-0.036 0.173,-0.021C0.16,-0.006 0.142,0.001 0.119,0.001C0.1,0.001 0.085,-0.005 0.074,-0.018C0.064,-0.031 0.059,-0.046 0.059,-0.063C0.059,-0.082 0.065,-0.099 0.078,-0.113C0.091,-0.127 0.109,-0.134 0.132,-0.134C0.152,-0.134 0.166,-0.128 0.177,-0.116C0.187,-0.104 0.192,-0.089 0.192,-0.072Z" style="fill-opacity:0.5;fill-rule:nonzero;"/>
                </g>
            </g>
            <g transform="matrix(1,0,0,1,7.03873,517.121)">
                <g transform="matrix(36,0,0,36,1067.45,157.348)">
                    <path d="M0.192,-0.072C0.192,-0.053 0.185,-0.036 0.173,-0.021C0.16,-0.006 0.142,0.001 0.119,0.001C0.1,0.001 0.085,-0.005 0.074,-0.018C0.064,-0.031 0.059,-0.046 0.059,-0.063C0.059,-0.082 0.065,-0.099 0.078,-0.113C0.091,-0.127 0.109,-0.134 0.132,-0.134C0.152,-0.134 0.166,-0.128 0.177,-0.116C0.187,-0.104 0.192,-0.089 0.192,-0.072Z" style="fill-opacity:0.5;fill-rule:nonzero;"/>
                </g>
            </g>
            <g transform="matrix(1,0,0,1,7.03873,478.121)">
                <g transform="matrix(36,0,0,36,1067.45,157.348)">
                    <path d="M0.192,-0.072C0.192,-0.053 0.185,-0.036 0.173,-0.021C0.16,-0.006 0.142,0.001 0.119,0.001C0.1,0.001 0.085,-0.005 0.074,-0.018C0.064,-0.031 0.059,-0.046 0.059,-0.063C0.059,-0.082 0.065,-0.099 0.078,-0.113C0.091,-0.127 0.109,-0.134 0.132,-0.134C0.152,-0.134 0.166,-0.128 0.177,-0.116C0.187,-0.104 0.192,-0.089 0.192,-0.072Z" style="fill-opacity:0.5;fill-rule:nonzero;"/>
                </g>
            </g>
            <g transform="matrix(1,0,0,1,7.03873,439.121)">
                <g transform="matrix(36,0,0,36,1067.45,157.348)">
                    <path d="M0.192,-0.072C0.192,-0.053 0.185,-0.036 0.173,-0.021C0.16,-0.006 0.142,0.001 0.119,0.001C0.1,0.001 0.085,-0.005 0.074,-0.018C0.064,-0.031 0.059,-0.046 0.059,-0.063C0.059,-0.082 0.065,-0.099 0.078,-0.113C0.091,-0.127 0.109,-0.134 0.132,-0.134C0.152,-0.134 0.166,-0.128 0.177,-0.116C0.187,-0.104 0.192,-0.089 0.192,-0.072Z" style="fill-opacity:0.5;fill-rule:nonzero;"/>
                </g>
            </g>
            <g transform="matrix(1,0,0,1,7.03873,400.121)">
                <g transform="matrix(36,0,0,36,1067.45,157.348)">
                    <path d="M0.192,-0.072C0.192,-0.053 0.185,-0.036 0.173,-0.021C0.16,-0.006 0.142,0.001 0.119,0.001C0.1,0.001 0.085,-0.005 0.074,-0.018C0.064,-0.031 0.059,-0.046 0.059,-0.063C0.059,-0.082 0.065,-0.099 0.078,-0.113C0.091,-0.127 0.109,-0.134 0.132,-0.134C0.152,-0.134 0.166,-0.128 0.177,-0.116C0.187,-0.104 0.192,-0.089 0.192,-0.072Z" style="fill-opacity:0.5;fill-rule:nonzero;"/>
                </g>
            </g>
            <g transform="matrix(1,0,0,1,7.03873,361.086)">
                <g transform="matrix(36,0,0,36,1067.45,157.348)">
                    <path d="M0.192,-0.072C0.192,-0.053 0.185,-0.036 0.173,-0.021C0.16,-0.006 0.142,0.001 0.119,0.001C0.1,0.001 0.085,-0.005 0.074,-0.018C0.064,-0.031 0.059,-0.046 0.059,-0.063C0.059,-0.082 0.065,-0.099 0.078,-0.113C0.091,-0.127 0.109,-0.134 0.132,-0.134C0.152,-0.134 0.166,-0.128 0.177,-0.116C0.187,-0.104 0.192,-0.089 0.192,-0.072Z" style="fill-opacity:0.5;fill-rule:nonzero;"/>
                </g>
            </g>
            <g transform="matrix(1,0,0,1,7.03873,322.086)">
                <g transform="matrix(36,0,0,36,1067.45,157.348)">
                    <path d="M0.192,-0.072C0.192,-0.053 0.185,-0.036 0.173,-0.021C0.16,-0.006 0.142,0.001 0.119,0.001C0.1,0.001 0.085,-0.005 0.074,-0.018C0.064,-0.031 0.059,-0.046 0.059,-0.063C0.059,-0.082 0.065,-0.099 0.078,-0.113C0.091,-0.127 0.109,-0.134 0.132,-0.134C0.152,-0.134 0.166,-0.128 0.177,-0.116C0.187,-0.104 0.192,-0.089 0.192,-0.072Z" style="fill-opacity:0.5;fill-rule:nonzero;"/>
                </g>
            </g>
            <g transform="matrix(1,0,0,1,7.03873,283.121)">
                <g transform="matrix(36,0,0,36,1067.45,157.348)">
                    <path d="M0.192,-0.072C0.192,-0.053 0.185,-0.036 0.173,-0.021C0.16,-0.006 0.142,0.001 0.119,0.001C0.1,0.001 0.085,-0.005 0.074,-0.018C0.064,-0.031 0.059,-0.046 0.059,-0.063C0.059,-0.082 0.065,-0.099 0.078,-0.113C0.091,-0.127 0.109,-0.134 0.132,-0.134C0.152,-0.134 0.166,-0.128 0.177,-0.116C0.187,-0.104 0.192,-0.089 0.192,-0.072Z" style="fill-opacity:0.5;fill-rule:nonzero;"/>
                </g>
            </g>
            <g transform="matrix(1,0,0,1,7.03873,244.121)">
                <g transform="matrix(36,0,0,36,1067.45,157.348)">
                    <path d="M0.192,-0.072C0.192,-0.053 0.185,-0.036 0.173,-0.021C0.16,-0.006 0.142,0.001 0.119,0.001C0.1,0.001 0.085,-0.005 0.074,-0.018C0.064,-0.031 0.059,-0.046 0.059,-0.063C0.059,-0.082 0.065,-0.099 0.078,-0.113C0.091,-0.127 0.109,-0.134 0.132,-0.134C0.152,-0.134 0.166,-0.128 0.177,-0.116C0.187,-0.104 0.192,-0.089 0.192,-0.072Z" style="fill-opacity:0.5;fill-rule:nonzero;"/>
                </g>
            </g>
            <g transform="matrix(1,0,0,1,7.03873,205.086)">
                <g transform="matrix(36,0,0,36,1067.45,157.348)">
                    <path d="M0.192,-0.072C0.192,-0.053 0.185,-0.036 0.173,-0.021C0.16,-0.006 0.142,0.001 0.119,0.001C0.1,0.001 0.085,-0.005 0.074,-0.018C0.064,-0.031 0.059,-0.046 0.059,-0.063C0.059,-0.082 0.065,-0.099 0.078,-0.113C0.091,-0.127 0.109,-0.134 0.132,-0.134C0.152,-0.134 0.166,-0.128 0.177,-0.116C0.187,-0.104 0.192,-0.089 0.192,-0.072Z" style="fill-opacity:0.5;fill-rule:nonzero;"/>
                </g>
            </g>
            <g transform="matrix(1,0,0,1,7.03873,166.086)">
                <g transform="matrix(36,0,0,36,1067.45,157.348)">
                    <path d="M0.192,-0.072C0.192,-0.053 0.185,-0.036 0.173,-0.021C0.16,-0.006 0.142,0.001 0.119,0.001C0.1,0.001 0.085,-0.005 0.074,-0.018C0.064,-0.031 0.059,-0.046 0.059,-0.063C0.059,-0.082 0.065,-0.099 0.078,-0.113C0.091,-0.127 0.109,-0.134 0.132,-0.134C0.152,-0.134 0.166,-0.128 0.177,-0.116C0.187,-0.104 0.192,-0.089 0.192,-0.072Z" style="fill-opacity:0.5;fill-rule:nonzero;"/>
                </g>
            </g>
            <g transform="matrix(1,0,0,1,7.03873,127.086)">
                <g transform="matrix(36,0,0,36,1067.45,157.348)">
                    <path d="M0.192,-0.072C0.192,-0.053 0.185,-0.036 0.173,-0.021C0.16,-0.006 0.142,0.001 0.119,0.001C0.1,0.001 0.085,-0.005 0.074,-0.018C0.064,-0.031 0.059,-0.046 0.059,-0.063C0.059,-0.082 0.065,-0.099 0.078,-0.113C0.091,-0.127 0.109,-0.134 0.132,-0.134C0.152,-0.134 0.166,-0.128 0.177,-0.116C0.187,-0.104 0.192,-0.089 0.192,-0.072Z" style="fill-opacity:0.5;fill-rule:nonzero;"/>
                </g>
            </g>
            <g transform="matrix(1,0,0,1,7.03873,88.0864)">
                <g transform="matrix(36,0,0,36,1067.45,157.348)">
                    <path d="M0.192,-0.072C0.192,-0.053 0.185,-0.036 0.173,-0.021C0.16,-0.006 0.142,0.001 0.119,0.001C0.1,0.001 0.085,-0.005 0.074,-0.018C0.064,-0.031 0.059,-0.046 0.059,-0.063C0.059,-0.082 0.065,-0.099 0.078,-0.113C0.091,-0.127 0.109,-0.134 0.132,-0.134C0.152,-0.134 0.166,-0.128 0.177,-0.116C0.187,-0.104 0.192,-0.089 0.192,-0.072Z" style="fill-opacity:0.5;fill-rule:nonzero;"/>
                </g>
            </g>
            <g transform="matrix(1,0,0,1,7.03873,49.0518)">
                <g transform="matrix(36,0,0,36,1067.45,157.348)">
                    <path d="M0.192,-0.072C0.192,-0.053 0.185,-0.036 0.173,-0.021C0.16,-0.006 0.142,0.001 0.119,0.001C0.1,0.001 0.085,-0.005 0.074,-0.018C0.064,-0.031 0.059,-0.046 0.059,-0.063C0.059,-0.082 0.065,-0.099 0.078,-0.113C0.091,-0.127 0.109,-0.134 0.132,-0.134C0.152,-0.134 0.166,-0.128 0.177,-0.116C0.187,-0.104 0.192,-0.089 0.192,-0.072Z" style="fill-opacity:0.5;fill-rule:nonzero;"/>
                </g>
            </g>
            <g transform="matrix(1,0,0,1,7.03873,10.0518)">
                <g transform="matrix(36,0,0,36,1067.45,157.348)">
                    <path d="M0.192,-0.072C0.192,-0.053 0.185,-0.036 0.173,-0.021C0.16,-0.006 0.142,0.001 0.119,0.001C0.1,0.001 0.085,-0.005 0.074,-0.018C0.064,-0.031 0.059,-0.046 0.059,-0.063C0.059,-0.082 0.065,-0.099 0.078,-0.113C0.091,-0.127 0.109,-0.134 0.132,-0.134C0.152,-0.134 0.166,-0.128 0.177,-0.116C0.187,-0.104 0.192,-0.089 0.192,-0.072Z" style="fill-opacity:0.5;fill-rule:nonzero;"/>
                </g>
            </g>
        </g>
        <g id="Amt-Column" serif:id="Amt Column">
            <g transform="matrix(1,0,0,1,7.03873,1687.16)">
                <g transform="matrix(36,0,0,36,1067.45,157.348)">
                    <path d="M0.192,-0.072C0.192,-0.053 0.185,-0.036 0.173,-0.021C0.16,-0.006 0.142,0.001 0.119,0.001C0.1,0.001 0.085,-0.005 0.074,-0.018C0.064,-0.031 0.059,-0.046 0.059,-0.063C0.059,-0.082 0.065,-0.099 0.078,-0.113C0.091,-0.127 0.109,-0.134 0.132,-0.134C0.152,-0.134 0.166,-0.128 0.177,-0.116C0.187,-0.104 0.192,-0.089 0.192,-0.072Z" style="fill-opacity:0.5;fill-rule:nonzero;"/>
                </g>
            </g>
            <g transform="matrix(1,0,0,1,7.03873,1648.16)">
                <g transform="matrix(36,0,0,36,1067.45,157.348)">
                    <path d="M0.192,-0.072C0.192,-0.053 0.185,-0.036 0.173,-0.021C0.16,-0.006 0.142,0.001 0.119,0.001C0.1,0.001 0.085,-0.005 0.074,-0.018C0.064,-0.031 0.059,-0.046 0.059,-0.063C0.059,-0.082 0.065,-0.099 0.078,-0.113C0.091,-0.127 0.109,-0.134 0.132,-0.134C0.152,-0.134 0.166,-0.128 0.177,-0.116C0.187,-0.104 0.192,-0.089 0.192,-0.072Z" style="fill-opacity:0.5;fill-rule:nonzero;"/>
                </g>
            </g>
            <g transform="matrix(1,0,0,1,7.03873,1609.12)">
                <g transform="matrix(36,0,0,36,1067.45,157.348)">
                    <path d="M0.192,-0.072C0.192,-0.053 0.185,-0.036 0.173,-0.021C0.16,-0.006 0.142,0.001 0.119,0.001C0.1,0.001 0.085,-0.005 0.074,-0.018C0.064,-0.031 0.059,-0.046 0.059,-0.063C0.059,-0.082 0.065,-0.099 0.078,-0.113C0.091,-0.127 0.109,-0.134 0.132,-0.134C0.152,-0.134 0.166,-0.128 0.177,-0.116C0.187,-0.104 0.192,-0.089 0.192,-0.072Z" style="fill-opacity:0.5;fill-rule:nonzero;"/>
                </g>
            </g>
            <g transform="matrix(1,0,0,1,7.03873,1570.12)">
                <g transform="matrix(36,0,0,36,1067.45,157.348)">
                    <path d="M0.192,-0.072C0.192,-0.053 0.185,-0.036 0.173,-0.021C0.16,-0.006 0.142,0.001 0.119,0.001C0.1,0.001 0.085,-0.005 0.074,-0.018C0.064,-0.031 0.059,-0.046 0.059,-0.063C0.059,-0.082 0.065,-0.099 0.078,-0.113C0.091,-0.127 0.109,-0.134 0.132,-0.134C0.152,-0.134 0.166,-0.128 0.177,-0.116C0.187,-0.104 0.192,-0.089 0.192,-0.072Z" style="fill-opacity:0.5;fill-rule:nonzero;"/>
                </g>
            </g>
            <g transform="matrix(1,0,0,1,7.03873,1531.16)">
                <g transform="matrix(36,0,0,36,1067.45,157.348)">
                    <path d="M0.192,-0.072C0.192,-0.053 0.185,-0.036 0.173,-0.021C0.16,-0.006 0.142,0.001 0.119,0.001C0.1,0.001 0.085,-0.005 0.074,-0.018C0.064,-0.031 0.059,-0.046 0.059,-0.063C0.059,-0.082 0.065,-0.099 0.078,-0.113C0.091,-0.127 0.109,-0.134 0.132,-0.134C0.152,-0.134 0.166,-0.128 0.177,-0.116C0.187,-0.104 0.192,-0.089 0.192,-0.072Z" style="fill-opacity:0.5;fill-rule:nonzero;"/>
                </g>
            </g>
            <g transform="matrix(1,0,0,1,7.03873,1492.16)">
                <g transform="matrix(36,0,0,36,1067.45,157.348)">
                    <path d="M0.192,-0.072C0.192,-0.053 0.185,-0.036 0.173,-0.021C0.16,-0.006 0.142,0.001 0.119,0.001C0.1,0.001 0.085,-0.005 0.074,-0.018C0.064,-0.031 0.059,-0.046 0.059,-0.063C0.059,-0.082 0.065,-0.099 0.078,-0.113C0.091,-0.127 0.109,-0.134 0.132,-0.134C0.152,-0.134 0.166,-0.128 0.177,-0.116C0.187,-0.104 0.192,-0.089 0.192,-0.072Z" style="fill-opacity:0.5;fill-rule:nonzero;"/>
                </g>
            </g>
            <g transform="matrix(1,0,0,1,7.03873,1453.12)">
                <g transform="matrix(36,0,0,36,1067.45,157.348)">
                    <path d="M0.192,-0.072C0.192,-0.053 0.185,-0.036 0.173,-0.021C0.16,-0.006 0.142,0.001 0.119,0.001C0.1,0.001 0.085,-0.005 0.074,-0.018C0.064,-0.031 0.059,-0.046 0.059,-0.063C0.059,-0.082 0.065,-0.099 0.078,-0.113C0.091,-0.127 0.109,-0.134 0.132,-0.134C0.152,-0.134 0.166,-0.128 0.177,-0.116C0.187,-0.104 0.192,-0.089 0.192,-0.072Z" style="fill-opacity:0.5;fill-rule:nonzero;"/>
                </g>
            </g>
            <g transform="matrix(1,0,0,1,7.03873,1414.12)">
                <g transform="matrix(36,0,0,36,1067.45,157.348)">
                    <path d="M0.192,-0.072C0.192,-0.053 0.185,-0.036 0.173,-0.021C0.16,-0.006 0.142,0.001 0.119,0.001C0.1,0.001 0.085,-0.005 0.074,-0.018C0.064,-0.031 0.059,-0.046 0.059,-0.063C0.059,-0.082 0.065,-0.099 0.078,-0.113C0.091,-0.127 0.109,-0.134 0.132,-0.134C0.152,-0.134 0.166,-0.128 0.177,-0.116C0.187,-0.104 0.192,-0.089 0.192,-0.072Z" style="fill-opacity:0.5;fill-rule:nonzero;"/>
                </g>
            </g>
            <g transform="matrix(1,0,0,1,7.03873,1375.12)">
                <g transform="matrix(36,0,0,36,1067.45,157.348)">
                    <path d="M0.192,-0.072C0.192,-0.053 0.185,-0.036 0.173,-0.021C0.16,-0.006 0.142,0.001 0.119,0.001C0.1,0.001 0.085,-0.005 0.074,-0.018C0.064,-0.031 0.059,-0.046 0.059,-0.063C0.059,-0.082 0.065,-0.099 0.078,-0.113C0.091,-0.127 0.109,-0.134 0.132,-0.134C0.152,-0.134 0.166,-0.128 0.177,-0.116C0.187,-0.104 0.192,-0.089 0.192,-0.072Z" style="fill-opacity:0.5;fill-rule:nonzero;"/>
                </g>
            </g>
            <g transform="matrix(1,0,0,1,7.03873,1336.12)">
                <g transform="matrix(36,0,0,36,1067.45,157.348)">
                    <path d="M0.192,-0.072C0.192,-0.053 0.185,-0.036 0.173,-0.021C0.16,-0.006 0.142,0.001 0.119,0.001C0.1,0.001 0.085,-0.005 0.074,-0.018C0.064,-0.031 0.059,-0.046 0.059,-0.063C0.059,-0.082 0.065,-0.099 0.078,-0.113C0.091,-0.127 0.109,-0.134 0.132,-0.134C0.152,-0.134 0.166,-0.128 0.177,-0.116C0.187,-0.104 0.192,-0.089 0.192,-0.072Z" style="fill-opacity:0.5;fill-rule:nonzero;"/>
                </g>
            </g>
            <g transform="matrix(1,0,0,1,7.03873,1297.09)">
                <g transform="matrix(36,0,0,36,1067.45,157.348)">
                    <path d="M0.192,-0.072C0.192,-0.053 0.185,-0.036 0.173,-0.021C0.16,-0.006 0.142,0.001 0.119,0.001C0.1,0.001 0.085,-0.005 0.074,-0.018C0.064,-0.031 0.059,-0.046 0.059,-0.063C0.059,-0.082 0.065,-0.099 0.078,-0.113C0.091,-0.127 0.109,-0.134 0.132,-0.134C0.152,-0.134 0.166,-0.128 0.177,-0.116C0.187,-0.104 0.192,-0.089 0.192,-0.072Z" style="fill-opacity:0.5;fill-rule:nonzero;"/>
                </g>
            </g>
            <g transform="matrix(1,0,0,1,7.03873,1258.09)">
                <g transform="matrix(36,0,0,36,1067.45,157.348)">
                    <path d="M0.192,-0.072C0.192,-0.053 0.185,-0.036 0.173,-0.021C0.16,-0.006 0.142,0.001 0.119,0.001C0.1,0.001 0.085,-0.005 0.074,-0.018C0.064,-0.031 0.059,-0.046 0.059,-0.063C0.059,-0.082 0.065,-0.099 0.078,-0.113C0.091,-0.127 0.109,-0.134 0.132,-0.134C0.152,-0.134 0.166,-0.128 0.177,-0.116C0.187,-0.104 0.192,-0.089 0.192,-0.072Z" style="fill-opacity:0.5;fill-rule:nonzero;"/>
                </g>
            </g>
            <g transform="matrix(1,0,0,1,7.03873,1219.19)">
                <g transform="matrix(36,0,0,36,1067.45,157.348)">
                    <path d="M0.192,-0.072C0.192,-0.053 0.185,-0.036 0.173,-0.021C0.16,-0.006 0.142,0.001 0.119,0.001C0.1,0.001 0.085,-0.005 0.074,-0.018C0.064,-0.031 0.059,-0.046 0.059,-0.063C0.059,-0.082 0.065,-0.099 0.078,-0.113C0.091,-0.127 0.109,-0.134 0.132,-0.134C0.152,-0.134 0.166,-0.128 0.177,-0.116C0.187,-0.104 0.192,-0.089 0.192,-0.072Z" style="fill-opacity:0.5;fill-rule:nonzero;"/>
                </g>
            </g>
            <g transform="matrix(1,0,0,1,7.03873,1180.19)">
                <g transform="matrix(36,0,0,36,1067.45,157.348)">
                    <path d="M0.192,-0.072C0.192,-0.053 0.185,-0.036 0.173,-0.021C0.16,-0.006 0.142,0.001 0.119,0.001C0.1,0.001 0.085,-0.005 0.074,-0.018C0.064,-0.031 0.059,-0.046 0.059,-0.063C0.059,-0.082 0.065,-0.099 0.078,-0.113C0.091,-0.127 0.109,-0.134 0.132,-0.134C0.152,-0.134 0.166,-0.128 0.177,-0.116C0.187,-0.104 0.192,-0.089 0.192,-0.072Z" style="fill-opacity:0.5;fill-rule:nonzero;"/>
                </g>
            </g>
            <g transform="matrix(1,0,0,1,7.03873,1141.16)">
                <g transform="matrix(36,0,0,36,1067.45,157.348)">
                    <path d="M0.192,-0.072C0.192,-0.053 0.185,-0.036 0.173,-0.021C0.16,-0.006 0.142,0.001 0.119,0.001C0.1,0.001 0.085,-0.005 0.074,-0.018C0.064,-0.031 0.059,-0.046 0.059,-0.063C0.059,-0.082 0.065,-0.099 0.078,-0.113C0.091,-0.127 0.109,-0.134 0.132,-0.134C0.152,-0.134 0.166,-0.128 0.177,-0.116C0.187,-0.104 0.192,-0.089 0.192,-0.072Z" style="fill-opacity:0.5;fill-rule:nonzero;"/>
                </g>
            </g>
            <g transform="matrix(1,0,0,1,7.03873,1102.16)">
                <g transform="matrix(36,0,0,36,1067.45,157.348)">
                    <path d="M0.192,-0.072C0.192,-0.053 0.185,-0.036 0.173,-0.021C0.16,-0.006 0.142,0.001 0.119,0.001C0.1,0.001 0.085,-0.005 0.074,-0.018C0.064,-0.031 0.059,-0.046 0.059,-0.063C0.059,-0.082 0.065,-0.099 0.078,-0.113C0.091,-0.127 0.109,-0.134 0.132,-0.134C0.152,-0.134 0.166,-0.128 0.177,-0.116C0.187,-0.104 0.192,-0.089 0.192,-0.072Z" style="fill-opacity:0.5;fill-rule:nonzero;"/>
                </g>
            </g>
            <g transform="matrix(1,0,0,1,7.03873,1063.16)">
                <g transform="matrix(36,0,0,36,1067.45,157.348)">
                    <path d="M0.192,-0.072C0.192,-0.053 0.185,-0.036 0.173,-0.021C0.16,-0.006 0.142,0.001 0.119,0.001C0.1,0.001 0.085,-0.005 0.074,-0.018C0.064,-0.031 0.059,-0.046 0.059,-0.063C0.059,-0.082 0.065,-0.099 0.078,-0.113C0.091,-0.127 0.109,-0.134 0.132,-0.134C0.152,-0.134 0.166,-0.128 0.177,-0.116C0.187,-0.104 0.192,-0.089 0.192,-0.072Z" style="fill-opacity:0.5;fill-rule:nonzero;"/>
                </g>
            </g>
            <g transform="matrix(1,0,0,1,7.03873,1024.16)">
                <g transform="matrix(36,0,0,36,1067.45,157.348)">
                    <path d="M0.192,-0.072C0.192,-0.053 0.185,-0.036 0.173,-0.021C0.16,-0.006 0.142,0.001 0.119,0.001C0.1,0.001 0.085,-0.005 0.074,-0.018C0.064,-0.031 0.059,-0.046 0.059,-0.063C0.059,-0.082 0.065,-0.099 0.078,-0.113C0.091,-0.127 0.109,-0.134 0.132,-0.134C0.152,-0.134 0.166,-0.128 0.177,-0.116C0.187,-0.104 0.192,-0.089 0.192,-0.072Z" style="fill-opacity:0.5;fill-rule:nonzero;"/>
                </g>
            </g>
            <g transform="matrix(1,0,0,1,7.03873,985.121)">
                <g transform="matrix(36,0,0,36,1067.45,157.348)">
                    <path d="M0.192,-0.072C0.192,-0.053 0.185,-0.036 0.173,-0.021C0.16,-0.006 0.142,0.001 0.119,0.001C0.1,0.001 0.085,-0.005 0.074,-0.018C0.064,-0.031 0.059,-0.046 0.059,-0.063C0.059,-0.082 0.065,-0.099 0.078,-0.113C0.091,-0.127 0.109,-0.134 0.132,-0.134C0.152,-0.134 0.166,-0.128 0.177,-0.116C0.187,-0.104 0.192,-0.089 0.192,-0.072Z" style="fill-opacity:0.5;fill-rule:nonzero;"/>
                </g>
            </g>
            <g transform="matrix(1,0,0,1,7.03873,946.121)">
                <g transform="matrix(36,0,0,36,1067.45,157.348)">
                    <path d="M0.192,-0.072C0.192,-0.053 0.185,-0.036 0.173,-0.021C0.16,-0.006 0.142,0.001 0.119,0.001C0.1,0.001 0.085,-0.005 0.074,-0.018C0.064,-0.031 0.059,-0.046 0.059,-0.063C0.059,-0.082 0.065,-0.099 0.078,-0.113C0.091,-0.127 0.109,-0.134 0.132,-0.134C0.152,-0.134 0.166,-0.128 0.177,-0.116C0.187,-0.104 0.192,-0.089 0.192,-0.072Z" style="fill-opacity:0.5;fill-rule:nonzero;"/>
                </g>
            </g>
            <g transform="matrix(1,0,0,1,7.03873,907.156)">
                <g transform="matrix(36,0,0,36,1067.45,157.348)">
                    <path d="M0.192,-0.072C0.192,-0.053 0.185,-0.036 0.173,-0.021C0.16,-0.006 0.142,0.001 0.119,0.001C0.1,0.001 0.085,-0.005 0.074,-0.018C0.064,-0.031 0.059,-0.046 0.059,-0.063C0.059,-0.082 0.065,-0.099 0.078,-0.113C0.091,-0.127 0.109,-0.134 0.132,-0.134C0.152,-0.134 0.166,-0.128 0.177,-0.116C0.187,-0.104 0.192,-0.089 0.192,-0.072Z" style="fill-opacity:0.5;fill-rule:nonzero;"/>
                </g>
            </g>
            <g transform="matrix(1,0,0,1,7.03873,868.156)">
                <g transform="matrix(36,0,0,36,1067.45,157.348)">
                    <path d="M0.192,-0.072C0.192,-0.053 0.185,-0.036 0.173,-0.021C0.16,-0.006 0.142,0.001 0.119,0.001C0.1,0.001 0.085,-0.005 0.074,-0.018C0.064,-0.031 0.059,-0.046 0.059,-0.063C0.059,-0.082 0.065,-0.099 0.078,-0.113C0.091,-0.127 0.109,-0.134 0.132,-0.134C0.152,-0.134 0.166,-0.128 0.177,-0.116C0.187,-0.104 0.192,-0.089 0.192,-0.072Z" style="fill-opacity:0.5;fill-rule:nonzero;"/>
                </g>
            </g>
            <g transform="matrix(1,0,0,1,7.03873,829.121)">
                <g transform="matrix(36,0,0,36,1067.45,157.348)">
                    <path d="M0.192,-0.072C0.192,-0.053 0.185,-0.036 0.173,-0.021C0.16,-0.006 0.142,0.001 0.119,0.001C0.1,0.001 0.085,-0.005 0.074,-0.018C0.064,-0.031 0.059,-0.046 0.059,-0.063C0.059,-0.082 0.065,-0.099 0.078,-0.113C0.091,-0.127 0.109,-0.134 0.132,-0.134C0.152,-0.134 0.166,-0.128 0.177,-0.116C0.187,-0.104 0.192,-0.089 0.192,-0.072Z" style="fill-opacity:0.5;fill-rule:nonzero;"/>
                </g>
            </g>
            <g transform="matrix(1,0,0,1,7.03873,790.121)">
                <g transform="matrix(36,0,0,36,1067.45,157.348)">
                    <path d="M0.192,-0.072C0.192,-0.053 0.185,-0.036 0.173,-0.021C0.16,-0.006 0.142,0.001 0.119,0.001C0.1,0.001 0.085,-0.005 0.074,-0.018C0.064,-0.031 0.059,-0.046 0.059,-0.063C0.059,-0.082 0.065,-0.099 0.078,-0.113C0.091,-0.127 0.109,-0.134 0.132,-0.134C0.152,-0.134 0.166,-0.128 0.177,-0.116C0.187,-0.104 0.192,-0.089 0.192,-0.072Z" style="fill-opacity:0.5;fill-rule:nonzero;"/>
                </g>
            </g>
            <g transform="matrix(1,0,0,1,7.03873,751.121)">
                <g transform="matrix(36,0,0,36,1067.45,157.348)">
                    <path d="M0.192,-0.072C0.192,-0.053 0.185,-0.036 0.173,-0.021C0.16,-0.006 0.142,0.001 0.119,0.001C0.1,0.001 0.085,-0.005 0.074,-0.018C0.064,-0.031 0.059,-0.046 0.059,-0.063C0.059,-0.082 0.065,-0.099 0.078,-0.113C0.091,-0.127 0.109,-0.134 0.132,-0.134C0.152,-0.134 0.166,-0.128 0.177,-0.116C0.187,-0.104 0.192,-0.089 0.192,-0.072Z" style="fill-opacity:0.5;fill-rule:nonzero;"/>
                </g>
            </g>
            <g transform="matrix(1,0,0,1,7.03873,712.121)">
                <g transform="matrix(36,0,0,36,1067.45,157.348)">
                    <path d="M0.192,-0.072C0.192,-0.053 0.185,-0.036 0.173,-0.021C0.16,-0.006 0.142,0.001 0.119,0.001C0.1,0.001 0.085,-0.005 0.074,-0.018C0.064,-0.031 0.059,-0.046 0.059,-0.063C0.059,-0.082 0.065,-0.099 0.078,-0.113C0.091,-0.127 0.109,-0.134 0.132,-0.134C0.152,-0.134 0.166,-0.128 0.177,-0.116C0.187,-0.104 0.192,-0.089 0.192,-0.072Z" style="fill-opacity:0.5;fill-rule:nonzero;"/>
                </g>
            </g>
            <g transform="matrix(1,0,0,1,7.03873,673.086)">
                <g transform="matrix(36,0,0,36,1067.45,157.348)">
                    <path d="M0.192,-0.072C0.192,-0.053 0.185,-0.036 0.173,-0.021C0.16,-0.006 0.142,0.001 0.119,0.001C0.1,0.001 0.085,-0.005 0.074,-0.018C0.064,-0.031 0.059,-0.046 0.059,-0.063C0.059,-0.082 0.065,-0.099 0.078,-0.113C0.091,-0.127 0.109,-0.134 0.132,-0.134C0.152,-0.134 0.166,-0.128 0.177,-0.116C0.187,-0.104 0.192,-0.089 0.192,-0.072Z" style="fill-opacity:0.5;fill-rule:nonzero;"/>
                </g>
            </g>
            <g transform="matrix(1,0,0,1,7.03873,634.086)">
                <g transform="matrix(36,0,0,36,1067.45,157.348)">
                    <path d="M0.192,-0.072C0.192,-0.053 0.185,-0.036 0.173,-0.021C0.16,-0.006 0.142,0.001 0.119,0.001C0.1,0.001 0.085,-0.005 0.074,-0.018C0.064,-0.031 0.059,-0.046 0.059,-0.063C0.059,-0.082 0.065,-0.099 0.078,-0.113C0.091,-0.127 0.109,-0.134 0.132,-0.134C0.152,-0.134 0.166,-0.128 0.177,-0.116C0.187,-0.104 0.192,-0.089 0.192,-0.072Z" style="fill-opacity:0.5;fill-rule:nonzero;"/>
                </g>
            </g>
            <g transform="matrix(1,0,0,1,7.03873,595.156)">
                <g transform="matrix(36,0,0,36,1067.45,157.348)">
                    <path d="M0.192,-0.072C0.192,-0.053 0.185,-0.036 0.173,-0.021C0.16,-0.006 0.142,0.001 0.119,0.001C0.1,0.001 0.085,-0.005 0.074,-0.018C0.064,-0.031 0.059,-0.046 0.059,-0.063C0.059,-0.082 0.065,-0.099 0.078,-0.113C0.091,-0.127 0.109,-0.134 0.132,-0.134C0.152,-0.134 0.166,-0.128 0.177,-0.116C0.187,-0.104 0.192,-0.089 0.192,-0.072Z" style="fill-opacity:0.5;fill-rule:nonzero;"/>
                </g>
            </g>
            <g transform="matrix(1,0,0,1,7.03873,556.156)">
                <g transform="matrix(36,0,0,36,1067.45,157.348)">
                    <path d="M0.192,-0.072C0.192,-0.053 0.185,-0.036 0.173,-0.021C0.16,-0.006 0.142,0.001 0.119,0.001C0.1,0.001 0.085,-0.005 0.074,-0.018C0.064,-0.031 0.059,-0.046 0.059,-0.063C0.059,-0.082 0.065,-0.099 0.078,-0.113C0.091,-0.127 0.109,-0.134 0.132,-0.134C0.152,-0.134 0.166,-0.128 0.177,-0.116C0.187,-0.104 0.192,-0.089 0.192,-0.072Z" style="fill-opacity:0.5;fill-rule:nonzero;"/>
                </g>
            </g>
            <g transform="matrix(1,0,0,1,7.03873,517.121)">
                <g transform="matrix(36,0,0,36,1067.45,157.348)">
                    <path d="M0.192,-0.072C0.192,-0.053 0.185,-0.036 0.173,-0.021C0.16,-0.006 0.142,0.001 0.119,0.001C0.1,0.001 0.085,-0.005 0.074,-0.018C0.064,-0.031 0.059,-0.046 0.059,-0.063C0.059,-0.082 0.065,-0.099 0.078,-0.113C0.091,-0.127 0.109,-0.134 0.132,-0.134C0.152,-0.134 0.166,-0.128 0.177,-0.116C0.187,-0.104 0.192,-0.089 0.192,-0.072Z" style="fill-opacity:0.5;fill-rule:nonzero;"/>
                </g>
            </g>
            <g transform="matrix(1,0,0,1,7.03873,478.121)">
                <g transform="matrix(36,0,0,36,1067.45,157.348)">
                    <path d="M0.192,-0.072C0.192,-0.053 0.185,-0.036 0.173,-0.021C0.16,-0.006 0.142,0.001 0.119,0.001C0.1,0.001 0.085,-0.005 0.074,-0.018C0.064,-0.031 0.059,-0.046 0.059,-0.063C0.059,-0.082 0.065,-0.099 0.078,-0.113C0.091,-0.127 0.109,-0.134 0.132,-0.134C0.152,-0.134 0.166,-0.128 0.177,-0.116C0.187,-0.104 0.192,-0.089 0.192,-0.072Z" style="fill-opacity:0.5;fill-rule:nonzero;"/>
                </g>
            </g>
            <g transform="matrix(1,0,0,1,7.03873,439.121)">
                <g transform="matrix(36,0,0,36,1067.45,157.348)">
                    <path d="M0.192,-0.072C0.192,-0.053 0.185,-0.036 0.173,-0.021C0.16,-0.006 0.142,0.001 0.119,0.001C0.1,0.001 0.085,-0.005 0.074,-0.018C0.064,-0.031 0.059,-0.046 0.059,-0.063C0.059,-0.082 0.065,-0.099 0.078,-0.113C0.091,-0.127 0.109,-0.134 0.132,-0.134C0.152,-0.134 0.166,-0.128 0.177,-0.116C0.187,-0.104 0.192,-0.089 0.192,-0.072Z" style="fill-opacity:0.5;fill-rule:nonzero;"/>
                </g>
            </g>
            <g transform="matrix(1,0,0,1,7.03873,400.121)">
                <g transform="matrix(36,0,0,36,1067.45,157.348)">
                    <path d="M0.192,-0.072C0.192,-0.053 0.185,-0.036 0.173,-0.021C0.16,-0.006 0.142,0.001 0.119,0.001C0.1,0.001 0.085,-0.005 0.074,-0.018C0.064,-0.031 0.059,-0.046 0.059,-0.063C0.059,-0.082 0.065,-0.099 0.078,-0.113C0.091,-0.127 0.109,-0.134 0.132,-0.134C0.152,-0.134 0.166,-0.128 0.177,-0.116C0.187,-0.104 0.192,-0.089 0.192,-0.072Z" style="fill-opacity:0.5;fill-rule:nonzero;"/>
                </g>
            </g>
            <g transform="matrix(1,0,0,1,7.03873,361.086)">
                <g transform="matrix(36,0,0,36,1067.45,157.348)">
                    <path d="M0.192,-0.072C0.192,-0.053 0.185,-0.036 0.173,-0.021C0.16,-0.006 0.142,0.001 0.119,0.001C0.1,0.001 0.085,-0.005 0.074,-0.018C0.064,-0.031 0.059,-0.046 0.059,-0.063C0.059,-0.082 0.065,-0.099 0.078,-0.113C0.091,-0.127 0.109,-0.134 0.132,-0.134C0.152,-0.134 0.166,-0.128 0.177,-0.116C0.187,-0.104 0.192,-0.089 0.192,-0.072Z" style="fill-opacity:0.5;fill-rule:nonzero;"/>
                </g>
            </g>
            <g transform="matrix(1,0,0,1,7.03873,322.086)">
                <g transform="matrix(36,0,0,36,1067.45,157.348)">
                    <path d="M0.192,-0.072C0.192,-0.053 0.185,-0.036 0.173,-0.021C0.16,-0.006 0.142,0.001 0.119,0.001C0.1,0.001 0.085,-0.005 0.074,-0.018C0.064,-0.031 0.059,-0.046 0.059,-0.063C0.059,-0.082 0.065,-0.099 0.078,-0.113C0.091,-0.127 0.109,-0.134 0.132,-0.134C0.152,-0.134 0.166,-0.128 0.177,-0.116C0.187,-0.104 0.192,-0.089 0.192,-0.072Z" style="fill-opacity:0.5;fill-rule:nonzero;"/>
                </g>
            </g>
            <g transform="matrix(1,0,0,1,7.03873,283.121)">
                <g transform="matrix(36,0,0,36,1067.45,157.348)">
                    <path d="M0.192,-0.072C0.192,-0.053 0.185,-0.036 0.173,-0.021C0.16,-0.006 0.142,0.001 0.119,0.001C0.1,0.001 0.085,-0.005 0.074,-0.018C0.064,-0.031 0.059,-0.046 0.059,-0.063C0.059,-0.082 0.065,-0.099 0.078,-0.113C0.091,-0.127 0.109,-0.134 0.132,-0.134C0.152,-0.134 0.166,-0.128 0.177,-0.116C0.187,-0.104 0.192,-0.089 0.192,-0.072Z" style="fill-opacity:0.5;fill-rule:nonzero;"/>
                </g>
            </g>
            <g transform="matrix(1,0,0,1,7.03873,244.121)">
                <g transform="matrix(36,0,0,36,1067.45,157.348)">
                    <path d="M0.192,-0.072C0.192,-0.053 0.185,-0.036 0.173,-0.021C0.16,-0.006 0.142,0.001 0.119,0.001C0.1,0.001 0.085,-0.005 0.074,-0.018C0.064,-0.031 0.059,-0.046 0.059,-0.063C0.059,-0.082 0.065,-0.099 0.078,-0.113C0.091,-0.127 0.109,-0.134 0.132,-0.134C0.152,-0.134 0.166,-0.128 0.177,-0.116C0.187,-0.104 0.192,-0.089 0.192,-0.072Z" style="fill-opacity:0.5;fill-rule:nonzero;"/>
                </g>
            </g>
            <g transform="matrix(1,0,0,1,7.03873,205.086)">
                <g transform="matrix(36,0,0,36,1067.45,157.348)">
                    <path d="M0.192,-0.072C0.192,-0.053 0.185,-0.036 0.173,-0.021C0.16,-0.006 0.142,0.001 0.119,0.001C0.1,0.001 0.085,-0.005 0.074,-0.018C0.064,-0.031 0.059,-0.046 0.059,-0.063C0.059,-0.082 0.065,-0.099 0.078,-0.113C0.091,-0.127 0.109,-0.134 0.132,-0.134C0.152,-0.134 0.166,-0.128 0.177,-0.116C0.187,-0.104 0.192,-0.089 0.192,-0.072Z" style="fill-opacity:0.5;fill-rule:nonzero;"/>
                </g>
            </g>
            <g transform="matrix(1,0,0,1,7.03873,166.086)">
                <g transform="matrix(36,0,0,36,1067.45,157.348)">
                    <path d="M0.192,-0.072C0.192,-0.053 0.185,-0.036 0.173,-0.021C0.16,-0.006 0.142,0.001 0.119,0.001C0.1,0.001 0.085,-0.005 0.074,-0.018C0.064,-0.031 0.059,-0.046 0.059,-0.063C0.059,-0.082 0.065,-0.099 0.078,-0.113C0.091,-0.127 0.109,-0.134 0.132,-0.134C0.152,-0.134 0.166,-0.128 0.177,-0.116C0.187,-0.104 0.192,-0.089 0.192,-0.072Z" style="fill-opacity:0.5;fill-rule:nonzero;"/>
                </g>
            </g>
            <g transform="matrix(1,0,0,1,7.03873,127.086)">
                <g transform="matrix(36,0,0,36,1067.45,157.348)">
                    <path d="M0.192,-0.072C0.192,-0.053 0.185,-0.036 0.173,-0.021C0.16,-0.006 0.142,0.001 0.119,0.001C0.1,0.001 0.085,-0.005 0.074,-0.018C0.064,-0.031 0.059,-0.046 0.059,-0.063C0.059,-0.082 0.065,-0.099 0.078,-0.113C0.091,-0.127 0.109,-0.134 0.132,-0.134C0.152,-0.134 0.166,-0.128 0.177,-0.116C0.187,-0.104 0.192,-0.089 0.192,-0.072Z" style="fill-opacity:0.5;fill-rule:nonzero;"/>
                </g>
            </g>
            <g transform="matrix(1,0,0,1,7.03873,88.0864)">
                <g transform="matrix(36,0,0,36,1067.45,157.348)">
                    <path d="M0.192,-0.072C0.192,-0.053 0.185,-0.036 0.173,-0.021C0.16,-0.006 0.142,0.001 0.119,0.001C0.1,0.001 0.085,-0.005 0.074,-0.018C0.064,-0.031 0.059,-0.046 0.059,-0.063C0.059,-0.082 0.065,-0.099 0.078,-0.113C0.091,-0.127 0.109,-0.134 0.132,-0.134C0.152,-0.134 0.166,-0.128 0.177,-0.116C0.187,-0.104 0.192,-0.089 0.192,-0.072Z" style="fill-opacity:0.5;fill-rule:nonzero;"/>
                </g>
            </g>
            <g transform="matrix(1,0,0,1,7.03873,49.0518)">
                <g transform="matrix(36,0,0,36,1067.45,157.348)">
                    <path d="M0.192,-0.072C0.192,-0.053 0.185,-0.036 0.173,-0.021C0.16,-0.006 0.142,0.001 0.119,0.001C0.1,0.001 0.085,-0.005 0.074,-0.018C0.064,-0.031 0.059,-0.046 0.059,-0.063C0.059,-0.082 0.065,-0.099 0.078,-0.113C0.091,-0.127 0.109,-0.134 0.132,-0.134C0.152,-0.134 0.166,-0.128 0.177,-0.116C0.187,-0.104 0.192,-0.089 0.192,-0.072Z" style="fill-opacity:0.5;fill-rule:nonzero;"/>
                </g>
            </g>
            <g transform="matrix(1,0,0,1,7.03873,10.0518)">
                <g transform="matrix(36,0,0,36,1067.45,157.348)">
                    <path d="M0.192,-0.072C0.192,-0.053 0.185,-0.036 0.173,-0.021C0.16,-0.006 0.142,0.001 0.119,0.001C0.1,0.001 0.085,-0.005 0.074,-0.018C0.064,-0.031 0.059,-0.046 0.059,-0.063C0.059,-0.082 0.065,-0.099 0.078,-0.113C0.091,-0.127 0.109,-0.134 0.132,-0.134C0.152,-0.134 0.166,-0.128 0.177,-0.116C0.187,-0.104 0.192,-0.089 0.192,-0.072Z" style="fill-opacity:0.5;fill-rule:nonzero;"/>
                </g>
            </g>
        </g>
    </g>
    <g id="Main-Border" serif:id="Main Border" transform="matrix(1.04267,0,0,1.02926,-42.5116,-22.7457)">
        <rect x="64.749" y="149.375" width="1298.6" height="1667.21" style="fill:none;stroke:black;stroke-width:0.97px;"/>
    </g>
    <g id="Headers" transform="matrix(1,0,0,1,0,6.83557)">
        <g transform="matrix(1,0,0,1,454.99,8.14184)">
            <g transform="matrix(24,0,0,24,760.264,103.519)">
                <path d="M0.073,-0L0.073,-0.716L0.342,-0.716C0.396,-0.716 0.44,-0.709 0.473,-0.694C0.506,-0.68 0.532,-0.657 0.551,-0.627C0.57,-0.597 0.579,-0.566 0.579,-0.533C0.579,-0.502 0.571,-0.473 0.554,-0.446C0.538,-0.419 0.513,-0.397 0.479,-0.381C0.522,-0.368 0.556,-0.347 0.579,-0.316C0.602,-0.285 0.614,-0.249 0.614,-0.208C0.614,-0.174 0.607,-0.143 0.593,-0.114C0.578,-0.085 0.561,-0.063 0.54,-0.047C0.519,-0.032 0.493,-0.02 0.462,-0.012C0.43,-0.004 0.392,-0 0.346,-0L0.073,-0ZM0.168,-0.415L0.323,-0.415C0.365,-0.415 0.395,-0.418 0.413,-0.423C0.437,-0.431 0.455,-0.442 0.468,-0.459C0.48,-0.476 0.486,-0.496 0.486,-0.521C0.486,-0.545 0.48,-0.566 0.469,-0.584C0.457,-0.602 0.441,-0.615 0.42,-0.621C0.399,-0.628 0.362,-0.631 0.311,-0.631L0.168,-0.631L0.168,-0.415ZM0.168,-0.084L0.346,-0.084C0.377,-0.084 0.398,-0.086 0.411,-0.088C0.432,-0.092 0.451,-0.098 0.465,-0.107C0.48,-0.117 0.492,-0.13 0.501,-0.147C0.511,-0.165 0.516,-0.185 0.516,-0.208C0.516,-0.234 0.509,-0.257 0.495,-0.277C0.481,-0.297 0.462,-0.311 0.438,-0.319C0.414,-0.327 0.379,-0.331 0.333,-0.331L0.168,-0.331L0.168,-0.084Z" style="fill-rule:nonzero;"/>
            </g>
            <g transform="matrix(24,0,0,24,776.272,103.519)">
                <path d="M0.404,-0.064C0.372,-0.036 0.34,-0.017 0.31,-0.005C0.28,0.006 0.248,0.012 0.213,0.012C0.156,0.012 0.113,-0.002 0.082,-0.03C0.051,-0.058 0.036,-0.093 0.036,-0.137C0.036,-0.162 0.042,-0.185 0.053,-0.206C0.065,-0.227 0.08,-0.244 0.099,-0.257C0.118,-0.27 0.139,-0.279 0.162,-0.286C0.179,-0.29 0.205,-0.295 0.24,-0.299C0.311,-0.307 0.363,-0.317 0.397,-0.329C0.397,-0.341 0.397,-0.349 0.397,-0.352C0.397,-0.388 0.389,-0.413 0.373,-0.428C0.35,-0.448 0.317,-0.458 0.272,-0.458C0.231,-0.458 0.201,-0.45 0.181,-0.436C0.161,-0.421 0.147,-0.396 0.137,-0.359L0.051,-0.371C0.059,-0.407 0.072,-0.437 0.09,-0.46C0.108,-0.482 0.134,-0.5 0.167,-0.512C0.201,-0.524 0.241,-0.53 0.285,-0.53C0.329,-0.53 0.365,-0.525 0.393,-0.515C0.421,-0.504 0.441,-0.491 0.454,-0.475C0.467,-0.46 0.476,-0.44 0.481,-0.416C0.484,-0.401 0.486,-0.374 0.486,-0.334L0.486,-0.217C0.486,-0.136 0.488,-0.084 0.491,-0.062C0.495,-0.041 0.503,-0.02 0.514,-0L0.422,-0C0.413,-0.018 0.407,-0.04 0.404,-0.064ZM0.397,-0.26C0.365,-0.247 0.317,-0.236 0.253,-0.227C0.217,-0.222 0.192,-0.216 0.177,-0.209C0.162,-0.203 0.15,-0.193 0.142,-0.181C0.134,-0.168 0.13,-0.154 0.13,-0.139C0.13,-0.116 0.139,-0.096 0.156,-0.081C0.174,-0.065 0.2,-0.057 0.234,-0.057C0.268,-0.057 0.298,-0.065 0.325,-0.079C0.351,-0.094 0.37,-0.114 0.383,-0.14C0.392,-0.16 0.397,-0.189 0.397,-0.228L0.397,-0.26Z" style="fill-rule:nonzero;"/>
            </g>
            <g transform="matrix(24,0,0,24,789.62,103.519)">
                <rect x="0.064" y="-0.716" width="0.088" height="0.716" style="fill-rule:nonzero;"/>
            </g>
            <g transform="matrix(24,0,0,24,794.952,103.519)">
                <path d="M0.404,-0.064C0.372,-0.036 0.34,-0.017 0.31,-0.005C0.28,0.006 0.248,0.012 0.213,0.012C0.156,0.012 0.113,-0.002 0.082,-0.03C0.051,-0.058 0.036,-0.093 0.036,-0.137C0.036,-0.162 0.042,-0.185 0.053,-0.206C0.065,-0.227 0.08,-0.244 0.099,-0.257C0.118,-0.27 0.139,-0.279 0.162,-0.286C0.179,-0.29 0.205,-0.295 0.24,-0.299C0.311,-0.307 0.363,-0.317 0.397,-0.329C0.397,-0.341 0.397,-0.349 0.397,-0.352C0.397,-0.388 0.389,-0.413 0.373,-0.428C0.35,-0.448 0.317,-0.458 0.272,-0.458C0.231,-0.458 0.201,-0.45 0.181,-0.436C0.161,-0.421 0.147,-0.396 0.137,-0.359L0.051,-0.371C0.059,-0.407 0.072,-0.437 0.09,-0.46C0.108,-0.482 0.134,-0.5 0.167,-0.512C0.201,-0.524 0.241,-0.53 0.285,-0.53C0.329,-0.53 0.365,-0.525 0.393,-0.515C0.421,-0.504 0.441,-0.491 0.454,-0.475C0.467,-0.46 0.476,-0.44 0.481,-0.416C0.484,-0.401 0.486,-0.374 0.486,-0.334L0.486,-0.217C0.486,-0.136 0.488,-0.084 0.491,-0.062C0.495,-0.041 0.503,-0.02 0.514,-0L0.422,-0C0.413,-0.018 0.407,-0.04 0.404,-0.064ZM0.397,-0.26C0.365,-0.247 0.317,-0.236 0.253,-0.227C0.217,-0.222 0.192,-0.216 0.177,-0.209C0.162,-0.203 0.15,-0.193 0.142,-0.181C0.134,-0.168 0.13,-0.154 0.13,-0.139C0.13,-0.116 0.139,-0.096 0.156,-0.081C0.174,-0.065 0.2,-0.057 0.234,-0.057C0.268,-0.057 0.298,-0.065 0.325,-0.079C0.351,-0.094 0.37,-0.114 0.383,-0.14C0.392,-0.16 0.397,-0.189 0.397,-0.228L0.397,-0.26Z" style="fill-rule:nonzero;"/>
            </g>
            <g transform="matrix(24,0,0,24,808.299,103.519)">
                <path d="M0.066,-0L0.066,-0.519L0.145,-0.519L0.145,-0.445C0.183,-0.502 0.238,-0.53 0.31,-0.53C0.341,-0.53 0.37,-0.525 0.396,-0.513C0.422,-0.502 0.442,-0.487 0.455,-0.469C0.468,-0.451 0.477,-0.429 0.482,-0.404C0.486,-0.388 0.487,-0.36 0.487,-0.319L0.487,-0L0.399,-0L0.399,-0.315C0.399,-0.351 0.396,-0.378 0.389,-0.396C0.382,-0.413 0.37,-0.428 0.353,-0.438C0.335,-0.449 0.315,-0.454 0.292,-0.454C0.254,-0.454 0.222,-0.442 0.195,-0.418C0.167,-0.395 0.154,-0.35 0.154,-0.283L0.154,-0L0.066,-0Z" style="fill-rule:nonzero;"/>
            </g>
            <g transform="matrix(24,0,0,24,821.647,103.519)">
                <path d="M0.404,-0.19L0.491,-0.179C0.481,-0.119 0.457,-0.073 0.418,-0.039C0.379,-0.005 0.332,0.012 0.275,0.012C0.204,0.012 0.147,-0.011 0.104,-0.058C0.061,-0.104 0.039,-0.171 0.039,-0.257C0.039,-0.313 0.048,-0.362 0.067,-0.404C0.085,-0.446 0.114,-0.478 0.152,-0.499C0.19,-0.52 0.231,-0.53 0.275,-0.53C0.332,-0.53 0.378,-0.516 0.414,-0.488C0.449,-0.459 0.472,-0.419 0.482,-0.366L0.397,-0.353C0.389,-0.388 0.374,-0.414 0.354,-0.432C0.333,-0.449 0.308,-0.458 0.279,-0.458C0.235,-0.458 0.199,-0.442 0.171,-0.41C0.143,-0.379 0.129,-0.328 0.129,-0.26C0.129,-0.19 0.143,-0.139 0.169,-0.108C0.196,-0.076 0.231,-0.061 0.274,-0.061C0.308,-0.061 0.337,-0.071 0.36,-0.092C0.383,-0.113 0.398,-0.146 0.404,-0.19Z" style="fill-rule:nonzero;"/>
            </g>
            <g transform="matrix(24,0,0,24,833.647,103.519)">
                <path d="M0.421,-0.167L0.512,-0.156C0.497,-0.103 0.471,-0.062 0.432,-0.032C0.393,-0.003 0.344,0.012 0.284,0.012C0.208,0.012 0.148,-0.012 0.103,-0.058C0.059,-0.105 0.037,-0.171 0.037,-0.255C0.037,-0.342 0.059,-0.41 0.104,-0.458C0.149,-0.506 0.207,-0.53 0.279,-0.53C0.348,-0.53 0.405,-0.507 0.449,-0.459C0.493,-0.412 0.515,-0.346 0.515,-0.26C0.515,-0.255 0.514,-0.247 0.514,-0.237L0.127,-0.237C0.131,-0.18 0.147,-0.136 0.176,-0.106C0.205,-0.076 0.241,-0.061 0.284,-0.061C0.316,-0.061 0.344,-0.069 0.367,-0.086C0.389,-0.103 0.408,-0.13 0.421,-0.167ZM0.132,-0.309L0.422,-0.309C0.418,-0.353 0.407,-0.385 0.389,-0.407C0.361,-0.441 0.324,-0.458 0.28,-0.458C0.239,-0.458 0.205,-0.444 0.178,-0.417C0.15,-0.39 0.135,-0.354 0.132,-0.309Z" style="fill-rule:nonzero;"/>
            </g>
        </g>
        <g transform="matrix(1,0,0,1,392.847,9.77752)">
            <g transform="matrix(24,0,0,24,599.903,101.977)">
                <path d="M-0.001,-0L0.273,-0.716L0.375,-0.716L0.668,-0L0.561,-0L0.477,-0.217L0.178,-0.217L0.099,-0L-0.001,-0ZM0.205,-0.294L0.448,-0.294L0.373,-0.492C0.35,-0.552 0.333,-0.602 0.322,-0.641C0.313,-0.595 0.3,-0.549 0.284,-0.504L0.205,-0.294Z" style="fill-rule:nonzero;"/>
            </g>
            <g transform="matrix(24,0,0,24,615.911,101.977)">
                <path d="M0.066,-0L0.066,-0.519L0.145,-0.519L0.145,-0.446C0.161,-0.471 0.182,-0.492 0.209,-0.507C0.236,-0.523 0.267,-0.53 0.302,-0.53C0.34,-0.53 0.372,-0.522 0.396,-0.506C0.421,-0.49 0.438,-0.468 0.448,-0.439C0.489,-0.5 0.543,-0.53 0.608,-0.53C0.66,-0.53 0.699,-0.516 0.727,-0.488C0.755,-0.459 0.769,-0.415 0.769,-0.356L0.769,-0L0.681,-0L0.681,-0.327C0.681,-0.362 0.678,-0.387 0.673,-0.403C0.667,-0.418 0.657,-0.431 0.642,-0.44C0.627,-0.449 0.609,-0.454 0.589,-0.454C0.552,-0.454 0.522,-0.442 0.498,-0.418C0.474,-0.393 0.462,-0.355 0.462,-0.301L0.462,-0L0.374,-0L0.374,-0.337C0.374,-0.376 0.367,-0.405 0.353,-0.425C0.338,-0.444 0.315,-0.454 0.282,-0.454C0.257,-0.454 0.235,-0.448 0.214,-0.435C0.193,-0.422 0.177,-0.403 0.168,-0.377C0.159,-0.352 0.154,-0.316 0.154,-0.269L0.154,-0L0.066,-0Z" style="fill-rule:nonzero;"/>
            </g>
            <g transform="matrix(24,0,0,24,635.903,101.977)">
                <path d="M0.033,-0.259C0.033,-0.355 0.06,-0.426 0.113,-0.473C0.158,-0.511 0.212,-0.53 0.276,-0.53C0.348,-0.53 0.406,-0.507 0.451,-0.46C0.496,-0.413 0.519,-0.349 0.519,-0.267C0.519,-0.2 0.509,-0.147 0.489,-0.109C0.469,-0.071 0.44,-0.041 0.402,-0.02C0.363,0.001 0.322,0.012 0.276,0.012C0.204,0.012 0.145,-0.012 0.1,-0.058C0.056,-0.105 0.033,-0.172 0.033,-0.259ZM0.124,-0.259C0.124,-0.193 0.138,-0.143 0.167,-0.11C0.196,-0.077 0.232,-0.061 0.276,-0.061C0.32,-0.061 0.356,-0.077 0.385,-0.11C0.414,-0.144 0.429,-0.194 0.429,-0.262C0.429,-0.326 0.414,-0.375 0.385,-0.408C0.356,-0.441 0.32,-0.458 0.276,-0.458C0.232,-0.458 0.196,-0.441 0.167,-0.408C0.138,-0.375 0.124,-0.326 0.124,-0.259Z" style="fill-rule:nonzero;"/>
            </g>
            <g transform="matrix(24,0,0,24,649.251,101.977)">
                <path d="M0.406,-0L0.406,-0.076C0.365,-0.018 0.311,0.012 0.241,0.012C0.211,0.012 0.182,0.006 0.156,-0.006C0.129,-0.018 0.109,-0.032 0.096,-0.05C0.084,-0.068 0.075,-0.09 0.069,-0.115C0.066,-0.132 0.064,-0.16 0.064,-0.197L0.064,-0.519L0.152,-0.519L0.152,-0.231C0.152,-0.185 0.154,-0.154 0.157,-0.138C0.163,-0.115 0.174,-0.097 0.192,-0.084C0.21,-0.071 0.232,-0.064 0.259,-0.064C0.285,-0.064 0.31,-0.071 0.333,-0.084C0.356,-0.098 0.372,-0.116 0.382,-0.139C0.392,-0.163 0.396,-0.196 0.396,-0.241L0.396,-0.519L0.484,-0.519L0.484,-0L0.406,-0Z" style="fill-rule:nonzero;"/>
            </g>
            <g transform="matrix(24,0,0,24,662.599,101.977)">
                <path d="M0.066,-0L0.066,-0.519L0.145,-0.519L0.145,-0.445C0.183,-0.502 0.238,-0.53 0.31,-0.53C0.341,-0.53 0.37,-0.525 0.396,-0.513C0.422,-0.502 0.442,-0.487 0.455,-0.469C0.468,-0.451 0.477,-0.429 0.482,-0.404C0.486,-0.388 0.487,-0.36 0.487,-0.319L0.487,-0L0.399,-0L0.399,-0.315C0.399,-0.351 0.396,-0.378 0.389,-0.396C0.382,-0.413 0.37,-0.428 0.353,-0.438C0.335,-0.449 0.315,-0.454 0.292,-0.454C0.254,-0.454 0.222,-0.442 0.195,-0.418C0.167,-0.395 0.154,-0.35 0.154,-0.283L0.154,-0L0.066,-0Z" style="fill-rule:nonzero;"/>
            </g>
            <g transform="matrix(24,0,0,24,675.946,101.977)">
                <path d="M0.258,-0.079L0.271,-0.001C0.246,0.004 0.224,0.007 0.204,0.007C0.172,0.007 0.147,0.002 0.13,-0.008C0.112,-0.018 0.1,-0.032 0.093,-0.048C0.086,-0.065 0.082,-0.099 0.082,-0.152L0.082,-0.45L0.018,-0.45L0.018,-0.519L0.082,-0.519L0.082,-0.647L0.169,-0.7L0.169,-0.519L0.258,-0.519L0.258,-0.45L0.169,-0.45L0.169,-0.147C0.169,-0.122 0.171,-0.106 0.174,-0.099C0.177,-0.091 0.182,-0.086 0.189,-0.082C0.196,-0.077 0.206,-0.075 0.219,-0.075C0.229,-0.075 0.242,-0.076 0.258,-0.079Z" style="fill-rule:nonzero;"/>
            </g>
        </g>
        <g transform="matrix(1,0,0,1,439.781,8.14184)">
            <g transform="matrix(24,0,0,24,459.588,103.519)">
                <path d="M0.25,-0.116L0.25,-0.312L0.056,-0.312L0.056,-0.394L0.25,-0.394L0.25,-0.589L0.333,-0.589L0.333,-0.394L0.528,-0.394L0.528,-0.312L0.333,-0.312L0.333,-0.116L0.25,-0.116Z" style="fill-rule:nonzero;"/>
            </g>
            <g transform="matrix(24,0,0,24,473.603,103.519)">
                <path d="M0,0.012L0.208,-0.728L0.278,-0.728L0.071,0.012L0,0.012Z" style="fill-rule:nonzero;"/>
            </g>
            <g transform="matrix(24,0,0,24,480.271,103.519)">
                <rect x="0.032" y="-0.303" width="0.27" height="0.088" style="fill-rule:nonzero;"/>
            </g>
        </g>
        <g transform="matrix(1,0,0,1,269.928,8.14184)">
            <g transform="matrix(24,0,0,24,268.388,103.519)">
                <rect x="0.093" y="-0.716" width="0.095" height="0.716" style="fill-rule:nonzero;"/>
            </g>
            <g transform="matrix(24,0,0,24,275.056,103.519)">
                <path d="M0.258,-0.079L0.271,-0.001C0.246,0.004 0.224,0.007 0.204,0.007C0.172,0.007 0.147,0.002 0.13,-0.008C0.112,-0.018 0.1,-0.032 0.093,-0.048C0.086,-0.065 0.082,-0.099 0.082,-0.152L0.082,-0.45L0.018,-0.45L0.018,-0.519L0.082,-0.519L0.082,-0.647L0.169,-0.7L0.169,-0.519L0.258,-0.519L0.258,-0.45L0.169,-0.45L0.169,-0.147C0.169,-0.122 0.171,-0.106 0.174,-0.099C0.177,-0.091 0.182,-0.086 0.189,-0.082C0.196,-0.077 0.206,-0.075 0.219,-0.075C0.229,-0.075 0.242,-0.076 0.258,-0.079Z" style="fill-rule:nonzero;"/>
            </g>
            <g transform="matrix(24,0,0,24,281.724,103.519)">
                <path d="M0.421,-0.167L0.512,-0.156C0.497,-0.103 0.471,-0.062 0.432,-0.032C0.393,-0.003 0.344,0.012 0.284,0.012C0.208,0.012 0.148,-0.012 0.103,-0.058C0.059,-0.105 0.037,-0.171 0.037,-0.255C0.037,-0.342 0.059,-0.41 0.104,-0.458C0.149,-0.506 0.207,-0.53 0.279,-0.53C0.348,-0.53 0.405,-0.507 0.449,-0.459C0.493,-0.412 0.515,-0.346 0.515,-0.26C0.515,-0.255 0.514,-0.247 0.514,-0.237L0.127,-0.237C0.131,-0.18 0.147,-0.136 0.176,-0.106C0.205,-0.076 0.241,-0.061 0.284,-0.061C0.316,-0.061 0.344,-0.069 0.367,-0.086C0.389,-0.103 0.408,-0.13 0.421,-0.167ZM0.132,-0.309L0.422,-0.309C0.418,-0.353 0.407,-0.385 0.389,-0.407C0.361,-0.441 0.324,-0.458 0.28,-0.458C0.239,-0.458 0.205,-0.444 0.178,-0.417C0.15,-0.39 0.135,-0.354 0.132,-0.309Z" style="fill-rule:nonzero;"/>
            </g>
            <g transform="matrix(24,0,0,24,295.072,103.519)">
                <path d="M0.066,-0L0.066,-0.519L0.145,-0.519L0.145,-0.446C0.161,-0.471 0.182,-0.492 0.209,-0.507C0.236,-0.523 0.267,-0.53 0.302,-0.53C0.34,-0.53 0.372,-0.522 0.396,-0.506C0.421,-0.49 0.438,-0.468 0.448,-0.439C0.489,-0.5 0.543,-0.53 0.608,-0.53C0.66,-0.53 0.699,-0.516 0.727,-0.488C0.755,-0.459 0.769,-0.415 0.769,-0.356L0.769,-0L0.681,-0L0.681,-0.327C0.681,-0.362 0.678,-0.387 0.673,-0.403C0.667,-0.418 0.657,-0.431 0.642,-0.44C0.627,-0.449 0.609,-0.454 0.589,-0.454C0.552,-0.454 0.522,-0.442 0.498,-0.418C0.474,-0.393 0.462,-0.355 0.462,-0.301L0.462,-0L0.374,-0L0.374,-0.337C0.374,-0.376 0.367,-0.405 0.353,-0.425C0.338,-0.444 0.315,-0.454 0.282,-0.454C0.257,-0.454 0.235,-0.448 0.214,-0.435C0.193,-0.422 0.177,-0.403 0.168,-0.377C0.159,-0.352 0.154,-0.316 0.154,-0.269L0.154,-0L0.066,-0Z" style="fill-rule:nonzero;"/>
            </g>
        </g>
        <g transform="matrix(1,0,0,1,4.02619,0.432187)">
            <g transform="matrix(24,0,0,24,132.698,111.228)">
                <path d="M0.077,-0L0.077,-0.716L0.324,-0.716C0.379,-0.716 0.422,-0.712 0.451,-0.706C0.492,-0.696 0.527,-0.679 0.556,-0.654C0.594,-0.622 0.622,-0.582 0.641,-0.532C0.66,-0.482 0.669,-0.426 0.669,-0.362C0.669,-0.307 0.663,-0.259 0.65,-0.217C0.637,-0.175 0.621,-0.141 0.601,-0.113C0.581,-0.086 0.559,-0.064 0.536,-0.048C0.512,-0.032 0.484,-0.02 0.45,-0.012C0.417,-0.004 0.379,-0 0.335,-0L0.077,-0ZM0.172,-0.084L0.325,-0.084C0.372,-0.084 0.409,-0.089 0.436,-0.098C0.463,-0.106 0.484,-0.119 0.5,-0.135C0.522,-0.157 0.54,-0.187 0.552,-0.225C0.565,-0.263 0.571,-0.309 0.571,-0.363C0.571,-0.438 0.559,-0.496 0.534,-0.536C0.51,-0.576 0.48,-0.603 0.445,-0.617C0.419,-0.626 0.379,-0.631 0.322,-0.631L0.172,-0.631L0.172,-0.084Z" style="fill-rule:nonzero;"/>
            </g>
            <g transform="matrix(24,0,0,24,150.03,111.228)">
                <path d="M0.404,-0.064C0.372,-0.036 0.34,-0.017 0.31,-0.005C0.28,0.006 0.248,0.012 0.213,0.012C0.156,0.012 0.113,-0.002 0.082,-0.03C0.051,-0.058 0.036,-0.093 0.036,-0.137C0.036,-0.162 0.042,-0.185 0.053,-0.206C0.065,-0.227 0.08,-0.244 0.099,-0.257C0.118,-0.27 0.139,-0.279 0.162,-0.286C0.179,-0.29 0.205,-0.295 0.24,-0.299C0.311,-0.307 0.363,-0.317 0.397,-0.329C0.397,-0.341 0.397,-0.349 0.397,-0.352C0.397,-0.388 0.389,-0.413 0.373,-0.428C0.35,-0.448 0.317,-0.458 0.272,-0.458C0.231,-0.458 0.201,-0.45 0.181,-0.436C0.161,-0.421 0.147,-0.396 0.137,-0.359L0.051,-0.371C0.059,-0.407 0.072,-0.437 0.09,-0.46C0.108,-0.482 0.134,-0.5 0.167,-0.512C0.201,-0.524 0.241,-0.53 0.285,-0.53C0.329,-0.53 0.365,-0.525 0.393,-0.515C0.421,-0.504 0.441,-0.491 0.454,-0.475C0.467,-0.46 0.476,-0.44 0.481,-0.416C0.484,-0.401 0.486,-0.374 0.486,-0.334L0.486,-0.217C0.486,-0.136 0.488,-0.084 0.491,-0.062C0.495,-0.041 0.503,-0.02 0.514,-0L0.422,-0C0.413,-0.018 0.407,-0.04 0.404,-0.064ZM0.397,-0.26C0.365,-0.247 0.317,-0.236 0.253,-0.227C0.217,-0.222 0.192,-0.216 0.177,-0.209C0.162,-0.203 0.15,-0.193 0.142,-0.181C0.134,-0.168 0.13,-0.154 0.13,-0.139C0.13,-0.116 0.139,-0.096 0.156,-0.081C0.174,-0.065 0.2,-0.057 0.234,-0.057C0.268,-0.057 0.298,-0.065 0.325,-0.079C0.351,-0.094 0.37,-0.114 0.383,-0.14C0.392,-0.16 0.397,-0.189 0.397,-0.228L0.397,-0.26Z" style="fill-rule:nonzero;"/>
            </g>
            <g transform="matrix(24,0,0,24,163.378,111.228)">
                <path d="M0.258,-0.079L0.271,-0.001C0.246,0.004 0.224,0.007 0.204,0.007C0.172,0.007 0.147,0.002 0.13,-0.008C0.112,-0.018 0.1,-0.032 0.093,-0.048C0.086,-0.065 0.082,-0.099 0.082,-0.152L0.082,-0.45L0.018,-0.45L0.018,-0.519L0.082,-0.519L0.082,-0.647L0.169,-0.7L0.169,-0.519L0.258,-0.519L0.258,-0.45L0.169,-0.45L0.169,-0.147C0.169,-0.122 0.171,-0.106 0.174,-0.099C0.177,-0.091 0.182,-0.086 0.189,-0.082C0.196,-0.077 0.206,-0.075 0.219,-0.075C0.229,-0.075 0.242,-0.076 0.258,-0.079Z" style="fill-rule:nonzero;"/>
            </g>
            <g transform="matrix(24,0,0,24,170.046,111.228)">
                <path d="M0.421,-0.167L0.512,-0.156C0.497,-0.103 0.471,-0.062 0.432,-0.032C0.393,-0.003 0.344,0.012 0.284,0.012C0.208,0.012 0.148,-0.012 0.103,-0.058C0.059,-0.105 0.037,-0.171 0.037,-0.255C0.037,-0.342 0.059,-0.41 0.104,-0.458C0.149,-0.506 0.207,-0.53 0.279,-0.53C0.348,-0.53 0.405,-0.507 0.449,-0.459C0.493,-0.412 0.515,-0.346 0.515,-0.26C0.515,-0.255 0.514,-0.247 0.514,-0.237L0.127,-0.237C0.131,-0.18 0.147,-0.136 0.176,-0.106C0.205,-0.076 0.241,-0.061 0.284,-0.061C0.316,-0.061 0.344,-0.069 0.367,-0.086C0.389,-0.103 0.408,-0.13 0.421,-0.167ZM0.132,-0.309L0.422,-0.309C0.418,-0.353 0.407,-0.385 0.389,-0.407C0.361,-0.441 0.324,-0.458 0.28,-0.458C0.239,-0.458 0.205,-0.444 0.178,-0.417C0.15,-0.39 0.135,-0.354 0.132,-0.309Z" style="fill-rule:nonzero;"/>
            </g>
        </g>
        <g transform="matrix(1,0,0,1,-6.48431,22.6114)">
            <g transform="matrix(24,0,0,24,62.3398,89.1429)">
                <path d="M0.05,0.012L0.093,-0.196L0.01,-0.196L0.01,-0.269L0.107,-0.269L0.144,-0.446L0.01,-0.446L0.01,-0.519L0.158,-0.519L0.201,-0.728L0.274,-0.728L0.231,-0.519L0.385,-0.519L0.428,-0.728L0.501,-0.728L0.459,-0.519L0.543,-0.519L0.543,-0.446L0.444,-0.446L0.408,-0.269L0.543,-0.269L0.543,-0.196L0.393,-0.196L0.351,0.012L0.277,0.012L0.319,-0.196L0.166,-0.196L0.124,0.012L0.05,0.012ZM0.181,-0.269L0.334,-0.269L0.371,-0.446L0.217,-0.446L0.181,-0.269Z" style="fill-rule:nonzero;"/>
            </g>
        </g>
    </g>
    <g id="Title-Line" serif:id="Title Line" transform="matrix(7.2125,0,0,1,-2038.75,-255)">
        <path d="M300,330L460,330" style="fill:none;stroke:black;stroke-width:0.39px;"/>
    </g>
</svg>
