<?xml version="1.0" encoding="UTF-8" standalone="no"?>
<!DOCTYPE svg PUBLIC "-//W3C//DTD SVG 1.1//EN" "http://www.w3.org/Graphics/SVG/1.1/DTD/svg11.dtd">
<svg width="100%" height="100%" viewBox="0 0 5850 7800" version="1.1" xmlns="http://www.w3.org/2000/svg" xmlns:xlink="http://www.w3.org/1999/xlink" xml:space="preserve" xmlns:serif="http://www.serif.com/" style="fill-rule:evenodd;clip-rule:evenodd;stroke-linecap:round;stroke-linejoin:round;stroke-miterlimit:1.5;">
    <g transform="matrix(4.16667,0,0,4.16667,0,0)">
        <rect x="0" y="0.004" width="1404" height="1872" style="fill:rgb(254,254,254);fill-rule:nonzero;"/>
        <g transform="matrix(1,0,0,1,0,1550)">
            <g transform="matrix(5.24375,0,0,1,-1033.12,-75)">
                <path d="M300,330L460,330" style="fill:none;stroke:black;stroke-width:0.53px;stroke-dasharray:0.53,1.59,0,0;"/>
            </g>
            <g transform="matrix(0.625,0,0,1,202.4,-75)">
                <path d="M300,330L460,330" style="fill:none;stroke:black;stroke-width:2.4px;stroke-dasharray:2.4,7.2,0,0;"/>
            </g>
            <g transform="matrix(0.625,0,0,1,86.7,-75)">
                <path d="M300,330L460,330" style="fill:none;stroke:black;stroke-width:2.4px;stroke-dasharray:2.4,7.2,0,0;"/>
            </g>
            <g transform="matrix(0.950693,0,0,0.885873,-16.0629,-52.8671)">
                <rect x="227.269" y="313.665" width="31.556" height="33.865" style="fill:none;stroke:black;stroke-width:2.18px;"/>
            </g>
            <g transform="matrix(0.950693,0,0,0.885873,-66.0629,-52.8671)">
                <rect x="227.269" y="313.665" width="31.556" height="33.865" style="fill:none;stroke:black;stroke-width:2.18px;"/>
            </g>
            <g transform="matrix(0.950693,0,0,0.885873,-116.063,-52.8671)">
                <rect x="227.269" y="313.665" width="31.556" height="33.865" style="fill:none;stroke:black;stroke-width:2.18px;"/>
            </g>
            <g transform="matrix(0.950693,0,0,0.885873,-166.063,-52.8671)">
                <rect x="227.269" y="313.665" width="31.556" height="33.865" style="fill:none;stroke:black;stroke-width:2.18px;"/>
            </g>
        </g>
        <g transform="matrix(1,0,0,1,0,1500)">
            <g transform="matrix(5.24375,0,0,1,-1033.12,-75)">
                <path d="M300,330L460,330" style="fill:none;stroke:black;stroke-width:0.53px;stroke-dasharray:0.53,1.59,0,0;"/>
            </g>
            <g transform="matrix(0.625,0,0,1,202.4,-75)">
                <path d="M300,330L460,330" style="fill:none;stroke:black;stroke-width:2.4px;stroke-dasharray:2.4,7.2,0,0;"/>
            </g>
            <g transform="matrix(0.625,0,0,1,86.7,-75)">
                <path d="M300,330L460,330" style="fill:none;stroke:black;stroke-width:2.4px;stroke-dasharray:2.4,7.2,0,0;"/>
            </g>
            <g transform="matrix(0.950693,0,0,0.885873,-16.0629,-52.8671)">
                <rect x="227.269" y="313.665" width="31.556" height="33.865" style="fill:none;stroke:black;stroke-width:2.18px;"/>
            </g>
            <g transform="matrix(0.950693,0,0,0.885873,-66.0629,-52.8671)">
                <rect x="227.269" y="313.665" width="31.556" height="33.865" style="fill:none;stroke:black;stroke-width:2.18px;"/>
            </g>
            <g transform="matrix(0.950693,0,0,0.885873,-116.063,-52.8671)">
                <rect x="227.269" y="313.665" width="31.556" height="33.865" style="fill:none;stroke:black;stroke-width:2.18px;"/>
            </g>
            <g transform="matrix(0.950693,0,0,0.885873,-166.063,-52.8671)">
                <rect x="227.269" y="313.665" width="31.556" height="33.865" style="fill:none;stroke:black;stroke-width:2.18px;"/>
            </g>
        </g>
        <g transform="matrix(1,0,0,1,0,1450)">
            <g transform="matrix(5.24375,0,0,1,-1033.12,-75)">
                <path d="M300,330L460,330" style="fill:none;stroke:black;stroke-width:0.53px;stroke-dasharray:0.53,1.59,0,0;"/>
            </g>
            <g transform="matrix(0.625,0,0,1,202.4,-75)">
                <path d="M300,330L460,330" style="fill:none;stroke:black;stroke-width:2.4px;stroke-dasharray:2.4,7.2,0,0;"/>
            </g>
            <g transform="matrix(0.625,0,0,1,86.7,-75)">
                <path d="M300,330L460,330" style="fill:none;stroke:black;stroke-width:2.4px;stroke-dasharray:2.4,7.2,0,0;"/>
            </g>
            <g transform="matrix(0.950693,0,0,0.885873,-16.0629,-52.8671)">
                <rect x="227.269" y="313.665" width="31.556" height="33.865" style="fill:none;stroke:black;stroke-width:2.18px;"/>
            </g>
            <g transform="matrix(0.950693,0,0,0.885873,-66.0629,-52.8671)">
                <rect x="227.269" y="313.665" width="31.556" height="33.865" style="fill:none;stroke:black;stroke-width:2.18px;"/>
            </g>
            <g transform="matrix(0.950693,0,0,0.885873,-116.063,-52.8671)">
                <rect x="227.269" y="313.665" width="31.556" height="33.865" style="fill:none;stroke:black;stroke-width:2.18px;"/>
            </g>
            <g transform="matrix(0.950693,0,0,0.885873,-166.063,-52.8671)">
                <rect x="227.269" y="313.665" width="31.556" height="33.865" style="fill:none;stroke:black;stroke-width:2.18px;"/>
            </g>
        </g>
        <g transform="matrix(1,0,0,1,0,1400)">
            <g transform="matrix(5.24375,0,0,1,-1033.12,-75)">
                <path d="M300,330L460,330" style="fill:none;stroke:black;stroke-width:0.53px;stroke-dasharray:0.53,1.59,0,0;"/>
            </g>
            <g transform="matrix(0.625,0,0,1,202.4,-75)">
                <path d="M300,330L460,330" style="fill:none;stroke:black;stroke-width:2.4px;stroke-dasharray:2.4,7.2,0,0;"/>
            </g>
            <g transform="matrix(0.625,0,0,1,86.7,-75)">
                <path d="M300,330L460,330" style="fill:none;stroke:black;stroke-width:2.4px;stroke-dasharray:2.4,7.2,0,0;"/>
            </g>
            <g transform="matrix(0.950693,0,0,0.885873,-16.0629,-52.8671)">
                <rect x="227.269" y="313.665" width="31.556" height="33.865" style="fill:none;stroke:black;stroke-width:2.18px;"/>
            </g>
            <g transform="matrix(0.950693,0,0,0.885873,-66.0629,-52.8671)">
                <rect x="227.269" y="313.665" width="31.556" height="33.865" style="fill:none;stroke:black;stroke-width:2.18px;"/>
            </g>
            <g transform="matrix(0.950693,0,0,0.885873,-116.063,-52.8671)">
                <rect x="227.269" y="313.665" width="31.556" height="33.865" style="fill:none;stroke:black;stroke-width:2.18px;"/>
            </g>
            <g transform="matrix(0.950693,0,0,0.885873,-166.063,-52.8671)">
                <rect x="227.269" y="313.665" width="31.556" height="33.865" style="fill:none;stroke:black;stroke-width:2.18px;"/>
            </g>
        </g>
        <g transform="matrix(1,0,0,1,0,1350)">
            <g transform="matrix(5.24375,0,0,1,-1033.12,-75)">
                <path d="M300,330L460,330" style="fill:none;stroke:black;stroke-width:0.53px;stroke-dasharray:0.53,1.59,0,0;"/>
            </g>
            <g transform="matrix(0.625,0,0,1,202.4,-75)">
                <path d="M300,330L460,330" style="fill:none;stroke:black;stroke-width:2.4px;stroke-dasharray:2.4,7.2,0,0;"/>
            </g>
            <g transform="matrix(0.625,0,0,1,86.7,-75)">
                <path d="M300,330L460,330" style="fill:none;stroke:black;stroke-width:2.4px;stroke-dasharray:2.4,7.2,0,0;"/>
            </g>
            <g transform="matrix(0.950693,0,0,0.885873,-16.0629,-52.8671)">
                <rect x="227.269" y="313.665" width="31.556" height="33.865" style="fill:none;stroke:black;stroke-width:2.18px;"/>
            </g>
            <g transform="matrix(0.950693,0,0,0.885873,-66.0629,-52.8671)">
                <rect x="227.269" y="313.665" width="31.556" height="33.865" style="fill:none;stroke:black;stroke-width:2.18px;"/>
            </g>
            <g transform="matrix(0.950693,0,0,0.885873,-116.063,-52.8671)">
                <rect x="227.269" y="313.665" width="31.556" height="33.865" style="fill:none;stroke:black;stroke-width:2.18px;"/>
            </g>
            <g transform="matrix(0.950693,0,0,0.885873,-166.063,-52.8671)">
                <rect x="227.269" y="313.665" width="31.556" height="33.865" style="fill:none;stroke:black;stroke-width:2.18px;"/>
            </g>
        </g>
        <g transform="matrix(1,0,0,1,0,1300)">
            <g transform="matrix(5.24375,0,0,1,-1033.12,-75)">
                <path d="M300,330L460,330" style="fill:none;stroke:black;stroke-width:0.53px;stroke-dasharray:0.53,1.59,0,0;"/>
            </g>
            <g transform="matrix(0.625,0,0,1,202.4,-75)">
                <path d="M300,330L460,330" style="fill:none;stroke:black;stroke-width:2.4px;stroke-dasharray:2.4,7.2,0,0;"/>
            </g>
            <g transform="matrix(0.625,0,0,1,86.7,-75)">
                <path d="M300,330L460,330" style="fill:none;stroke:black;stroke-width:2.4px;stroke-dasharray:2.4,7.2,0,0;"/>
            </g>
            <g transform="matrix(0.950693,0,0,0.885873,-16.0629,-52.8671)">
                <rect x="227.269" y="313.665" width="31.556" height="33.865" style="fill:none;stroke:black;stroke-width:2.18px;"/>
            </g>
            <g transform="matrix(0.950693,0,0,0.885873,-66.0629,-52.8671)">
                <rect x="227.269" y="313.665" width="31.556" height="33.865" style="fill:none;stroke:black;stroke-width:2.18px;"/>
            </g>
            <g transform="matrix(0.950693,0,0,0.885873,-116.063,-52.8671)">
                <rect x="227.269" y="313.665" width="31.556" height="33.865" style="fill:none;stroke:black;stroke-width:2.18px;"/>
            </g>
            <g transform="matrix(0.950693,0,0,0.885873,-166.063,-52.8671)">
                <rect x="227.269" y="313.665" width="31.556" height="33.865" style="fill:none;stroke:black;stroke-width:2.18px;"/>
            </g>
        </g>
        <g transform="matrix(1,0,0,1,0,1250)">
            <g transform="matrix(5.24375,0,0,1,-1033.12,-75)">
                <path d="M300,330L460,330" style="fill:none;stroke:black;stroke-width:0.53px;stroke-dasharray:0.53,1.59,0,0;"/>
            </g>
            <g transform="matrix(0.625,0,0,1,202.4,-75)">
                <path d="M300,330L460,330" style="fill:none;stroke:black;stroke-width:2.4px;stroke-dasharray:2.4,7.2,0,0;"/>
            </g>
            <g transform="matrix(0.625,0,0,1,86.7,-75)">
                <path d="M300,330L460,330" style="fill:none;stroke:black;stroke-width:2.4px;stroke-dasharray:2.4,7.2,0,0;"/>
            </g>
            <g transform="matrix(0.950693,0,0,0.885873,-16.0629,-52.8671)">
                <rect x="227.269" y="313.665" width="31.556" height="33.865" style="fill:none;stroke:black;stroke-width:2.18px;"/>
            </g>
            <g transform="matrix(0.950693,0,0,0.885873,-66.0629,-52.8671)">
                <rect x="227.269" y="313.665" width="31.556" height="33.865" style="fill:none;stroke:black;stroke-width:2.18px;"/>
            </g>
            <g transform="matrix(0.950693,0,0,0.885873,-116.063,-52.8671)">
                <rect x="227.269" y="313.665" width="31.556" height="33.865" style="fill:none;stroke:black;stroke-width:2.18px;"/>
            </g>
            <g transform="matrix(0.950693,0,0,0.885873,-166.063,-52.8671)">
                <rect x="227.269" y="313.665" width="31.556" height="33.865" style="fill:none;stroke:black;stroke-width:2.18px;"/>
            </g>
        </g>
        <g transform="matrix(1,0,0,1,0,1200)">
            <g transform="matrix(5.24375,0,0,1,-1033.12,-75)">
                <path d="M300,330L460,330" style="fill:none;stroke:black;stroke-width:0.53px;stroke-dasharray:0.53,1.59,0,0;"/>
            </g>
            <g transform="matrix(0.625,0,0,1,202.4,-75)">
                <path d="M300,330L460,330" style="fill:none;stroke:black;stroke-width:2.4px;stroke-dasharray:2.4,7.2,0,0;"/>
            </g>
            <g transform="matrix(0.625,0,0,1,86.7,-75)">
                <path d="M300,330L460,330" style="fill:none;stroke:black;stroke-width:2.4px;stroke-dasharray:2.4,7.2,0,0;"/>
            </g>
            <g transform="matrix(0.950693,0,0,0.885873,-16.0629,-52.8671)">
                <rect x="227.269" y="313.665" width="31.556" height="33.865" style="fill:none;stroke:black;stroke-width:2.18px;"/>
            </g>
            <g transform="matrix(0.950693,0,0,0.885873,-66.0629,-52.8671)">
                <rect x="227.269" y="313.665" width="31.556" height="33.865" style="fill:none;stroke:black;stroke-width:2.18px;"/>
            </g>
            <g transform="matrix(0.950693,0,0,0.885873,-116.063,-52.8671)">
                <rect x="227.269" y="313.665" width="31.556" height="33.865" style="fill:none;stroke:black;stroke-width:2.18px;"/>
            </g>
            <g transform="matrix(0.950693,0,0,0.885873,-166.063,-52.8671)">
                <rect x="227.269" y="313.665" width="31.556" height="33.865" style="fill:none;stroke:black;stroke-width:2.18px;"/>
            </g>
        </g>
        <g transform="matrix(1,0,0,1,0,1150)">
            <g transform="matrix(5.24375,0,0,1,-1033.12,-75)">
                <path d="M300,330L460,330" style="fill:none;stroke:black;stroke-width:0.53px;stroke-dasharray:0.53,1.59,0,0;"/>
            </g>
            <g transform="matrix(0.625,0,0,1,202.4,-75)">
                <path d="M300,330L460,330" style="fill:none;stroke:black;stroke-width:2.4px;stroke-dasharray:2.4,7.2,0,0;"/>
            </g>
            <g transform="matrix(0.625,0,0,1,86.7,-75)">
                <path d="M300,330L460,330" style="fill:none;stroke:black;stroke-width:2.4px;stroke-dasharray:2.4,7.2,0,0;"/>
            </g>
            <g transform="matrix(0.950693,0,0,0.885873,-16.0629,-52.8671)">
                <rect x="227.269" y="313.665" width="31.556" height="33.865" style="fill:none;stroke:black;stroke-width:2.18px;"/>
            </g>
            <g transform="matrix(0.950693,0,0,0.885873,-66.0629,-52.8671)">
                <rect x="227.269" y="313.665" width="31.556" height="33.865" style="fill:none;stroke:black;stroke-width:2.18px;"/>
            </g>
            <g transform="matrix(0.950693,0,0,0.885873,-116.063,-52.8671)">
                <rect x="227.269" y="313.665" width="31.556" height="33.865" style="fill:none;stroke:black;stroke-width:2.18px;"/>
            </g>
            <g transform="matrix(0.950693,0,0,0.885873,-166.063,-52.8671)">
                <rect x="227.269" y="313.665" width="31.556" height="33.865" style="fill:none;stroke:black;stroke-width:2.18px;"/>
            </g>
        </g>
        <g transform="matrix(1,0,0,1,0,1100)">
            <g transform="matrix(5.24375,0,0,1,-1033.12,-75)">
                <path d="M300,330L460,330" style="fill:none;stroke:black;stroke-width:0.53px;stroke-dasharray:0.53,1.59,0,0;"/>
            </g>
            <g transform="matrix(0.625,0,0,1,202.4,-75)">
                <path d="M300,330L460,330" style="fill:none;stroke:black;stroke-width:2.4px;stroke-dasharray:2.4,7.2,0,0;"/>
            </g>
            <g transform="matrix(0.625,0,0,1,86.7,-75)">
                <path d="M300,330L460,330" style="fill:none;stroke:black;stroke-width:2.4px;stroke-dasharray:2.4,7.2,0,0;"/>
            </g>
            <g transform="matrix(0.950693,0,0,0.885873,-16.0629,-52.8671)">
                <rect x="227.269" y="313.665" width="31.556" height="33.865" style="fill:none;stroke:black;stroke-width:2.18px;"/>
            </g>
            <g transform="matrix(0.950693,0,0,0.885873,-66.0629,-52.8671)">
                <rect x="227.269" y="313.665" width="31.556" height="33.865" style="fill:none;stroke:black;stroke-width:2.18px;"/>
            </g>
            <g transform="matrix(0.950693,0,0,0.885873,-116.063,-52.8671)">
                <rect x="227.269" y="313.665" width="31.556" height="33.865" style="fill:none;stroke:black;stroke-width:2.18px;"/>
            </g>
            <g transform="matrix(0.950693,0,0,0.885873,-166.063,-52.8671)">
                <rect x="227.269" y="313.665" width="31.556" height="33.865" style="fill:none;stroke:black;stroke-width:2.18px;"/>
            </g>
        </g>
        <g transform="matrix(1,0,0,1,0,1050)">
            <g transform="matrix(5.24375,0,0,1,-1033.12,-75)">
                <path d="M300,330L460,330" style="fill:none;stroke:black;stroke-width:0.53px;stroke-dasharray:0.53,1.59,0,0;"/>
            </g>
            <g transform="matrix(0.625,0,0,1,202.4,-75)">
                <path d="M300,330L460,330" style="fill:none;stroke:black;stroke-width:2.4px;stroke-dasharray:2.4,7.2,0,0;"/>
            </g>
            <g transform="matrix(0.625,0,0,1,86.7,-75)">
                <path d="M300,330L460,330" style="fill:none;stroke:black;stroke-width:2.4px;stroke-dasharray:2.4,7.2,0,0;"/>
            </g>
            <g transform="matrix(0.950693,0,0,0.885873,-16.0629,-52.8671)">
                <rect x="227.269" y="313.665" width="31.556" height="33.865" style="fill:none;stroke:black;stroke-width:2.18px;"/>
            </g>
            <g transform="matrix(0.950693,0,0,0.885873,-66.0629,-52.8671)">
                <rect x="227.269" y="313.665" width="31.556" height="33.865" style="fill:none;stroke:black;stroke-width:2.18px;"/>
            </g>
            <g transform="matrix(0.950693,0,0,0.885873,-116.063,-52.8671)">
                <rect x="227.269" y="313.665" width="31.556" height="33.865" style="fill:none;stroke:black;stroke-width:2.18px;"/>
            </g>
            <g transform="matrix(0.950693,0,0,0.885873,-166.063,-52.8671)">
                <rect x="227.269" y="313.665" width="31.556" height="33.865" style="fill:none;stroke:black;stroke-width:2.18px;"/>
            </g>
        </g>
        <g transform="matrix(1,0,0,1,0,1000)">
            <g transform="matrix(5.24375,0,0,1,-1033.12,-75)">
                <path d="M300,330L460,330" style="fill:none;stroke:black;stroke-width:0.53px;stroke-dasharray:0.53,1.59,0,0;"/>
            </g>
            <g transform="matrix(0.625,0,0,1,202.4,-75)">
                <path d="M300,330L460,330" style="fill:none;stroke:black;stroke-width:2.4px;stroke-dasharray:2.4,7.2,0,0;"/>
            </g>
            <g transform="matrix(0.625,0,0,1,86.7,-75)">
                <path d="M300,330L460,330" style="fill:none;stroke:black;stroke-width:2.4px;stroke-dasharray:2.4,7.2,0,0;"/>
            </g>
            <g transform="matrix(0.950693,0,0,0.885873,-16.0629,-52.8671)">
                <rect x="227.269" y="313.665" width="31.556" height="33.865" style="fill:none;stroke:black;stroke-width:2.18px;"/>
            </g>
            <g transform="matrix(0.950693,0,0,0.885873,-66.0629,-52.8671)">
                <rect x="227.269" y="313.665" width="31.556" height="33.865" style="fill:none;stroke:black;stroke-width:2.18px;"/>
            </g>
            <g transform="matrix(0.950693,0,0,0.885873,-116.063,-52.8671)">
                <rect x="227.269" y="313.665" width="31.556" height="33.865" style="fill:none;stroke:black;stroke-width:2.18px;"/>
            </g>
            <g transform="matrix(0.950693,0,0,0.885873,-166.063,-52.8671)">
                <rect x="227.269" y="313.665" width="31.556" height="33.865" style="fill:none;stroke:black;stroke-width:2.18px;"/>
            </g>
        </g>
        <g transform="matrix(1,0,0,1,0,950)">
            <g transform="matrix(5.24375,0,0,1,-1033.12,-75)">
                <path d="M300,330L460,330" style="fill:none;stroke:black;stroke-width:0.53px;stroke-dasharray:0.53,1.59,0,0;"/>
            </g>
            <g transform="matrix(0.625,0,0,1,202.4,-75)">
                <path d="M300,330L460,330" style="fill:none;stroke:black;stroke-width:2.4px;stroke-dasharray:2.4,7.2,0,0;"/>
            </g>
            <g transform="matrix(0.625,0,0,1,86.7,-75)">
                <path d="M300,330L460,330" style="fill:none;stroke:black;stroke-width:2.4px;stroke-dasharray:2.4,7.2,0,0;"/>
            </g>
            <g transform="matrix(0.950693,0,0,0.885873,-16.0629,-52.8671)">
                <rect x="227.269" y="313.665" width="31.556" height="33.865" style="fill:none;stroke:black;stroke-width:2.18px;"/>
            </g>
            <g transform="matrix(0.950693,0,0,0.885873,-66.0629,-52.8671)">
                <rect x="227.269" y="313.665" width="31.556" height="33.865" style="fill:none;stroke:black;stroke-width:2.18px;"/>
            </g>
            <g transform="matrix(0.950693,0,0,0.885873,-116.063,-52.8671)">
                <rect x="227.269" y="313.665" width="31.556" height="33.865" style="fill:none;stroke:black;stroke-width:2.18px;"/>
            </g>
            <g transform="matrix(0.950693,0,0,0.885873,-166.063,-52.8671)">
                <rect x="227.269" y="313.665" width="31.556" height="33.865" style="fill:none;stroke:black;stroke-width:2.18px;"/>
            </g>
        </g>
        <g transform="matrix(1,0,0,1,0,900)">
            <g transform="matrix(5.24375,0,0,1,-1033.12,-75)">
                <path d="M300,330L460,330" style="fill:none;stroke:black;stroke-width:0.53px;stroke-dasharray:0.53,1.59,0,0;"/>
            </g>
            <g transform="matrix(0.625,0,0,1,202.4,-75)">
                <path d="M300,330L460,330" style="fill:none;stroke:black;stroke-width:2.4px;stroke-dasharray:2.4,7.2,0,0;"/>
            </g>
            <g transform="matrix(0.625,0,0,1,86.7,-75)">
                <path d="M300,330L460,330" style="fill:none;stroke:black;stroke-width:2.4px;stroke-dasharray:2.4,7.2,0,0;"/>
            </g>
            <g transform="matrix(0.950693,0,0,0.885873,-16.0629,-52.8671)">
                <rect x="227.269" y="313.665" width="31.556" height="33.865" style="fill:none;stroke:black;stroke-width:2.18px;"/>
            </g>
            <g transform="matrix(0.950693,0,0,0.885873,-66.0629,-52.8671)">
                <rect x="227.269" y="313.665" width="31.556" height="33.865" style="fill:none;stroke:black;stroke-width:2.18px;"/>
            </g>
            <g transform="matrix(0.950693,0,0,0.885873,-116.063,-52.8671)">
                <rect x="227.269" y="313.665" width="31.556" height="33.865" style="fill:none;stroke:black;stroke-width:2.18px;"/>
            </g>
            <g transform="matrix(0.950693,0,0,0.885873,-166.063,-52.8671)">
                <rect x="227.269" y="313.665" width="31.556" height="33.865" style="fill:none;stroke:black;stroke-width:2.18px;"/>
            </g>
        </g>
        <g transform="matrix(1,0,0,1,0,850)">
            <g transform="matrix(5.24375,0,0,1,-1033.12,-75)">
                <path d="M300,330L460,330" style="fill:none;stroke:black;stroke-width:0.53px;stroke-dasharray:0.53,1.59,0,0;"/>
            </g>
            <g transform="matrix(0.625,0,0,1,202.4,-75)">
                <path d="M300,330L460,330" style="fill:none;stroke:black;stroke-width:2.4px;stroke-dasharray:2.4,7.2,0,0;"/>
            </g>
            <g transform="matrix(0.625,0,0,1,86.7,-75)">
                <path d="M300,330L460,330" style="fill:none;stroke:black;stroke-width:2.4px;stroke-dasharray:2.4,7.2,0,0;"/>
            </g>
            <g transform="matrix(0.950693,0,0,0.885873,-16.0629,-52.8671)">
                <rect x="227.269" y="313.665" width="31.556" height="33.865" style="fill:none;stroke:black;stroke-width:2.18px;"/>
            </g>
            <g transform="matrix(0.950693,0,0,0.885873,-66.0629,-52.8671)">
                <rect x="227.269" y="313.665" width="31.556" height="33.865" style="fill:none;stroke:black;stroke-width:2.18px;"/>
            </g>
            <g transform="matrix(0.950693,0,0,0.885873,-116.063,-52.8671)">
                <rect x="227.269" y="313.665" width="31.556" height="33.865" style="fill:none;stroke:black;stroke-width:2.18px;"/>
            </g>
            <g transform="matrix(0.950693,0,0,0.885873,-166.063,-52.8671)">
                <rect x="227.269" y="313.665" width="31.556" height="33.865" style="fill:none;stroke:black;stroke-width:2.18px;"/>
            </g>
        </g>
        <g transform="matrix(1,0,0,1,0,800)">
            <g transform="matrix(5.24375,0,0,1,-1033.12,-75)">
                <path d="M300,330L460,330" style="fill:none;stroke:black;stroke-width:0.53px;stroke-dasharray:0.53,1.59,0,0;"/>
            </g>
            <g transform="matrix(0.625,0,0,1,202.4,-75)">
                <path d="M300,330L460,330" style="fill:none;stroke:black;stroke-width:2.4px;stroke-dasharray:2.4,7.2,0,0;"/>
            </g>
            <g transform="matrix(0.625,0,0,1,86.7,-75)">
                <path d="M300,330L460,330" style="fill:none;stroke:black;stroke-width:2.4px;stroke-dasharray:2.4,7.2,0,0;"/>
            </g>
            <g transform="matrix(0.950693,0,0,0.885873,-16.0629,-52.8671)">
                <rect x="227.269" y="313.665" width="31.556" height="33.865" style="fill:none;stroke:black;stroke-width:2.18px;"/>
            </g>
            <g transform="matrix(0.950693,0,0,0.885873,-66.0629,-52.8671)">
                <rect x="227.269" y="313.665" width="31.556" height="33.865" style="fill:none;stroke:black;stroke-width:2.18px;"/>
            </g>
            <g transform="matrix(0.950693,0,0,0.885873,-116.063,-52.8671)">
                <rect x="227.269" y="313.665" width="31.556" height="33.865" style="fill:none;stroke:black;stroke-width:2.18px;"/>
            </g>
            <g transform="matrix(0.950693,0,0,0.885873,-166.063,-52.8671)">
                <rect x="227.269" y="313.665" width="31.556" height="33.865" style="fill:none;stroke:black;stroke-width:2.18px;"/>
            </g>
        </g>
        <g transform="matrix(1,0,0,1,0,750)">
            <g transform="matrix(5.24375,0,0,1,-1033.12,-75)">
                <path d="M300,330L460,330" style="fill:none;stroke:black;stroke-width:0.53px;stroke-dasharray:0.53,1.59,0,0;"/>
            </g>
            <g transform="matrix(0.625,0,0,1,202.4,-75)">
                <path d="M300,330L460,330" style="fill:none;stroke:black;stroke-width:2.4px;stroke-dasharray:2.4,7.2,0,0;"/>
            </g>
            <g transform="matrix(0.625,0,0,1,86.7,-75)">
                <path d="M300,330L460,330" style="fill:none;stroke:black;stroke-width:2.4px;stroke-dasharray:2.4,7.2,0,0;"/>
            </g>
            <g transform="matrix(0.950693,0,0,0.885873,-16.0629,-52.8671)">
                <rect x="227.269" y="313.665" width="31.556" height="33.865" style="fill:none;stroke:black;stroke-width:2.18px;"/>
            </g>
            <g transform="matrix(0.950693,0,0,0.885873,-66.0629,-52.8671)">
                <rect x="227.269" y="313.665" width="31.556" height="33.865" style="fill:none;stroke:black;stroke-width:2.18px;"/>
            </g>
            <g transform="matrix(0.950693,0,0,0.885873,-116.063,-52.8671)">
                <rect x="227.269" y="313.665" width="31.556" height="33.865" style="fill:none;stroke:black;stroke-width:2.18px;"/>
            </g>
            <g transform="matrix(0.950693,0,0,0.885873,-166.063,-52.8671)">
                <rect x="227.269" y="313.665" width="31.556" height="33.865" style="fill:none;stroke:black;stroke-width:2.18px;"/>
            </g>
        </g>
        <g transform="matrix(1,0,0,1,0,700)">
            <g transform="matrix(5.24375,0,0,1,-1033.12,-75)">
                <path d="M300,330L460,330" style="fill:none;stroke:black;stroke-width:0.53px;stroke-dasharray:0.53,1.59,0,0;"/>
            </g>
            <g transform="matrix(0.625,0,0,1,202.4,-75)">
                <path d="M300,330L460,330" style="fill:none;stroke:black;stroke-width:2.4px;stroke-dasharray:2.4,7.2,0,0;"/>
            </g>
            <g transform="matrix(0.625,0,0,1,86.7,-75)">
                <path d="M300,330L460,330" style="fill:none;stroke:black;stroke-width:2.4px;stroke-dasharray:2.4,7.2,0,0;"/>
            </g>
            <g transform="matrix(0.950693,0,0,0.885873,-16.0629,-52.8671)">
                <rect x="227.269" y="313.665" width="31.556" height="33.865" style="fill:none;stroke:black;stroke-width:2.18px;"/>
            </g>
            <g transform="matrix(0.950693,0,0,0.885873,-66.0629,-52.8671)">
                <rect x="227.269" y="313.665" width="31.556" height="33.865" style="fill:none;stroke:black;stroke-width:2.18px;"/>
            </g>
            <g transform="matrix(0.950693,0,0,0.885873,-116.063,-52.8671)">
                <rect x="227.269" y="313.665" width="31.556" height="33.865" style="fill:none;stroke:black;stroke-width:2.18px;"/>
            </g>
            <g transform="matrix(0.950693,0,0,0.885873,-166.063,-52.8671)">
                <rect x="227.269" y="313.665" width="31.556" height="33.865" style="fill:none;stroke:black;stroke-width:2.18px;"/>
            </g>
        </g>
        <g transform="matrix(1,0,0,1,0,650)">
            <g transform="matrix(5.24375,0,0,1,-1033.12,-75)">
                <path d="M300,330L460,330" style="fill:none;stroke:black;stroke-width:0.53px;stroke-dasharray:0.53,1.59,0,0;"/>
            </g>
            <g transform="matrix(0.625,0,0,1,202.4,-75)">
                <path d="M300,330L460,330" style="fill:none;stroke:black;stroke-width:2.4px;stroke-dasharray:2.4,7.2,0,0;"/>
            </g>
            <g transform="matrix(0.625,0,0,1,86.7,-75)">
                <path d="M300,330L460,330" style="fill:none;stroke:black;stroke-width:2.4px;stroke-dasharray:2.4,7.2,0,0;"/>
            </g>
            <g transform="matrix(0.950693,0,0,0.885873,-16.0629,-52.8671)">
                <rect x="227.269" y="313.665" width="31.556" height="33.865" style="fill:none;stroke:black;stroke-width:2.18px;"/>
            </g>
            <g transform="matrix(0.950693,0,0,0.885873,-66.0629,-52.8671)">
                <rect x="227.269" y="313.665" width="31.556" height="33.865" style="fill:none;stroke:black;stroke-width:2.18px;"/>
            </g>
            <g transform="matrix(0.950693,0,0,0.885873,-116.063,-52.8671)">
                <rect x="227.269" y="313.665" width="31.556" height="33.865" style="fill:none;stroke:black;stroke-width:2.18px;"/>
            </g>
            <g transform="matrix(0.950693,0,0,0.885873,-166.063,-52.8671)">
                <rect x="227.269" y="313.665" width="31.556" height="33.865" style="fill:none;stroke:black;stroke-width:2.18px;"/>
            </g>
        </g>
        <g transform="matrix(1,0,0,1,0,600)">
            <g transform="matrix(5.24375,0,0,1,-1033.12,-75)">
                <path d="M300,330L460,330" style="fill:none;stroke:black;stroke-width:0.53px;stroke-dasharray:0.53,1.59,0,0;"/>
            </g>
            <g transform="matrix(0.625,0,0,1,202.4,-75)">
                <path d="M300,330L460,330" style="fill:none;stroke:black;stroke-width:2.4px;stroke-dasharray:2.4,7.2,0,0;"/>
            </g>
            <g transform="matrix(0.625,0,0,1,86.7,-75)">
                <path d="M300,330L460,330" style="fill:none;stroke:black;stroke-width:2.4px;stroke-dasharray:2.4,7.2,0,0;"/>
            </g>
            <g transform="matrix(0.950693,0,0,0.885873,-16.0629,-52.8671)">
                <rect x="227.269" y="313.665" width="31.556" height="33.865" style="fill:none;stroke:black;stroke-width:2.18px;"/>
            </g>
            <g transform="matrix(0.950693,0,0,0.885873,-66.0629,-52.8671)">
                <rect x="227.269" y="313.665" width="31.556" height="33.865" style="fill:none;stroke:black;stroke-width:2.18px;"/>
            </g>
            <g transform="matrix(0.950693,0,0,0.885873,-116.063,-52.8671)">
                <rect x="227.269" y="313.665" width="31.556" height="33.865" style="fill:none;stroke:black;stroke-width:2.18px;"/>
            </g>
            <g transform="matrix(0.950693,0,0,0.885873,-166.063,-52.8671)">
                <rect x="227.269" y="313.665" width="31.556" height="33.865" style="fill:none;stroke:black;stroke-width:2.18px;"/>
            </g>
        </g>
        <g transform="matrix(1,0,0,1,0,550)">
            <g transform="matrix(5.24375,0,0,1,-1033.12,-75)">
                <path d="M300,330L460,330" style="fill:none;stroke:black;stroke-width:0.53px;stroke-dasharray:0.53,1.59,0,0;"/>
            </g>
            <g transform="matrix(0.625,0,0,1,202.4,-75)">
                <path d="M300,330L460,330" style="fill:none;stroke:black;stroke-width:2.4px;stroke-dasharray:2.4,7.2,0,0;"/>
            </g>
            <g transform="matrix(0.625,0,0,1,86.7,-75)">
                <path d="M300,330L460,330" style="fill:none;stroke:black;stroke-width:2.4px;stroke-dasharray:2.4,7.2,0,0;"/>
            </g>
            <g transform="matrix(0.950693,0,0,0.885873,-16.0629,-52.8671)">
                <rect x="227.269" y="313.665" width="31.556" height="33.865" style="fill:none;stroke:black;stroke-width:2.18px;"/>
            </g>
            <g transform="matrix(0.950693,0,0,0.885873,-66.0629,-52.8671)">
                <rect x="227.269" y="313.665" width="31.556" height="33.865" style="fill:none;stroke:black;stroke-width:2.18px;"/>
            </g>
            <g transform="matrix(0.950693,0,0,0.885873,-116.063,-52.8671)">
                <rect x="227.269" y="313.665" width="31.556" height="33.865" style="fill:none;stroke:black;stroke-width:2.18px;"/>
            </g>
            <g transform="matrix(0.950693,0,0,0.885873,-166.063,-52.8671)">
                <rect x="227.269" y="313.665" width="31.556" height="33.865" style="fill:none;stroke:black;stroke-width:2.18px;"/>
            </g>
        </g>
        <g transform="matrix(1,0,0,1,0,500)">
            <g transform="matrix(5.24375,0,0,1,-1033.12,-75)">
                <path d="M300,330L460,330" style="fill:none;stroke:black;stroke-width:0.53px;stroke-dasharray:0.53,1.59,0,0;"/>
            </g>
            <g transform="matrix(0.625,0,0,1,202.4,-75)">
                <path d="M300,330L460,330" style="fill:none;stroke:black;stroke-width:2.4px;stroke-dasharray:2.4,7.2,0,0;"/>
            </g>
            <g transform="matrix(0.625,0,0,1,86.7,-75)">
                <path d="M300,330L460,330" style="fill:none;stroke:black;stroke-width:2.4px;stroke-dasharray:2.4,7.2,0,0;"/>
            </g>
            <g transform="matrix(0.950693,0,0,0.885873,-16.0629,-52.8671)">
                <rect x="227.269" y="313.665" width="31.556" height="33.865" style="fill:none;stroke:black;stroke-width:2.18px;"/>
            </g>
            <g transform="matrix(0.950693,0,0,0.885873,-66.0629,-52.8671)">
                <rect x="227.269" y="313.665" width="31.556" height="33.865" style="fill:none;stroke:black;stroke-width:2.18px;"/>
            </g>
            <g transform="matrix(0.950693,0,0,0.885873,-116.063,-52.8671)">
                <rect x="227.269" y="313.665" width="31.556" height="33.865" style="fill:none;stroke:black;stroke-width:2.18px;"/>
            </g>
            <g transform="matrix(0.950693,0,0,0.885873,-166.063,-52.8671)">
                <rect x="227.269" y="313.665" width="31.556" height="33.865" style="fill:none;stroke:black;stroke-width:2.18px;"/>
            </g>
        </g>
        <g transform="matrix(1,0,0,1,0,450)">
            <g transform="matrix(5.24375,0,0,1,-1033.12,-75)">
                <path d="M300,330L460,330" style="fill:none;stroke:black;stroke-width:0.53px;stroke-dasharray:0.53,1.59,0,0;"/>
            </g>
            <g transform="matrix(0.625,0,0,1,202.4,-75)">
                <path d="M300,330L460,330" style="fill:none;stroke:black;stroke-width:2.4px;stroke-dasharray:2.4,7.2,0,0;"/>
            </g>
            <g transform="matrix(0.625,0,0,1,86.7,-75)">
                <path d="M300,330L460,330" style="fill:none;stroke:black;stroke-width:2.4px;stroke-dasharray:2.4,7.2,0,0;"/>
            </g>
            <g transform="matrix(0.950693,0,0,0.885873,-16.0629,-52.8671)">
                <rect x="227.269" y="313.665" width="31.556" height="33.865" style="fill:none;stroke:black;stroke-width:2.18px;"/>
            </g>
            <g transform="matrix(0.950693,0,0,0.885873,-66.0629,-52.8671)">
                <rect x="227.269" y="313.665" width="31.556" height="33.865" style="fill:none;stroke:black;stroke-width:2.18px;"/>
            </g>
            <g transform="matrix(0.950693,0,0,0.885873,-116.063,-52.8671)">
                <rect x="227.269" y="313.665" width="31.556" height="33.865" style="fill:none;stroke:black;stroke-width:2.18px;"/>
            </g>
            <g transform="matrix(0.950693,0,0,0.885873,-166.063,-52.8671)">
                <rect x="227.269" y="313.665" width="31.556" height="33.865" style="fill:none;stroke:black;stroke-width:2.18px;"/>
            </g>
        </g>
        <g transform="matrix(1,0,0,1,0,400)">
            <g transform="matrix(5.24375,0,0,1,-1033.12,-75)">
                <path d="M300,330L460,330" style="fill:none;stroke:black;stroke-width:0.53px;stroke-dasharray:0.53,1.59,0,0;"/>
            </g>
            <g transform="matrix(0.625,0,0,1,202.4,-75)">
                <path d="M300,330L460,330" style="fill:none;stroke:black;stroke-width:2.4px;stroke-dasharray:2.4,7.2,0,0;"/>
            </g>
            <g transform="matrix(0.625,0,0,1,86.7,-75)">
                <path d="M300,330L460,330" style="fill:none;stroke:black;stroke-width:2.4px;stroke-dasharray:2.4,7.2,0,0;"/>
            </g>
            <g transform="matrix(0.950693,0,0,0.885873,-16.0629,-52.8671)">
                <rect x="227.269" y="313.665" width="31.556" height="33.865" style="fill:none;stroke:black;stroke-width:2.18px;"/>
            </g>
            <g transform="matrix(0.950693,0,0,0.885873,-66.0629,-52.8671)">
                <rect x="227.269" y="313.665" width="31.556" height="33.865" style="fill:none;stroke:black;stroke-width:2.18px;"/>
            </g>
            <g transform="matrix(0.950693,0,0,0.885873,-116.063,-52.8671)">
                <rect x="227.269" y="313.665" width="31.556" height="33.865" style="fill:none;stroke:black;stroke-width:2.18px;"/>
            </g>
            <g transform="matrix(0.950693,0,0,0.885873,-166.063,-52.8671)">
                <rect x="227.269" y="313.665" width="31.556" height="33.865" style="fill:none;stroke:black;stroke-width:2.18px;"/>
            </g>
        </g>
        <g transform="matrix(1,0,0,1,0,350)">
            <g transform="matrix(5.24375,0,0,1,-1033.12,-75)">
                <path d="M300,330L460,330" style="fill:none;stroke:black;stroke-width:0.53px;stroke-dasharray:0.53,1.59,0,0;"/>
            </g>
            <g transform="matrix(0.625,0,0,1,202.4,-75)">
                <path d="M300,330L460,330" style="fill:none;stroke:black;stroke-width:2.4px;stroke-dasharray:2.4,7.2,0,0;"/>
            </g>
            <g transform="matrix(0.625,0,0,1,86.7,-75)">
                <path d="M300,330L460,330" style="fill:none;stroke:black;stroke-width:2.4px;stroke-dasharray:2.4,7.2,0,0;"/>
            </g>
            <g transform="matrix(0.950693,0,0,0.885873,-16.0629,-52.8671)">
                <rect x="227.269" y="313.665" width="31.556" height="33.865" style="fill:none;stroke:black;stroke-width:2.18px;"/>
            </g>
            <g transform="matrix(0.950693,0,0,0.885873,-66.0629,-52.8671)">
                <rect x="227.269" y="313.665" width="31.556" height="33.865" style="fill:none;stroke:black;stroke-width:2.18px;"/>
            </g>
            <g transform="matrix(0.950693,0,0,0.885873,-116.063,-52.8671)">
                <rect x="227.269" y="313.665" width="31.556" height="33.865" style="fill:none;stroke:black;stroke-width:2.18px;"/>
            </g>
            <g transform="matrix(0.950693,0,0,0.885873,-166.063,-52.8671)">
                <rect x="227.269" y="313.665" width="31.556" height="33.865" style="fill:none;stroke:black;stroke-width:2.18px;"/>
            </g>
        </g>
        <g transform="matrix(1,0,0,1,0,300)">
            <g transform="matrix(5.24375,0,0,1,-1033.12,-75)">
                <path d="M300,330L460,330" style="fill:none;stroke:black;stroke-width:0.53px;stroke-dasharray:0.53,1.59,0,0;"/>
            </g>
            <g transform="matrix(0.625,0,0,1,202.4,-75)">
                <path d="M300,330L460,330" style="fill:none;stroke:black;stroke-width:2.4px;stroke-dasharray:2.4,7.2,0,0;"/>
            </g>
            <g transform="matrix(0.625,0,0,1,86.7,-75)">
                <path d="M300,330L460,330" style="fill:none;stroke:black;stroke-width:2.4px;stroke-dasharray:2.4,7.2,0,0;"/>
            </g>
            <g transform="matrix(0.950693,0,0,0.885873,-16.0629,-52.8671)">
                <rect x="227.269" y="313.665" width="31.556" height="33.865" style="fill:none;stroke:black;stroke-width:2.18px;"/>
            </g>
            <g transform="matrix(0.950693,0,0,0.885873,-66.0629,-52.8671)">
                <rect x="227.269" y="313.665" width="31.556" height="33.865" style="fill:none;stroke:black;stroke-width:2.18px;"/>
            </g>
            <g transform="matrix(0.950693,0,0,0.885873,-116.063,-52.8671)">
                <rect x="227.269" y="313.665" width="31.556" height="33.865" style="fill:none;stroke:black;stroke-width:2.18px;"/>
            </g>
            <g transform="matrix(0.950693,0,0,0.885873,-166.063,-52.8671)">
                <rect x="227.269" y="313.665" width="31.556" height="33.865" style="fill:none;stroke:black;stroke-width:2.18px;"/>
            </g>
        </g>
        <g transform="matrix(1,0,0,1,0,250)">
            <g transform="matrix(5.24375,0,0,1,-1033.12,-75)">
                <path d="M300,330L460,330" style="fill:none;stroke:black;stroke-width:0.53px;stroke-dasharray:0.53,1.59,0,0;"/>
            </g>
            <g transform="matrix(0.625,0,0,1,202.4,-75)">
                <path d="M300,330L460,330" style="fill:none;stroke:black;stroke-width:2.4px;stroke-dasharray:2.4,7.2,0,0;"/>
            </g>
            <g transform="matrix(0.625,0,0,1,86.7,-75)">
                <path d="M300,330L460,330" style="fill:none;stroke:black;stroke-width:2.4px;stroke-dasharray:2.4,7.2,0,0;"/>
            </g>
            <g transform="matrix(0.950693,0,0,0.885873,-16.0629,-52.8671)">
                <rect x="227.269" y="313.665" width="31.556" height="33.865" style="fill:none;stroke:black;stroke-width:2.18px;"/>
            </g>
            <g transform="matrix(0.950693,0,0,0.885873,-66.0629,-52.8671)">
                <rect x="227.269" y="313.665" width="31.556" height="33.865" style="fill:none;stroke:black;stroke-width:2.18px;"/>
            </g>
            <g transform="matrix(0.950693,0,0,0.885873,-116.063,-52.8671)">
                <rect x="227.269" y="313.665" width="31.556" height="33.865" style="fill:none;stroke:black;stroke-width:2.18px;"/>
            </g>
            <g transform="matrix(0.950693,0,0,0.885873,-166.063,-52.8671)">
                <rect x="227.269" y="313.665" width="31.556" height="33.865" style="fill:none;stroke:black;stroke-width:2.18px;"/>
            </g>
        </g>
        <g transform="matrix(1,0,0,1,0,200)">
            <g transform="matrix(5.24375,0,0,1,-1033.12,-75)">
                <path d="M300,330L460,330" style="fill:none;stroke:black;stroke-width:0.53px;stroke-dasharray:0.53,1.59,0,0;"/>
            </g>
            <g transform="matrix(0.625,0,0,1,202.4,-75)">
                <path d="M300,330L460,330" style="fill:none;stroke:black;stroke-width:2.4px;stroke-dasharray:2.4,7.2,0,0;"/>
            </g>
            <g transform="matrix(0.625,0,0,1,86.7,-75)">
                <path d="M300,330L460,330" style="fill:none;stroke:black;stroke-width:2.4px;stroke-dasharray:2.4,7.2,0,0;"/>
            </g>
            <g transform="matrix(0.950693,0,0,0.885873,-16.0629,-52.8671)">
                <rect x="227.269" y="313.665" width="31.556" height="33.865" style="fill:none;stroke:black;stroke-width:2.18px;"/>
            </g>
            <g transform="matrix(0.950693,0,0,0.885873,-66.0629,-52.8671)">
                <rect x="227.269" y="313.665" width="31.556" height="33.865" style="fill:none;stroke:black;stroke-width:2.18px;"/>
            </g>
            <g transform="matrix(0.950693,0,0,0.885873,-116.063,-52.8671)">
                <rect x="227.269" y="313.665" width="31.556" height="33.865" style="fill:none;stroke:black;stroke-width:2.18px;"/>
            </g>
            <g transform="matrix(0.950693,0,0,0.885873,-166.063,-52.8671)">
                <rect x="227.269" y="313.665" width="31.556" height="33.865" style="fill:none;stroke:black;stroke-width:2.18px;"/>
            </g>
        </g>
        <g transform="matrix(1,0,0,1,0,150)">
            <g transform="matrix(5.24375,0,0,1,-1033.12,-75)">
                <path d="M300,330L460,330" style="fill:none;stroke:black;stroke-width:0.53px;stroke-dasharray:0.53,1.59,0,0;"/>
            </g>
            <g transform="matrix(0.625,0,0,1,202.4,-75)">
                <path d="M300,330L460,330" style="fill:none;stroke:black;stroke-width:2.4px;stroke-dasharray:2.4,7.2,0,0;"/>
            </g>
            <g transform="matrix(0.625,0,0,1,86.7,-75)">
                <path d="M300,330L460,330" style="fill:none;stroke:black;stroke-width:2.4px;stroke-dasharray:2.4,7.2,0,0;"/>
            </g>
            <g transform="matrix(0.950693,0,0,0.885873,-16.0629,-52.8671)">
                <rect x="227.269" y="313.665" width="31.556" height="33.865" style="fill:none;stroke:black;stroke-width:2.18px;"/>
            </g>
            <g transform="matrix(0.950693,0,0,0.885873,-66.0629,-52.8671)">
                <rect x="227.269" y="313.665" width="31.556" height="33.865" style="fill:none;stroke:black;stroke-width:2.18px;"/>
            </g>
            <g transform="matrix(0.950693,0,0,0.885873,-116.063,-52.8671)">
                <rect x="227.269" y="313.665" width="31.556" height="33.865" style="fill:none;stroke:black;stroke-width:2.18px;"/>
            </g>
            <g transform="matrix(0.950693,0,0,0.885873,-166.063,-52.8671)">
                <rect x="227.269" y="313.665" width="31.556" height="33.865" style="fill:none;stroke:black;stroke-width:2.18px;"/>
            </g>
        </g>
        <g transform="matrix(1,0,0,1,0,100)">
            <g transform="matrix(5.24375,0,0,1,-1033.12,-75)">
                <path d="M300,330L460,330" style="fill:none;stroke:black;stroke-width:0.53px;stroke-dasharray:0.53,1.59,0,0;"/>
            </g>
            <g transform="matrix(0.625,0,0,1,202.4,-75)">
                <path d="M300,330L460,330" style="fill:none;stroke:black;stroke-width:2.4px;stroke-dasharray:2.4,7.2,0,0;"/>
            </g>
            <g transform="matrix(0.625,0,0,1,86.7,-75)">
                <path d="M300,330L460,330" style="fill:none;stroke:black;stroke-width:2.4px;stroke-dasharray:2.4,7.2,0,0;"/>
            </g>
            <g transform="matrix(0.950693,0,0,0.885873,-16.0629,-52.8671)">
                <rect x="227.269" y="313.665" width="31.556" height="33.865" style="fill:none;stroke:black;stroke-width:2.18px;"/>
            </g>
            <g transform="matrix(0.950693,0,0,0.885873,-66.0629,-52.8671)">
                <rect x="227.269" y="313.665" width="31.556" height="33.865" style="fill:none;stroke:black;stroke-width:2.18px;"/>
            </g>
            <g transform="matrix(0.950693,0,0,0.885873,-116.063,-52.8671)">
                <rect x="227.269" y="313.665" width="31.556" height="33.865" style="fill:none;stroke:black;stroke-width:2.18px;"/>
            </g>
            <g transform="matrix(0.950693,0,0,0.885873,-166.063,-52.8671)">
                <rect x="227.269" y="313.665" width="31.556" height="33.865" style="fill:none;stroke:black;stroke-width:2.18px;"/>
            </g>
        </g>
        <g transform="matrix(1,0,0,1,0,50)">
            <g transform="matrix(5.24375,0,0,1,-1033.12,-75)">
                <path d="M300,330L460,330" style="fill:none;stroke:black;stroke-width:0.53px;stroke-dasharray:0.53,1.59,0,0;"/>
            </g>
            <g transform="matrix(0.625,0,0,1,202.4,-75)">
                <path d="M300,330L460,330" style="fill:none;stroke:black;stroke-width:2.4px;stroke-dasharray:2.4,7.2,0,0;"/>
            </g>
            <g transform="matrix(0.625,0,0,1,86.7,-75)">
                <path d="M300,330L460,330" style="fill:none;stroke:black;stroke-width:2.4px;stroke-dasharray:2.4,7.2,0,0;"/>
            </g>
            <g transform="matrix(0.950693,0,0,0.885873,-16.0629,-52.8671)">
                <rect x="227.269" y="313.665" width="31.556" height="33.865" style="fill:none;stroke:black;stroke-width:2.18px;"/>
            </g>
            <g transform="matrix(0.950693,0,0,0.885873,-66.0629,-52.8671)">
                <rect x="227.269" y="313.665" width="31.556" height="33.865" style="fill:none;stroke:black;stroke-width:2.18px;"/>
            </g>
            <g transform="matrix(0.950693,0,0,0.885873,-116.063,-52.8671)">
                <rect x="227.269" y="313.665" width="31.556" height="33.865" style="fill:none;stroke:black;stroke-width:2.18px;"/>
            </g>
            <g transform="matrix(0.950693,0,0,0.885873,-166.063,-52.8671)">
                <rect x="227.269" y="313.665" width="31.556" height="33.865" style="fill:none;stroke:black;stroke-width:2.18px;"/>
            </g>
        </g>
        <g>
            <g transform="matrix(5.24375,0,0,1,-1033.12,-75)">
                <path d="M300,330L460,330" style="fill:none;stroke:black;stroke-width:0.53px;stroke-dasharray:0.53,1.59,0,0;"/>
            </g>
            <g transform="matrix(0.625,0,0,1,202.4,-75)">
                <path d="M300,330L460,330" style="fill:none;stroke:black;stroke-width:2.4px;stroke-dasharray:2.4,7.2,0,0;"/>
            </g>
            <g transform="matrix(0.625,0,0,1,86.7,-75)">
                <path d="M300,330L460,330" style="fill:none;stroke:black;stroke-width:2.4px;stroke-dasharray:2.4,7.2,0,0;"/>
            </g>
            <g transform="matrix(0.950693,0,0,0.885873,-16.0629,-52.8671)">
                <rect x="227.269" y="313.665" width="31.556" height="33.865" style="fill:none;stroke:black;stroke-width:2.18px;"/>
            </g>
            <g transform="matrix(0.950693,0,0,0.885873,-66.0629,-52.8671)">
                <rect x="227.269" y="313.665" width="31.556" height="33.865" style="fill:none;stroke:black;stroke-width:2.18px;"/>
            </g>
            <g transform="matrix(0.950693,0,0,0.885873,-116.063,-52.8671)">
                <rect x="227.269" y="313.665" width="31.556" height="33.865" style="fill:none;stroke:black;stroke-width:2.18px;"/>
            </g>
            <g transform="matrix(0.950693,0,0,0.885873,-166.063,-52.8671)">
                <rect x="227.269" y="313.665" width="31.556" height="33.865" style="fill:none;stroke:black;stroke-width:2.18px;"/>
            </g>
        </g>
        <g transform="matrix(1,0,0,1,106.313,-280.776)">
            <g transform="matrix(15,0,0,15,442.217,480.356)">
                <path d="M0.513,-0.893C0.511,-0.893 0.509,-0.893 0.507,-0.893L0.181,-0.893C0.135,-0.893 0.098,-0.856 0.098,-0.81L0.098,-0.083C0.098,-0.037 0.135,0 0.181,0L0.51,0L0.51,-0C0.511,-0 0.512,-0 0.513,-0C0.75,-0.003 0.929,-0.194 0.929,-0.447C0.929,-0.699 0.75,-0.89 0.513,-0.893ZM0.507,-0.167C0.507,-0.167 0.265,-0.167 0.265,-0.167L0.265,-0.726L0.507,-0.726C0.655,-0.726 0.762,-0.609 0.762,-0.447C0.762,-0.285 0.655,-0.167 0.507,-0.167Z" style="fill-rule:nonzero;"/>
            </g>
            <g transform="matrix(15,0,0,15,456.602,480.356)">
                <path d="M0.666,-0.167C0.666,-0.167 0.265,-0.167 0.265,-0.167L0.265,-0.363L0.595,-0.363C0.641,-0.363 0.678,-0.401 0.678,-0.447C0.678,-0.493 0.641,-0.53 0.595,-0.53L0.265,-0.53L0.265,-0.726L0.666,-0.726C0.712,-0.726 0.749,-0.764 0.749,-0.81C0.749,-0.856 0.712,-0.893 0.666,-0.893L0.182,-0.893C0.135,-0.893 0.098,-0.856 0.098,-0.81L0.098,-0.083C0.098,-0.037 0.135,-0 0.182,-0L0.666,-0C0.712,-0 0.749,-0.037 0.749,-0.083C0.749,-0.13 0.712,-0.167 0.666,-0.167Z" style="fill-rule:nonzero;"/>
            </g>
            <g transform="matrix(15,0,0,15,468.317,480.356)">
                <path d="M0.643,-0.448C0.589,-0.484 0.517,-0.51 0.415,-0.532C0.415,-0.532 0.415,-0.532 0.415,-0.532C0.251,-0.567 0.251,-0.628 0.257,-0.672C0.263,-0.72 0.305,-0.748 0.413,-0.742C0.417,-0.742 0.422,-0.741 0.426,-0.741C0.426,-0.741 0.427,-0.742 0.427,-0.742C0.47,-0.738 0.526,-0.719 0.592,-0.685C0.633,-0.663 0.683,-0.679 0.705,-0.72C0.726,-0.761 0.71,-0.812 0.669,-0.833C0.58,-0.879 0.504,-0.903 0.437,-0.908C0.437,-0.908 0.437,-0.908 0.436,-0.908C0.422,-0.909 0.407,-0.91 0.393,-0.91C0.214,-0.91 0.09,-0.824 0.086,-0.639C0.085,-0.581 0.103,-0.498 0.2,-0.436C0.246,-0.407 0.303,-0.385 0.38,-0.368C0.38,-0.368 0.38,-0.368 0.38,-0.368C0.38,-0.368 0.38,-0.368 0.381,-0.368C0.381,-0.368 0.381,-0.368 0.381,-0.368C0.381,-0.368 0.381,-0.368 0.381,-0.368C0.589,-0.325 0.589,-0.267 0.589,-0.245C0.589,-0.227 0.584,-0.2 0.562,-0.178C0.535,-0.153 0.49,-0.139 0.432,-0.139L0.422,-0.139C0.321,-0.142 0.249,-0.18 0.186,-0.221C0.148,-0.246 0.096,-0.236 0.071,-0.197C0.045,-0.159 0.056,-0.107 0.095,-0.082C0.174,-0.03 0.274,0.024 0.418,0.028L0.432,0.028C0.561,0.028 0.637,-0.019 0.678,-0.059C0.728,-0.108 0.756,-0.174 0.756,-0.245C0.756,-0.303 0.736,-0.385 0.643,-0.448Z" style="fill-rule:nonzero;"/>
            </g>
            <g transform="matrix(15,0,0,15,480.077,480.356)">
                <path d="M0.775,-0.251C0.754,-0.251 0.734,-0.244 0.718,-0.228C0.663,-0.177 0.592,-0.149 0.517,-0.149C0.355,-0.149 0.223,-0.281 0.223,-0.443C0.223,-0.605 0.355,-0.737 0.517,-0.737C0.593,-0.737 0.665,-0.707 0.72,-0.654C0.754,-0.622 0.807,-0.623 0.838,-0.657C0.87,-0.69 0.869,-0.743 0.836,-0.775C0.75,-0.858 0.637,-0.904 0.517,-0.904C0.263,-0.904 0.056,-0.697 0.056,-0.443C0.056,-0.189 0.263,0.018 0.517,0.018C0.634,0.018 0.746,-0.026 0.832,-0.107C0.887,-0.158 0.85,-0.251 0.775,-0.251Z" style="fill-rule:nonzero;"/>
            </g>
            <g transform="matrix(15,0,0,15,493.352,480.356)">
                <path d="M0.658,-0.33C0.758,-0.378 0.827,-0.48 0.827,-0.598C0.827,-0.761 0.694,-0.893 0.531,-0.893L0.181,-0.893C0.153,-0.893 0.127,-0.879 0.112,-0.857C0.103,-0.843 0.098,-0.827 0.098,-0.81L0.098,-0.084C0.098,-0.037 0.135,-0 0.181,-0C0.228,-0 0.265,-0.037 0.265,-0.084L0.265,-0.302L0.469,-0.302L0.677,-0.032C0.694,-0.011 0.719,-0 0.744,-0C0.761,-0 0.779,-0.006 0.795,-0.017C0.831,-0.046 0.838,-0.098 0.81,-0.135L0.658,-0.33ZM0.265,-0.726L0.531,-0.726C0.602,-0.726 0.66,-0.669 0.66,-0.598C0.66,-0.526 0.602,-0.469 0.531,-0.469L0.51,-0.469C0.51,-0.469 0.51,-0.469 0.509,-0.469L0.509,-0.469C0.51,-0.469 0.51,-0.469 0.51,-0.469C0.51,-0.469 0.51,-0.469 0.509,-0.469L0.509,-0.469L0.265,-0.469L0.265,-0.726ZM0.51,-0.469C0.51,-0.469 0.51,-0.469 0.509,-0.469C0.511,-0.469 0.512,-0.469 0.51,-0.469Z" style="fill-rule:nonzero;"/>
            </g>
            <g transform="matrix(15,0,0,15,506.267,480.356)">
                <path d="M0.181,-0.893C0.135,-0.893 0.098,-0.856 0.098,-0.81L0.098,-0.083C0.098,-0.037 0.135,0 0.181,0C0.228,0 0.265,-0.037 0.265,-0.083L0.265,-0.81C0.265,-0.856 0.228,-0.893 0.181,-0.893Z" style="fill-rule:nonzero;"/>
            </g>
            <g transform="matrix(15,0,0,15,511.712,480.356)">
                <path d="M0.481,-0.893C0.481,-0.893 0.182,-0.893 0.182,-0.893C0.155,-0.893 0.131,-0.881 0.116,-0.861C0.105,-0.847 0.098,-0.829 0.098,-0.81L0.098,-0.083C0.098,-0.037 0.135,-0 0.182,-0C0.228,-0 0.265,-0.037 0.265,-0.083L0.265,-0.26L0.481,-0.26C0.656,-0.26 0.798,-0.402 0.798,-0.577C0.798,-0.751 0.656,-0.893 0.481,-0.893ZM0.481,-0.427L0.265,-0.427L0.265,-0.726L0.481,-0.726C0.564,-0.726 0.631,-0.659 0.631,-0.577C0.631,-0.494 0.564,-0.427 0.481,-0.427Z" style="fill-rule:nonzero;"/>
            </g>
            <g transform="matrix(15,0,0,15,523.862,480.356)">
                <path d="M0.714,-0.893C0.714,-0.893 0.104,-0.893 0.104,-0.893C0.058,-0.893 0.021,-0.856 0.021,-0.81C0.021,-0.764 0.058,-0.726 0.104,-0.726L0.326,-0.726L0.326,-0.083C0.326,-0.037 0.363,0 0.409,0C0.455,0 0.493,-0.037 0.493,-0.083L0.493,-0.726L0.714,-0.726C0.76,-0.726 0.797,-0.764 0.797,-0.81C0.797,-0.856 0.76,-0.893 0.714,-0.893Z" style="fill-rule:nonzero;"/>
            </g>
            <g transform="matrix(15,0,0,15,535.787,480.356)">
                <path d="M0.181,-0.893C0.135,-0.893 0.098,-0.856 0.098,-0.81L0.098,-0.083C0.098,-0.037 0.135,0 0.181,0C0.228,0 0.265,-0.037 0.265,-0.083L0.265,-0.81C0.265,-0.856 0.228,-0.893 0.181,-0.893Z" style="fill-rule:nonzero;"/>
            </g>
            <g transform="matrix(15,0,0,15,540.797,480.356)">
                <path d="M1.003,-0.445C1.003,-0.706 0.791,-0.918 0.53,-0.918L0.53,-0.918C0.269,-0.918 0.057,-0.706 0.057,-0.445C0.057,-0.184 0.269,0.028 0.53,0.028C0.791,0.028 1.003,-0.184 1.003,-0.445ZM0.53,-0.139L0.53,-0.139C0.361,-0.139 0.224,-0.276 0.224,-0.445L0.224,-0.445C0.224,-0.614 0.361,-0.751 0.53,-0.751C0.699,-0.751 0.836,-0.614 0.836,-0.445L0.836,-0.445C0.836,-0.276 0.699,-0.139 0.53,-0.139Z" style="fill-rule:nonzero;"/>
            </g>
            <g transform="matrix(15,0,0,15,556.292,480.356)">
                <path d="M0.863,-0.033L0.87,-0.043L0.874,-0.05L0.878,-0.061L0.879,-0.066L0.881,-0.076L0.882,-0.084C0.882,-0.085 0.881,-0.085 0.881,-0.086L0.881,-0.092L0.881,-0.81C0.881,-0.856 0.844,-0.894 0.798,-0.894C0.752,-0.894 0.714,-0.856 0.714,-0.81L0.714,-0.311L0.246,-0.863C0.231,-0.882 0.208,-0.894 0.182,-0.894C0.131,-0.894 0.096,-0.851 0.098,-0.806L0.098,-0.084C0.098,-0.038 0.135,-0 0.182,-0C0.228,-0 0.265,-0.038 0.265,-0.084L0.265,-0.583L0.734,-0.03C0.733,-0.031 0.733,-0.031 0.733,-0.032L0.739,-0.025L0.748,-0.017C0.748,-0.017 0.748,-0.017 0.748,-0.017C0.749,-0.016 0.75,-0.015 0.751,-0.015C0.751,-0.015 0.751,-0.015 0.751,-0.015L0.759,-0.01C0.759,-0.01 0.759,-0.01 0.759,-0.01L0.764,-0.007C0.764,-0.007 0.764,-0.007 0.764,-0.007C0.764,-0.007 0.764,-0.007 0.764,-0.007C0.764,-0.007 0.764,-0.007 0.764,-0.007C0.764,-0.007 0.764,-0.007 0.764,-0.008C0.764,-0.008 0.764,-0.008 0.764,-0.008C0.764,-0.008 0.764,-0.008 0.764,-0.008C0.763,-0.008 0.763,-0.008 0.763,-0.008L0.772,-0.005L0.779,-0.002L0.786,-0.001L0.794,-0C0.795,-0 0.797,-0 0.799,-0C0.799,-0 0.8,-0 0.8,-0C0.8,-0 0.801,-0 0.801,-0L0.808,-0.001C0.809,-0.001 0.811,-0.001 0.813,-0.001C0.813,-0.001 0.813,-0.001 0.814,-0.002L0.822,-0.004L0.834,-0.008C0.835,-0.009 0.837,-0.01 0.838,-0.011C0.839,-0.011 0.839,-0.011 0.839,-0.011C0.839,-0.011 0.84,-0.012 0.84,-0.012L0.849,-0.018L0.856,-0.024L0.863,-0.033Z" style="fill-rule:nonzero;"/>
            </g>
        </g>
        <g transform="matrix(1,0,0,1,-22.9067,-169.735)">
            <g transform="matrix(15,0,0,15,421.437,369.525)">
                <path d="M0.863,-0.033L0.87,-0.043L0.874,-0.05L0.878,-0.061L0.879,-0.066L0.881,-0.076L0.882,-0.084C0.882,-0.085 0.882,-0.085 0.882,-0.086L0.881,-0.092L0.881,-0.81C0.881,-0.856 0.844,-0.894 0.798,-0.894C0.752,-0.894 0.714,-0.856 0.714,-0.81L0.714,-0.311L0.246,-0.863C0.231,-0.882 0.208,-0.894 0.182,-0.894C0.131,-0.894 0.096,-0.851 0.098,-0.806L0.098,-0.084C0.098,-0.038 0.135,-0 0.182,-0C0.228,-0 0.265,-0.038 0.265,-0.084L0.265,-0.583L0.734,-0.03C0.733,-0.031 0.733,-0.031 0.733,-0.032L0.739,-0.025L0.748,-0.017L0.754,-0.013C0.756,-0.012 0.757,-0.011 0.759,-0.01C0.759,-0.01 0.759,-0.01 0.759,-0.01C0.759,-0.01 0.76,-0.009 0.761,-0.009C0.761,-0.009 0.761,-0.009 0.761,-0.009C0.761,-0.009 0.762,-0.008 0.762,-0.008C0.762,-0.008 0.762,-0.008 0.762,-0.008C0.763,-0.008 0.764,-0.008 0.764,-0.007C0.764,-0.007 0.764,-0.007 0.764,-0.007C0.764,-0.007 0.764,-0.007 0.764,-0.007C0.764,-0.007 0.764,-0.007 0.764,-0.007C0.764,-0.007 0.764,-0.007 0.764,-0.008C0.764,-0.008 0.764,-0.008 0.764,-0.008C0.764,-0.008 0.764,-0.008 0.764,-0.008C0.763,-0.008 0.763,-0.008 0.763,-0.008L0.772,-0.005L0.779,-0.002L0.786,-0.001L0.794,-0C0.796,-0 0.797,-0 0.799,-0C0.799,-0 0.8,-0 0.8,-0C0.8,-0 0.801,-0 0.801,-0L0.808,-0.001C0.809,-0.001 0.811,-0.001 0.813,-0.001C0.813,-0.001 0.813,-0.001 0.814,-0.002L0.822,-0.004L0.834,-0.008C0.835,-0.009 0.837,-0.01 0.838,-0.011C0.839,-0.011 0.839,-0.011 0.839,-0.011C0.839,-0.011 0.84,-0.012 0.84,-0.012L0.849,-0.018L0.856,-0.024L0.863,-0.033Z" style="fill-rule:nonzero;"/>
            </g>
            <g transform="matrix(15,0,0,15,435.567,369.525)">
                <path d="M0.86,-0.341L0.86,-0.81C0.86,-0.856 0.823,-0.893 0.777,-0.893C0.731,-0.893 0.693,-0.856 0.693,-0.81L0.693,-0.341C0.693,-0.238 0.584,-0.153 0.472,-0.153C0.354,-0.153 0.251,-0.241 0.251,-0.341L0.251,-0.81C0.251,-0.856 0.214,-0.893 0.167,-0.893C0.121,-0.893 0.084,-0.856 0.084,-0.81L0.084,-0.341C0.084,-0.148 0.262,0.014 0.472,0.014C0.682,0.014 0.86,-0.148 0.86,-0.341C0.86,-0.341 0.86,-0.341 0.86,-0.341Z" style="fill-rule:nonzero;"/>
            </g>
            <g transform="matrix(15,0,0,15,449.187,369.525)">
                <path d="M0.981,-0.084L0.981,-0.81C0.981,-0.81 0.981,-0.811 0.981,-0.811C0.981,-0.811 0.981,-0.811 0.981,-0.811L0.981,-0.82L0.979,-0.828L0.977,-0.836L0.974,-0.843L0.971,-0.85L0.967,-0.857L0.962,-0.864L0.954,-0.872L0.951,-0.875C0.939,-0.884 0.924,-0.891 0.907,-0.893L0.898,-0.893C0.897,-0.893 0.897,-0.893 0.896,-0.893L0.892,-0.893C0.891,-0.893 0.89,-0.893 0.889,-0.893C0.889,-0.893 0.888,-0.893 0.888,-0.893L0.88,-0.891L0.872,-0.889L0.864,-0.886L0.857,-0.883L0.851,-0.879L0.844,-0.874L0.838,-0.868L0.833,-0.863C0.833,-0.863 0.833,-0.862 0.832,-0.862C0.832,-0.861 0.832,-0.861 0.831,-0.86L0.535,-0.471L0.249,-0.859C0.248,-0.86 0.248,-0.86 0.247,-0.861L0.242,-0.867L0.236,-0.873L0.229,-0.878L0.223,-0.882L0.216,-0.886L0.208,-0.889L0.2,-0.891L0.192,-0.893L0.184,-0.893C0.183,-0.893 0.182,-0.893 0.182,-0.893L0.17,-0.893C0.17,-0.893 0.17,-0.893 0.17,-0.893C0.148,-0.89 0.13,-0.879 0.118,-0.864L0.111,-0.855L0.107,-0.848L0.102,-0.837L0.1,-0.829C0.1,-0.827 0.1,-0.826 0.099,-0.824L0.099,-0.824L0.098,-0.814C0.098,-0.812 0.098,-0.81 0.098,-0.808L0.098,-0.084C0.098,-0.037 0.135,-0 0.182,-0C0.228,-0 0.265,-0.037 0.265,-0.084L0.265,-0.556L0.466,-0.282L0.471,-0.276C0.475,-0.272 0.479,-0.268 0.483,-0.265C0.483,-0.265 0.483,-0.265 0.483,-0.265C0.483,-0.265 0.483,-0.265 0.483,-0.265C0.485,-0.264 0.487,-0.262 0.489,-0.261C0.489,-0.261 0.489,-0.261 0.489,-0.261L0.495,-0.257C0.496,-0.257 0.498,-0.256 0.499,-0.255C0.531,-0.24 0.571,-0.243 0.6,-0.281C0.6,-0.281 0.6,-0.281 0.6,-0.281L0.814,-0.562L0.814,-0.084C0.814,-0.037 0.852,-0 0.898,-0C0.944,-0 0.981,-0.037 0.981,-0.084Z" style="fill-rule:nonzero;"/>
            </g>
            <g transform="matrix(15,0,0,15,465.387,369.525)">
                <path d="M0.753,-0.493C0.782,-0.534 0.799,-0.585 0.799,-0.639C0.799,-0.78 0.685,-0.894 0.544,-0.894C0.54,-0.894 0.535,-0.894 0.531,-0.893L0.181,-0.893C0.135,-0.893 0.098,-0.856 0.098,-0.81L0.098,-0.083C0.098,-0.037 0.135,-0 0.181,-0L0.585,-0C0.737,-0 0.861,-0.123 0.861,-0.275C0.861,-0.364 0.819,-0.442 0.753,-0.493ZM0.544,-0.55C0.544,-0.55 0.544,-0.55 0.544,-0.55C0.543,-0.55 0.543,-0.55 0.543,-0.55L0.265,-0.55L0.265,-0.726L0.544,-0.726C0.547,-0.726 0.55,-0.727 0.553,-0.727C0.598,-0.722 0.632,-0.685 0.632,-0.639C0.632,-0.59 0.593,-0.55 0.544,-0.55ZM0.585,-0.167L0.265,-0.167L0.265,-0.383L0.543,-0.383L0.585,-0.383C0.645,-0.383 0.694,-0.335 0.694,-0.275C0.694,-0.216 0.645,-0.167 0.585,-0.167Z" style="fill-rule:nonzero;"/>
            </g>
            <g transform="matrix(15,0,0,15,478.692,369.525)">
                <path d="M0.666,-0.167C0.666,-0.167 0.265,-0.167 0.265,-0.167L0.265,-0.363L0.595,-0.363C0.641,-0.363 0.678,-0.401 0.678,-0.447C0.678,-0.493 0.641,-0.53 0.595,-0.53L0.265,-0.53L0.265,-0.726L0.666,-0.726C0.712,-0.726 0.749,-0.764 0.749,-0.81C0.749,-0.856 0.712,-0.893 0.666,-0.893L0.182,-0.893C0.135,-0.893 0.098,-0.856 0.098,-0.81L0.098,-0.083C0.098,-0.037 0.135,-0 0.182,-0L0.666,-0C0.712,-0 0.749,-0.037 0.749,-0.083C0.749,-0.13 0.712,-0.167 0.666,-0.167Z" style="fill-rule:nonzero;"/>
            </g>
            <g transform="matrix(15,0,0,15,490.302,369.525)">
                <path d="M0.658,-0.33C0.758,-0.378 0.827,-0.48 0.827,-0.598C0.827,-0.761 0.694,-0.893 0.531,-0.893L0.181,-0.893C0.153,-0.893 0.127,-0.879 0.112,-0.857C0.103,-0.843 0.098,-0.827 0.098,-0.81L0.098,-0.084C0.098,-0.037 0.135,-0 0.181,-0C0.228,-0 0.265,-0.037 0.265,-0.084L0.265,-0.302L0.469,-0.302L0.677,-0.032C0.694,-0.011 0.719,-0 0.744,-0C0.761,-0 0.779,-0.006 0.795,-0.017C0.831,-0.046 0.838,-0.098 0.81,-0.135L0.658,-0.33ZM0.265,-0.726L0.531,-0.726C0.602,-0.726 0.66,-0.669 0.66,-0.598C0.66,-0.526 0.602,-0.469 0.531,-0.469L0.51,-0.469C0.51,-0.469 0.51,-0.469 0.509,-0.469L0.509,-0.469C0.51,-0.469 0.51,-0.469 0.51,-0.469C0.51,-0.469 0.51,-0.469 0.509,-0.469L0.509,-0.469L0.265,-0.469L0.265,-0.726ZM0.51,-0.469C0.51,-0.469 0.51,-0.469 0.509,-0.469C0.511,-0.469 0.512,-0.469 0.51,-0.469Z" style="fill-rule:nonzero;"/>
            </g>
        </g>
        <g transform="matrix(1,0,0,1,-122.322,-143.781)">
            <g transform="matrix(15,0,0,15,422.007,343.781)">
                <path d="M0.714,-0.893L0.105,-0.893C0.058,-0.893 0.021,-0.856 0.021,-0.81C0.021,-0.764 0.058,-0.726 0.105,-0.726L0.326,-0.726L0.326,-0.083C0.326,-0.037 0.363,0 0.409,0C0.455,0 0.493,-0.037 0.493,-0.083L0.493,-0.726L0.714,-0.726C0.76,-0.726 0.797,-0.764 0.797,-0.81C0.797,-0.856 0.76,-0.893 0.714,-0.893Z" style="fill-rule:nonzero;"/>
            </g>
            <g transform="matrix(15,0,0,15,434.292,343.781)">
                <path d="M0.829,-0.877C0.792,-0.905 0.74,-0.896 0.713,-0.859L0.443,-0.488L0.174,-0.859C0.147,-0.896 0.095,-0.905 0.057,-0.877C0.02,-0.85 0.012,-0.798 0.039,-0.761L0.36,-0.319L0.36,-0.083C0.36,-0.037 0.397,0 0.443,0C0.49,0 0.527,-0.037 0.527,-0.083L0.527,-0.319L0.848,-0.761C0.875,-0.798 0.867,-0.85 0.829,-0.877Z" style="fill-rule:nonzero;"/>
            </g>
            <g transform="matrix(15,0,0,15,447.207,343.781)">
                <path d="M0.481,-0.893C0.481,-0.893 0.182,-0.893 0.182,-0.893C0.155,-0.893 0.131,-0.881 0.116,-0.861C0.105,-0.847 0.098,-0.829 0.098,-0.81L0.098,-0.083C0.098,-0.037 0.135,-0 0.182,-0C0.228,-0 0.265,-0.037 0.265,-0.083L0.265,-0.26L0.481,-0.26C0.656,-0.26 0.798,-0.402 0.798,-0.577C0.798,-0.751 0.656,-0.893 0.481,-0.893ZM0.481,-0.427L0.265,-0.427L0.265,-0.726L0.481,-0.726C0.564,-0.726 0.631,-0.659 0.631,-0.577C0.631,-0.494 0.564,-0.427 0.481,-0.427Z" style="fill-rule:nonzero;"/>
            </g>
            <g transform="matrix(15,0,0,15,459.477,343.781)">
                <path d="M0.666,-0.167C0.666,-0.167 0.265,-0.167 0.265,-0.167L0.265,-0.363L0.595,-0.363C0.641,-0.363 0.678,-0.401 0.678,-0.447C0.678,-0.493 0.641,-0.53 0.595,-0.53L0.265,-0.53L0.265,-0.726L0.666,-0.726C0.712,-0.726 0.749,-0.764 0.749,-0.81C0.749,-0.856 0.712,-0.893 0.666,-0.893L0.182,-0.893C0.135,-0.893 0.098,-0.856 0.098,-0.81L0.098,-0.083C0.098,-0.037 0.135,-0 0.182,-0L0.666,-0C0.712,-0 0.749,-0.037 0.749,-0.083C0.749,-0.13 0.712,-0.167 0.666,-0.167Z" style="fill-rule:nonzero;"/>
            </g>
        </g>
        <g transform="matrix(0.707107,-0.707107,0.707107,0.707107,-419.863,194.366)">
            <g transform="matrix(15,0,0,15,444.526,459.575)">
                <path d="M0.923,-0.121C0.923,-0.121 0.554,-0.847 0.554,-0.847C0.555,-0.846 0.555,-0.845 0.556,-0.844C0.55,-0.857 0.541,-0.868 0.53,-0.876L0.523,-0.881C0.522,-0.882 0.52,-0.883 0.518,-0.884C0.518,-0.884 0.518,-0.884 0.517,-0.884L0.509,-0.888C0.504,-0.89 0.499,-0.891 0.494,-0.892L0.485,-0.893L0.476,-0.893C0.454,-0.892 0.434,-0.883 0.42,-0.869L0.414,-0.861L0.409,-0.854C0.408,-0.852 0.406,-0.85 0.405,-0.848C0.405,-0.848 0.405,-0.848 0.405,-0.848L0.036,-0.121C0.008,-0.066 0.049,0 0.111,0C0.141,0 0.17,-0.017 0.185,-0.046L0.244,-0.161L0.715,-0.161L0.774,-0.046C0.795,-0.005 0.845,0.012 0.886,-0.009C0.927,-0.03 0.944,-0.08 0.923,-0.121ZM0.556,-0.777C0.556,-0.775 0.555,-0.774 0.554,-0.772C0.555,-0.774 0.556,-0.775 0.556,-0.777ZM0.558,-0.78C0.558,-0.781 0.558,-0.781 0.558,-0.782C0.558,-0.781 0.558,-0.781 0.558,-0.78C0.558,-0.78 0.558,-0.78 0.558,-0.78ZM0.559,-0.837C0.558,-0.838 0.558,-0.839 0.557,-0.84C0.558,-0.839 0.558,-0.838 0.559,-0.836C0.559,-0.837 0.559,-0.837 0.559,-0.837ZM0.56,-0.786C0.56,-0.786 0.56,-0.786 0.56,-0.786C0.56,-0.786 0.56,-0.786 0.56,-0.786ZM0.557,-0.84C0.557,-0.84 0.557,-0.841 0.557,-0.841C0.557,-0.842 0.556,-0.842 0.556,-0.843L0.557,-0.84ZM0.48,-0.626L0.631,-0.328L0.328,-0.328L0.48,-0.626Z" style="fill-rule:nonzero;"/>
            </g>
            <g transform="matrix(15,0,0,15,457.936,459.575)">
                <path d="M0.86,-0.341L0.86,-0.81C0.86,-0.856 0.823,-0.893 0.777,-0.893C0.731,-0.893 0.693,-0.856 0.693,-0.81L0.693,-0.341C0.693,-0.238 0.584,-0.153 0.472,-0.153C0.354,-0.153 0.251,-0.241 0.251,-0.341L0.251,-0.81C0.251,-0.856 0.214,-0.893 0.167,-0.893C0.121,-0.893 0.084,-0.856 0.084,-0.81L0.084,-0.341C0.084,-0.148 0.262,0.014 0.472,0.014C0.682,0.014 0.86,-0.148 0.86,-0.341C0.86,-0.341 0.86,-0.341 0.86,-0.341Z" style="fill-rule:nonzero;"/>
            </g>
            <g transform="matrix(15,0,0,15,471.961,459.575)">
                <path d="M0.714,-0.893C0.714,-0.893 0.104,-0.893 0.104,-0.893C0.058,-0.893 0.021,-0.856 0.021,-0.81C0.021,-0.764 0.058,-0.726 0.104,-0.726L0.326,-0.726L0.326,-0.083C0.326,-0.037 0.363,0 0.409,0C0.455,0 0.493,-0.037 0.493,-0.083L0.493,-0.726L0.714,-0.726C0.76,-0.726 0.797,-0.764 0.797,-0.81C0.797,-0.856 0.76,-0.893 0.714,-0.893Z" style="fill-rule:nonzero;"/>
            </g>
            <g transform="matrix(15,0,0,15,482.956,459.575)">
                <path d="M1.003,-0.445C1.003,-0.706 0.791,-0.918 0.53,-0.918L0.53,-0.918C0.269,-0.918 0.057,-0.706 0.057,-0.445C0.057,-0.184 0.269,0.028 0.53,0.028C0.791,0.028 1.003,-0.184 1.003,-0.445ZM0.53,-0.139L0.53,-0.139C0.361,-0.139 0.224,-0.276 0.224,-0.445L0.224,-0.445C0.224,-0.614 0.361,-0.751 0.53,-0.751C0.699,-0.751 0.836,-0.614 0.836,-0.445L0.836,-0.445C0.836,-0.276 0.699,-0.139 0.53,-0.139Z" style="fill-rule:nonzero;"/>
            </g>
            <g transform="matrix(15,0,0,15,498.451,459.575)">
                <path d="M0.981,-0.084L0.981,-0.81C0.981,-0.81 0.981,-0.811 0.981,-0.811C0.981,-0.811 0.981,-0.811 0.981,-0.811L0.981,-0.82L0.979,-0.828L0.977,-0.836L0.974,-0.843L0.971,-0.85L0.967,-0.857L0.962,-0.864L0.954,-0.872L0.951,-0.875C0.939,-0.884 0.924,-0.891 0.907,-0.893L0.898,-0.893C0.897,-0.893 0.897,-0.893 0.896,-0.893L0.892,-0.893C0.891,-0.893 0.89,-0.893 0.889,-0.893C0.889,-0.893 0.888,-0.893 0.888,-0.893L0.88,-0.891L0.872,-0.889L0.864,-0.886L0.857,-0.883L0.851,-0.879L0.844,-0.874L0.838,-0.868L0.833,-0.863C0.833,-0.863 0.833,-0.862 0.832,-0.862C0.832,-0.861 0.832,-0.861 0.831,-0.86L0.535,-0.471L0.249,-0.859C0.248,-0.86 0.248,-0.86 0.247,-0.861L0.242,-0.867L0.236,-0.873L0.229,-0.878L0.223,-0.882L0.216,-0.886L0.208,-0.889L0.2,-0.891L0.192,-0.893L0.184,-0.893C0.183,-0.893 0.182,-0.893 0.182,-0.893L0.17,-0.893C0.17,-0.893 0.17,-0.893 0.17,-0.893C0.148,-0.89 0.13,-0.879 0.118,-0.864L0.111,-0.855L0.107,-0.848L0.102,-0.837L0.1,-0.829C0.1,-0.827 0.1,-0.826 0.099,-0.824L0.099,-0.824L0.098,-0.814C0.098,-0.812 0.098,-0.81 0.098,-0.808L0.098,-0.084C0.098,-0.037 0.135,-0 0.182,-0C0.228,-0 0.265,-0.037 0.265,-0.084L0.265,-0.556L0.466,-0.282L0.471,-0.276C0.475,-0.272 0.479,-0.268 0.483,-0.265C0.483,-0.265 0.483,-0.265 0.483,-0.265C0.483,-0.265 0.483,-0.265 0.483,-0.265C0.485,-0.264 0.487,-0.262 0.489,-0.261C0.489,-0.261 0.489,-0.261 0.489,-0.261L0.495,-0.257C0.496,-0.257 0.498,-0.256 0.499,-0.255C0.531,-0.24 0.571,-0.243 0.6,-0.281C0.6,-0.281 0.6,-0.281 0.6,-0.281L0.814,-0.562L0.814,-0.084C0.814,-0.037 0.852,-0 0.898,-0C0.944,-0 0.981,-0.037 0.981,-0.084Z" style="fill-rule:nonzero;"/>
            </g>
            <g transform="matrix(15,0,0,15,514.216,459.575)">
                <path d="M0.923,-0.121C0.923,-0.121 0.554,-0.847 0.554,-0.847C0.555,-0.846 0.555,-0.845 0.556,-0.844C0.55,-0.857 0.541,-0.868 0.53,-0.876L0.523,-0.881C0.522,-0.882 0.52,-0.883 0.518,-0.884C0.518,-0.884 0.518,-0.884 0.517,-0.884L0.509,-0.888C0.504,-0.89 0.499,-0.891 0.494,-0.892L0.485,-0.893L0.476,-0.893C0.454,-0.892 0.434,-0.883 0.42,-0.869L0.414,-0.861L0.409,-0.854C0.408,-0.852 0.406,-0.85 0.405,-0.848C0.405,-0.848 0.405,-0.848 0.405,-0.848L0.036,-0.121C0.008,-0.066 0.049,0 0.111,0C0.141,0 0.17,-0.017 0.185,-0.046L0.244,-0.161L0.715,-0.161L0.774,-0.046C0.795,-0.005 0.845,0.012 0.886,-0.009C0.927,-0.03 0.944,-0.08 0.923,-0.121ZM0.556,-0.777C0.556,-0.775 0.555,-0.774 0.554,-0.772L0.556,-0.777ZM0.558,-0.78L0.558,-0.782C0.558,-0.781 0.558,-0.781 0.558,-0.78ZM0.559,-0.836L0.557,-0.84C0.558,-0.839 0.558,-0.838 0.559,-0.836ZM0.56,-0.786C0.56,-0.786 0.56,-0.786 0.56,-0.786C0.56,-0.786 0.56,-0.786 0.56,-0.786ZM0.557,-0.84C0.557,-0.84 0.557,-0.841 0.557,-0.841C0.557,-0.842 0.556,-0.842 0.556,-0.843L0.557,-0.84ZM0.328,-0.328L0.48,-0.626L0.631,-0.328L0.328,-0.328Z" style="fill-rule:nonzero;"/>
            </g>
            <g transform="matrix(15,0,0,15,526.816,459.575)">
                <path d="M0.714,-0.893C0.714,-0.893 0.104,-0.893 0.104,-0.893C0.058,-0.893 0.021,-0.856 0.021,-0.81C0.021,-0.764 0.058,-0.726 0.104,-0.726L0.326,-0.726L0.326,-0.083C0.326,-0.037 0.363,0 0.409,0C0.455,0 0.493,-0.037 0.493,-0.083L0.493,-0.726L0.714,-0.726C0.76,-0.726 0.797,-0.764 0.797,-0.81C0.797,-0.856 0.76,-0.893 0.714,-0.893Z" style="fill-rule:nonzero;"/>
            </g>
            <g transform="matrix(15,0,0,15,538.741,459.575)">
                <path d="M0.666,-0.167C0.666,-0.167 0.265,-0.167 0.265,-0.167L0.265,-0.363L0.595,-0.363C0.641,-0.363 0.678,-0.401 0.678,-0.447C0.678,-0.493 0.641,-0.53 0.595,-0.53L0.265,-0.53L0.265,-0.726L0.666,-0.726C0.712,-0.726 0.749,-0.764 0.749,-0.81C0.749,-0.856 0.712,-0.893 0.666,-0.893L0.182,-0.893C0.135,-0.893 0.098,-0.856 0.098,-0.81L0.098,-0.083C0.098,-0.037 0.135,-0 0.182,-0L0.666,-0C0.712,-0 0.749,-0.037 0.749,-0.083C0.749,-0.13 0.712,-0.167 0.666,-0.167Z" style="fill-rule:nonzero;"/>
            </g>
            <g transform="matrix(15,0,0,15,550.351,459.575)">
                <path d="M0.513,-0.893C0.511,-0.893 0.509,-0.893 0.507,-0.893L0.181,-0.893C0.135,-0.893 0.098,-0.856 0.098,-0.81L0.098,-0.083C0.098,-0.037 0.135,0 0.181,0L0.51,0L0.51,-0C0.511,-0 0.512,-0 0.513,-0C0.75,-0.003 0.929,-0.194 0.929,-0.447C0.929,-0.699 0.75,-0.89 0.513,-0.893ZM0.507,-0.167C0.507,-0.167 0.265,-0.167 0.265,-0.167L0.265,-0.726L0.507,-0.726C0.655,-0.726 0.762,-0.609 0.762,-0.447C0.762,-0.285 0.655,-0.167 0.507,-0.167Z" style="fill-rule:nonzero;"/>
            </g>
        </g>
        <g transform="matrix(0.707107,-0.707107,0.707107,0.707107,-426.587,204.316)">
            <g transform="matrix(15,0,0,15,419.897,421.862)">
                <path d="M0.981,-0.084L0.981,-0.81C0.981,-0.81 0.981,-0.811 0.981,-0.811C0.981,-0.811 0.981,-0.811 0.981,-0.811L0.981,-0.82L0.979,-0.828L0.977,-0.836L0.974,-0.843L0.971,-0.85L0.967,-0.857L0.962,-0.864L0.954,-0.872L0.951,-0.875C0.939,-0.884 0.924,-0.891 0.907,-0.893L0.898,-0.893C0.897,-0.893 0.897,-0.893 0.896,-0.893L0.892,-0.893C0.891,-0.893 0.89,-0.893 0.889,-0.893C0.889,-0.893 0.888,-0.893 0.888,-0.893L0.88,-0.891L0.872,-0.889L0.864,-0.886L0.857,-0.883L0.851,-0.879L0.844,-0.874L0.839,-0.869C0.839,-0.869 0.838,-0.868 0.838,-0.868C0.837,-0.867 0.836,-0.866 0.835,-0.865C0.835,-0.864 0.834,-0.864 0.833,-0.863C0.833,-0.863 0.833,-0.862 0.832,-0.862C0.832,-0.861 0.832,-0.861 0.831,-0.86L0.535,-0.471L0.249,-0.859C0.248,-0.86 0.248,-0.86 0.247,-0.861L0.242,-0.867L0.236,-0.873L0.229,-0.878L0.223,-0.882L0.216,-0.886L0.208,-0.889L0.2,-0.891L0.192,-0.893L0.184,-0.893C0.183,-0.893 0.182,-0.893 0.182,-0.893L0.17,-0.893C0.17,-0.893 0.17,-0.893 0.17,-0.893C0.148,-0.89 0.13,-0.879 0.118,-0.864L0.111,-0.855L0.107,-0.848L0.102,-0.837L0.1,-0.829C0.1,-0.827 0.1,-0.826 0.099,-0.824L0.099,-0.824L0.098,-0.814C0.098,-0.812 0.098,-0.81 0.098,-0.808L0.098,-0.084C0.098,-0.037 0.135,-0 0.182,-0C0.228,-0 0.265,-0.037 0.265,-0.084L0.265,-0.556L0.466,-0.282L0.471,-0.276C0.475,-0.272 0.479,-0.268 0.483,-0.265C0.483,-0.265 0.483,-0.265 0.483,-0.265C0.483,-0.265 0.483,-0.265 0.483,-0.265C0.485,-0.264 0.487,-0.262 0.489,-0.261C0.489,-0.261 0.489,-0.261 0.489,-0.261L0.495,-0.257C0.496,-0.257 0.498,-0.256 0.499,-0.255C0.531,-0.24 0.571,-0.243 0.6,-0.281C0.6,-0.281 0.6,-0.281 0.6,-0.281L0.814,-0.562L0.814,-0.084C0.814,-0.037 0.852,-0 0.898,-0C0.944,-0 0.981,-0.037 0.981,-0.084Z" style="fill-rule:nonzero;"/>
            </g>
            <g transform="matrix(15,0,0,15,435.662,421.862)">
                <path d="M0.923,-0.121C0.923,-0.121 0.554,-0.847 0.554,-0.847C0.555,-0.846 0.555,-0.845 0.556,-0.844C0.55,-0.857 0.541,-0.868 0.53,-0.876L0.523,-0.881C0.522,-0.882 0.52,-0.883 0.518,-0.884C0.518,-0.884 0.518,-0.884 0.517,-0.884L0.509,-0.888C0.504,-0.89 0.499,-0.891 0.494,-0.892L0.485,-0.893L0.476,-0.893C0.454,-0.892 0.434,-0.883 0.42,-0.869L0.414,-0.861L0.409,-0.854C0.408,-0.852 0.406,-0.85 0.405,-0.848C0.405,-0.848 0.405,-0.848 0.405,-0.848L0.036,-0.121C0.008,-0.066 0.049,0 0.111,0C0.141,0 0.17,-0.017 0.185,-0.046L0.244,-0.161L0.715,-0.161L0.774,-0.046C0.795,-0.005 0.845,0.012 0.886,-0.009C0.927,-0.03 0.944,-0.08 0.923,-0.121ZM0.556,-0.777C0.556,-0.775 0.555,-0.774 0.554,-0.772L0.556,-0.777ZM0.558,-0.78L0.558,-0.782C0.558,-0.781 0.558,-0.781 0.558,-0.78ZM0.559,-0.836L0.557,-0.84C0.558,-0.839 0.558,-0.838 0.559,-0.836ZM0.56,-0.786C0.56,-0.786 0.56,-0.786 0.56,-0.786C0.56,-0.786 0.56,-0.786 0.56,-0.786ZM0.557,-0.84C0.557,-0.84 0.557,-0.841 0.557,-0.841C0.557,-0.842 0.556,-0.842 0.556,-0.843L0.557,-0.84ZM0.328,-0.328L0.48,-0.626L0.631,-0.328L0.328,-0.328Z" style="fill-rule:nonzero;"/>
            </g>
            <g transform="matrix(15,0,0,15,449.612,421.862)">
                <path d="M0.863,-0.033L0.87,-0.043L0.874,-0.05L0.878,-0.061L0.879,-0.066L0.881,-0.076L0.882,-0.084C0.882,-0.085 0.881,-0.085 0.881,-0.086L0.881,-0.092L0.881,-0.81C0.881,-0.856 0.844,-0.894 0.798,-0.894C0.752,-0.894 0.714,-0.856 0.714,-0.81L0.714,-0.311L0.246,-0.863C0.231,-0.882 0.208,-0.894 0.182,-0.894C0.131,-0.894 0.096,-0.851 0.098,-0.806L0.098,-0.084C0.098,-0.038 0.135,-0 0.182,-0C0.228,-0 0.265,-0.038 0.265,-0.084L0.265,-0.583L0.734,-0.03C0.733,-0.031 0.733,-0.031 0.733,-0.032L0.739,-0.025L0.748,-0.017C0.748,-0.017 0.748,-0.017 0.748,-0.017C0.749,-0.016 0.75,-0.015 0.751,-0.015C0.751,-0.015 0.751,-0.015 0.751,-0.015L0.759,-0.01C0.759,-0.01 0.759,-0.01 0.759,-0.01L0.764,-0.007C0.764,-0.007 0.764,-0.007 0.764,-0.007C0.764,-0.007 0.764,-0.007 0.764,-0.007C0.764,-0.007 0.764,-0.007 0.764,-0.007C0.764,-0.007 0.764,-0.007 0.764,-0.008C0.764,-0.008 0.764,-0.008 0.764,-0.008C0.764,-0.008 0.764,-0.008 0.764,-0.008C0.763,-0.008 0.763,-0.008 0.763,-0.008L0.772,-0.005L0.779,-0.002L0.786,-0.001L0.794,-0C0.795,-0 0.797,-0 0.799,-0C0.799,-0 0.8,-0 0.8,-0C0.8,-0 0.801,-0 0.801,-0L0.808,-0.001C0.809,-0.001 0.811,-0.001 0.813,-0.001C0.813,-0.001 0.813,-0.001 0.814,-0.002L0.822,-0.004L0.834,-0.008C0.835,-0.009 0.837,-0.01 0.838,-0.011C0.839,-0.011 0.839,-0.011 0.839,-0.011C0.839,-0.011 0.84,-0.012 0.84,-0.012L0.849,-0.018L0.856,-0.024L0.863,-0.033Z" style="fill-rule:nonzero;"/>
            </g>
            <g transform="matrix(15,0,0,15,463.742,421.862)">
                <path d="M0.86,-0.341L0.86,-0.81C0.86,-0.856 0.823,-0.893 0.777,-0.893C0.731,-0.893 0.693,-0.856 0.693,-0.81L0.693,-0.341C0.693,-0.238 0.584,-0.153 0.472,-0.153C0.354,-0.153 0.251,-0.241 0.251,-0.341L0.251,-0.81C0.251,-0.856 0.214,-0.893 0.167,-0.893C0.121,-0.893 0.084,-0.856 0.084,-0.81L0.084,-0.341C0.084,-0.148 0.262,0.014 0.472,0.014C0.682,0.014 0.86,-0.148 0.86,-0.341C0.86,-0.341 0.86,-0.341 0.86,-0.341Z" style="fill-rule:nonzero;"/>
            </g>
            <g transform="matrix(15,0,0,15,476.942,421.862)">
                <path d="M0.923,-0.121C0.923,-0.121 0.554,-0.847 0.554,-0.847C0.555,-0.846 0.555,-0.845 0.556,-0.844C0.55,-0.857 0.541,-0.868 0.53,-0.876L0.523,-0.881C0.522,-0.882 0.52,-0.883 0.518,-0.884C0.518,-0.884 0.518,-0.884 0.517,-0.884L0.509,-0.888C0.504,-0.89 0.499,-0.891 0.494,-0.892L0.485,-0.893L0.476,-0.893C0.454,-0.892 0.434,-0.883 0.42,-0.869L0.414,-0.861L0.409,-0.854C0.408,-0.852 0.406,-0.85 0.405,-0.848C0.405,-0.848 0.405,-0.848 0.405,-0.848L0.036,-0.121C0.008,-0.066 0.049,0 0.111,0C0.141,0 0.17,-0.017 0.185,-0.046L0.244,-0.161L0.715,-0.161L0.774,-0.046C0.795,-0.005 0.845,0.012 0.886,-0.009C0.927,-0.03 0.944,-0.08 0.923,-0.121ZM0.556,-0.777C0.556,-0.775 0.555,-0.774 0.554,-0.772L0.556,-0.777ZM0.558,-0.78L0.558,-0.782C0.558,-0.781 0.558,-0.781 0.558,-0.78ZM0.559,-0.836L0.557,-0.84C0.558,-0.839 0.558,-0.838 0.559,-0.836ZM0.56,-0.786C0.56,-0.786 0.56,-0.786 0.56,-0.786C0.56,-0.786 0.56,-0.786 0.56,-0.786ZM0.557,-0.84C0.557,-0.84 0.557,-0.841 0.557,-0.841C0.557,-0.842 0.556,-0.842 0.556,-0.843L0.557,-0.84ZM0.328,-0.328L0.48,-0.626L0.631,-0.328L0.328,-0.328Z" style="fill-rule:nonzero;"/>
            </g>
            <g transform="matrix(15,0,0,15,490.892,421.862)">
                <path d="M0.611,-0.167C0.611,-0.167 0.265,-0.167 0.265,-0.167L0.265,-0.81C0.265,-0.856 0.228,-0.893 0.181,-0.893C0.135,-0.893 0.098,-0.856 0.098,-0.81L0.098,-0.083C0.098,-0.037 0.135,0 0.181,0L0.611,0C0.658,0 0.695,-0.037 0.695,-0.083C0.695,-0.13 0.658,-0.167 0.611,-0.167Z" style="fill-rule:nonzero;"/>
            </g>
        </g>
        <g transform="matrix(0.707107,-0.707107,0.707107,0.707107,-488.29,190.04)">
            <g transform="matrix(15,0,0,15,419.128,440.334)">
                <path d="M0.82,-0.886C0.779,-0.905 0.729,-0.887 0.71,-0.845L0.448,-0.282L0.187,-0.845C0.168,-0.887 0.118,-0.905 0.076,-0.886C0.035,-0.866 0.016,-0.817 0.036,-0.775L0.373,-0.048C0.373,-0.048 0.373,-0.048 0.373,-0.048L0.378,-0.039L0.384,-0.03L0.395,-0.02C0.406,-0.01 0.419,-0.004 0.434,-0.001L0.443,-0L0.455,-0L0.462,-0.001C0.478,-0.004 0.493,-0.011 0.504,-0.021L0.51,-0.028L0.516,-0.035L0.522,-0.044L0.524,-0.048C0.524,-0.048 0.524,-0.048 0.524,-0.048L0.861,-0.775C0.88,-0.817 0.862,-0.866 0.82,-0.886Z" style="fill-rule:nonzero;"/>
            </g>
            <g transform="matrix(15,0,0,15,432.163,440.334)">
                <path d="M0.666,-0.167C0.666,-0.167 0.265,-0.167 0.265,-0.167L0.265,-0.363L0.595,-0.363C0.641,-0.363 0.678,-0.401 0.678,-0.447C0.678,-0.493 0.641,-0.53 0.595,-0.53L0.265,-0.53L0.265,-0.726L0.666,-0.726C0.712,-0.726 0.749,-0.764 0.749,-0.81C0.749,-0.856 0.712,-0.893 0.666,-0.893L0.182,-0.893C0.135,-0.893 0.098,-0.856 0.098,-0.81L0.098,-0.083C0.098,-0.037 0.135,-0 0.182,-0L0.666,-0C0.712,-0 0.749,-0.037 0.749,-0.083C0.749,-0.13 0.712,-0.167 0.666,-0.167Z" style="fill-rule:nonzero;"/>
            </g>
            <g transform="matrix(15,0,0,15,443.773,440.334)">
                <path d="M0.658,-0.33C0.758,-0.378 0.827,-0.48 0.827,-0.598C0.827,-0.761 0.694,-0.893 0.531,-0.893L0.181,-0.893C0.153,-0.893 0.127,-0.879 0.112,-0.857C0.103,-0.843 0.098,-0.827 0.098,-0.81L0.098,-0.084C0.098,-0.037 0.135,-0 0.181,-0C0.228,-0 0.265,-0.037 0.265,-0.084L0.265,-0.302L0.469,-0.302L0.677,-0.032C0.694,-0.011 0.719,-0 0.744,-0C0.761,-0 0.779,-0.006 0.795,-0.017C0.831,-0.046 0.838,-0.098 0.81,-0.135L0.658,-0.33ZM0.265,-0.726L0.531,-0.726C0.602,-0.726 0.66,-0.669 0.66,-0.598C0.66,-0.526 0.602,-0.469 0.531,-0.469L0.51,-0.469C0.51,-0.469 0.51,-0.469 0.509,-0.469L0.509,-0.469C0.51,-0.469 0.51,-0.469 0.51,-0.469C0.51,-0.469 0.51,-0.469 0.509,-0.469L0.509,-0.469L0.265,-0.469L0.265,-0.726ZM0.51,-0.469C0.51,-0.469 0.51,-0.469 0.509,-0.469C0.511,-0.469 0.512,-0.469 0.51,-0.469Z" style="fill-rule:nonzero;"/>
            </g>
            <g transform="matrix(15,0,0,15,456.688,440.334)">
                <path d="M0.181,-0.893C0.135,-0.893 0.098,-0.856 0.098,-0.81L0.098,-0.083C0.098,-0.037 0.135,0 0.181,0C0.228,0 0.265,-0.037 0.265,-0.083L0.265,-0.81C0.265,-0.856 0.228,-0.893 0.181,-0.893Z" style="fill-rule:nonzero;"/>
            </g>
            <g transform="matrix(15,0,0,15,462.133,440.334)">
                <path d="M0.666,-0.726C0.712,-0.726 0.749,-0.764 0.749,-0.81C0.749,-0.856 0.712,-0.893 0.666,-0.893L0.182,-0.893C0.135,-0.893 0.098,-0.856 0.098,-0.81L0.098,-0.083C0.098,-0.037 0.135,-0 0.182,-0C0.228,-0 0.265,-0.037 0.265,-0.083L0.265,-0.363L0.595,-0.363C0.641,-0.363 0.678,-0.401 0.678,-0.447C0.678,-0.493 0.641,-0.53 0.595,-0.53L0.265,-0.53L0.265,-0.726L0.666,-0.726Z" style="fill-rule:nonzero;"/>
            </g>
            <g transform="matrix(15,0,0,15,473.368,440.334)">
                <path d="M0.181,-0.893C0.135,-0.893 0.098,-0.856 0.098,-0.81L0.098,-0.083C0.098,-0.037 0.135,0 0.181,0C0.228,0 0.265,-0.037 0.265,-0.083L0.265,-0.81C0.265,-0.856 0.228,-0.893 0.181,-0.893Z" style="fill-rule:nonzero;"/>
            </g>
            <g transform="matrix(15,0,0,15,478.813,440.334)">
                <path d="M0.666,-0.167C0.666,-0.167 0.265,-0.167 0.265,-0.167L0.265,-0.363L0.595,-0.363C0.641,-0.363 0.678,-0.401 0.678,-0.447C0.678,-0.493 0.641,-0.53 0.595,-0.53L0.265,-0.53L0.265,-0.726L0.666,-0.726C0.712,-0.726 0.749,-0.764 0.749,-0.81C0.749,-0.856 0.712,-0.893 0.666,-0.893L0.182,-0.893C0.135,-0.893 0.098,-0.856 0.098,-0.81L0.098,-0.083C0.098,-0.037 0.135,-0 0.182,-0L0.666,-0C0.712,-0 0.749,-0.037 0.749,-0.083C0.749,-0.13 0.712,-0.167 0.666,-0.167Z" style="fill-rule:nonzero;"/>
            </g>
            <g transform="matrix(15,0,0,15,490.423,440.334)">
                <path d="M0.513,-0.893C0.511,-0.893 0.509,-0.893 0.507,-0.893L0.181,-0.893C0.135,-0.893 0.098,-0.856 0.098,-0.81L0.098,-0.083C0.098,-0.037 0.135,0 0.181,0L0.51,0L0.51,-0C0.511,-0 0.512,-0 0.513,-0C0.75,-0.003 0.929,-0.194 0.929,-0.447C0.929,-0.699 0.75,-0.89 0.513,-0.893ZM0.507,-0.167C0.507,-0.167 0.265,-0.167 0.265,-0.167L0.265,-0.726L0.507,-0.726C0.655,-0.726 0.762,-0.609 0.762,-0.447C0.762,-0.285 0.655,-0.167 0.507,-0.167Z" style="fill-rule:nonzero;"/>
            </g>
        </g>
        <g transform="matrix(0.707107,-0.707107,0.707107,0.707107,-513.451,227.248)">
            <g transform="matrix(15,0,0,15,426.824,396.463)">
                <path d="M0.666,-0.167C0.666,-0.167 0.265,-0.167 0.265,-0.167L0.265,-0.363L0.595,-0.363C0.641,-0.363 0.678,-0.401 0.678,-0.447C0.678,-0.493 0.641,-0.53 0.595,-0.53L0.265,-0.53L0.265,-0.726L0.666,-0.726C0.712,-0.726 0.749,-0.764 0.749,-0.81C0.749,-0.856 0.712,-0.893 0.666,-0.893L0.181,-0.893C0.135,-0.893 0.098,-0.856 0.098,-0.81L0.098,-0.083C0.098,-0.037 0.135,-0 0.181,-0L0.666,-0C0.712,-0 0.749,-0.037 0.749,-0.083C0.749,-0.13 0.712,-0.167 0.666,-0.167Z" style="fill-rule:nonzero;"/>
            </g>
            <g transform="matrix(15,0,0,15,438.434,396.463)">
                <path d="M0.863,-0.033L0.87,-0.043L0.874,-0.05L0.878,-0.061L0.879,-0.066L0.881,-0.076L0.882,-0.084C0.882,-0.085 0.881,-0.085 0.881,-0.086L0.881,-0.092L0.881,-0.81C0.881,-0.856 0.844,-0.894 0.798,-0.894C0.752,-0.894 0.714,-0.856 0.714,-0.81L0.714,-0.311L0.246,-0.863C0.231,-0.882 0.208,-0.894 0.182,-0.894C0.131,-0.894 0.096,-0.851 0.098,-0.806L0.098,-0.084C0.098,-0.038 0.135,-0 0.182,-0C0.228,-0 0.265,-0.038 0.265,-0.084L0.265,-0.583L0.734,-0.03C0.733,-0.031 0.733,-0.031 0.733,-0.032L0.739,-0.025L0.748,-0.017C0.748,-0.017 0.748,-0.017 0.748,-0.017C0.749,-0.016 0.75,-0.015 0.751,-0.015C0.751,-0.015 0.751,-0.015 0.751,-0.015L0.759,-0.01C0.759,-0.01 0.759,-0.01 0.759,-0.01L0.764,-0.007C0.764,-0.007 0.764,-0.007 0.764,-0.007C0.764,-0.007 0.764,-0.007 0.764,-0.007C0.764,-0.007 0.764,-0.007 0.764,-0.007C0.764,-0.007 0.764,-0.007 0.764,-0.008C0.764,-0.008 0.764,-0.008 0.764,-0.008C0.764,-0.008 0.764,-0.008 0.764,-0.008C0.763,-0.008 0.763,-0.008 0.763,-0.008L0.772,-0.005L0.779,-0.002L0.786,-0.001L0.794,-0C0.795,-0 0.797,-0 0.799,-0C0.799,-0 0.8,-0 0.8,-0C0.8,-0 0.801,-0 0.801,-0L0.808,-0.001C0.809,-0.001 0.811,-0.001 0.813,-0.001C0.813,-0.001 0.813,-0.001 0.814,-0.002L0.822,-0.004L0.834,-0.008C0.835,-0.009 0.837,-0.01 0.838,-0.011C0.839,-0.011 0.839,-0.011 0.839,-0.011C0.839,-0.011 0.84,-0.012 0.84,-0.012L0.849,-0.018L0.856,-0.024L0.863,-0.033Z" style="fill-rule:nonzero;"/>
            </g>
            <g transform="matrix(15,0,0,15,452.759,396.463)">
                <path d="M0.714,-0.893C0.714,-0.893 0.104,-0.893 0.104,-0.893C0.058,-0.893 0.021,-0.856 0.021,-0.81C0.021,-0.764 0.058,-0.726 0.104,-0.726L0.326,-0.726L0.326,-0.083C0.326,-0.037 0.363,0 0.409,0C0.455,0 0.493,-0.037 0.493,-0.083L0.493,-0.726L0.714,-0.726C0.76,-0.726 0.797,-0.764 0.797,-0.81C0.797,-0.856 0.76,-0.893 0.714,-0.893Z" style="fill-rule:nonzero;"/>
            </g>
            <g transform="matrix(15,0,0,15,464.684,396.463)">
                <path d="M0.666,-0.167C0.666,-0.167 0.265,-0.167 0.265,-0.167L0.265,-0.363L0.595,-0.363C0.641,-0.363 0.678,-0.401 0.678,-0.447C0.678,-0.493 0.641,-0.53 0.595,-0.53L0.265,-0.53L0.265,-0.726L0.666,-0.726C0.712,-0.726 0.749,-0.764 0.749,-0.81C0.749,-0.856 0.712,-0.893 0.666,-0.893L0.182,-0.893C0.135,-0.893 0.098,-0.856 0.098,-0.81L0.098,-0.083C0.098,-0.037 0.135,-0 0.182,-0L0.666,-0C0.712,-0 0.749,-0.037 0.749,-0.083C0.749,-0.13 0.712,-0.167 0.666,-0.167Z" style="fill-rule:nonzero;"/>
            </g>
            <g transform="matrix(15,0,0,15,476.294,396.463)">
                <path d="M0.658,-0.33C0.758,-0.378 0.827,-0.48 0.827,-0.598C0.827,-0.761 0.694,-0.893 0.531,-0.893L0.181,-0.893C0.153,-0.893 0.127,-0.879 0.112,-0.857C0.103,-0.843 0.098,-0.827 0.098,-0.81L0.098,-0.084C0.098,-0.037 0.135,-0 0.181,-0C0.228,-0 0.265,-0.037 0.265,-0.084L0.265,-0.302L0.469,-0.302L0.677,-0.032C0.694,-0.011 0.719,-0 0.744,-0C0.761,-0 0.779,-0.006 0.795,-0.017C0.831,-0.046 0.838,-0.098 0.81,-0.135L0.658,-0.33ZM0.265,-0.726L0.531,-0.726C0.602,-0.726 0.66,-0.669 0.66,-0.598C0.66,-0.526 0.602,-0.469 0.531,-0.469L0.51,-0.469C0.51,-0.469 0.51,-0.469 0.509,-0.469L0.509,-0.469C0.51,-0.469 0.51,-0.469 0.51,-0.469C0.51,-0.469 0.51,-0.469 0.509,-0.469L0.509,-0.469L0.265,-0.469L0.265,-0.726ZM0.51,-0.469C0.51,-0.469 0.51,-0.469 0.509,-0.469C0.511,-0.469 0.512,-0.469 0.51,-0.469Z" style="fill-rule:nonzero;"/>
            </g>
            <g transform="matrix(15,0,0,15,489.209,396.463)">
                <path d="M0.666,-0.167C0.666,-0.167 0.265,-0.167 0.265,-0.167L0.265,-0.363L0.595,-0.363C0.641,-0.363 0.678,-0.401 0.678,-0.447C0.678,-0.493 0.641,-0.53 0.595,-0.53L0.265,-0.53L0.265,-0.726L0.666,-0.726C0.712,-0.726 0.749,-0.764 0.749,-0.81C0.749,-0.856 0.712,-0.893 0.666,-0.893L0.182,-0.893C0.135,-0.893 0.098,-0.856 0.098,-0.81L0.098,-0.083C0.098,-0.037 0.135,-0 0.182,-0L0.666,-0C0.712,-0 0.749,-0.037 0.749,-0.083C0.749,-0.13 0.712,-0.167 0.666,-0.167Z" style="fill-rule:nonzero;"/>
            </g>
            <g transform="matrix(15,0,0,15,500.819,396.463)">
                <path d="M0.513,-0.893C0.511,-0.893 0.509,-0.893 0.507,-0.893L0.181,-0.893C0.135,-0.893 0.098,-0.856 0.098,-0.81L0.098,-0.083C0.098,-0.037 0.135,0 0.181,0L0.51,0L0.51,-0C0.511,-0 0.512,-0 0.513,-0C0.75,-0.003 0.929,-0.194 0.929,-0.447C0.929,-0.699 0.75,-0.89 0.513,-0.893ZM0.507,-0.167C0.507,-0.167 0.265,-0.167 0.265,-0.167L0.265,-0.726L0.507,-0.726C0.655,-0.726 0.762,-0.609 0.762,-0.447C0.762,-0.285 0.655,-0.167 0.507,-0.167Z" style="fill-rule:nonzero;"/>
            </g>
        </g>
        <g transform="matrix(1.07856,0,0,0.063182,-4.48333,85.976)">
            <rect x="73.694" y="206.695" width="1162.66" height="30.535"/>
        </g>
    </g>
</svg>
