<?xml version="1.0" encoding="UTF-8" standalone="no"?>
<!DOCTYPE svg PUBLIC "-//W3C//DTD SVG 1.1//EN" "http://www.w3.org/Graphics/SVG/1.1/DTD/svg11.dtd">
<svg width="100%" height="100%" viewBox="0 0 5850 7800" version="1.1" xmlns="http://www.w3.org/2000/svg" xmlns:xlink="http://www.w3.org/1999/xlink" xml:space="preserve" xmlns:serif="http://www.serif.com/" style="fill-rule:evenodd;clip-rule:evenodd;stroke-linecap:round;stroke-linejoin:round;stroke-miterlimit:1.5;">
    <g transform="matrix(4.16667,0,0,4.16667,0,0)">
        <rect x="0" y="0.004" width="1404" height="1872" style="fill:rgb(254,254,254);fill-rule:nonzero;"/>
        <g transform="matrix(1,0,0,1,0,1575)">
            <g transform="matrix(6.65,0,0,1,-1680,-80)">
                <path d="M300,330L460,330" style="fill:none;stroke:black;stroke-width:0.42px;stroke-dasharray:0.42,1.26,0,0;"/>
            </g>
            <g transform="matrix(0.625,0,0,1,7.5,-80)">
                <path d="M300,330L460,330" style="fill:none;stroke:black;stroke-width:2.4px;stroke-dasharray:2.4,7.2,0,0;"/>
            </g>
            <g transform="matrix(0.625,0,0,1,-112.5,-80)">
                <path d="M300,330L460,330" style="fill:none;stroke:black;stroke-width:2.4px;stroke-dasharray:2.4,7.2,0,0;"/>
            </g>
            <g transform="matrix(0.950693,0,0,0.885873,-191.063,-57.8671)">
                <rect x="227.269" y="313.665" width="31.556" height="33.865" style="fill:none;stroke:black;stroke-width:2.18px;"/>
            </g>
        </g>
        <g transform="matrix(1,0,0,1,0,1525)">
            <g transform="matrix(6.65,0,0,1,-1680,-80)">
                <path d="M300,330L460,330" style="fill:none;stroke:black;stroke-width:0.42px;stroke-dasharray:0.42,1.26,0,0;"/>
            </g>
            <g transform="matrix(0.625,0,0,1,7.5,-80)">
                <path d="M300,330L460,330" style="fill:none;stroke:black;stroke-width:2.4px;stroke-dasharray:2.4,7.2,0,0;"/>
            </g>
            <g transform="matrix(0.625,0,0,1,-112.5,-80)">
                <path d="M300,330L460,330" style="fill:none;stroke:black;stroke-width:2.4px;stroke-dasharray:2.4,7.2,0,0;"/>
            </g>
            <g transform="matrix(0.950693,0,0,0.885873,-191.063,-57.8671)">
                <rect x="227.269" y="313.665" width="31.556" height="33.865" style="fill:none;stroke:black;stroke-width:2.18px;"/>
            </g>
        </g>
        <g transform="matrix(1,0,0,1,0,1475)">
            <g transform="matrix(6.65,0,0,1,-1680,-80)">
                <path d="M300,330L460,330" style="fill:none;stroke:black;stroke-width:0.42px;stroke-dasharray:0.42,1.26,0,0;"/>
            </g>
            <g transform="matrix(0.625,0,0,1,7.5,-80)">
                <path d="M300,330L460,330" style="fill:none;stroke:black;stroke-width:2.4px;stroke-dasharray:2.4,7.2,0,0;"/>
            </g>
            <g transform="matrix(0.625,0,0,1,-112.5,-80)">
                <path d="M300,330L460,330" style="fill:none;stroke:black;stroke-width:2.4px;stroke-dasharray:2.4,7.2,0,0;"/>
            </g>
            <g transform="matrix(0.950693,0,0,0.885873,-191.063,-57.8671)">
                <rect x="227.269" y="313.665" width="31.556" height="33.865" style="fill:none;stroke:black;stroke-width:2.18px;"/>
            </g>
        </g>
        <g transform="matrix(1,0,0,1,0,1425)">
            <g transform="matrix(6.65,0,0,1,-1680,-80)">
                <path d="M300,330L460,330" style="fill:none;stroke:black;stroke-width:0.42px;stroke-dasharray:0.42,1.26,0,0;"/>
            </g>
            <g transform="matrix(0.625,0,0,1,7.5,-80)">
                <path d="M300,330L460,330" style="fill:none;stroke:black;stroke-width:2.4px;stroke-dasharray:2.4,7.2,0,0;"/>
            </g>
            <g transform="matrix(0.625,0,0,1,-112.5,-80)">
                <path d="M300,330L460,330" style="fill:none;stroke:black;stroke-width:2.4px;stroke-dasharray:2.4,7.2,0,0;"/>
            </g>
            <g transform="matrix(0.950693,0,0,0.885873,-191.063,-57.8671)">
                <rect x="227.269" y="313.665" width="31.556" height="33.865" style="fill:none;stroke:black;stroke-width:2.18px;"/>
            </g>
        </g>
        <g transform="matrix(1,0,0,1,0,1375)">
            <g transform="matrix(6.65,0,0,1,-1680,-80)">
                <path d="M300,330L460,330" style="fill:none;stroke:black;stroke-width:0.42px;stroke-dasharray:0.42,1.26,0,0;"/>
            </g>
            <g transform="matrix(0.625,0,0,1,7.5,-80)">
                <path d="M300,330L460,330" style="fill:none;stroke:black;stroke-width:2.4px;stroke-dasharray:2.4,7.2,0,0;"/>
            </g>
            <g transform="matrix(0.625,0,0,1,-112.5,-80)">
                <path d="M300,330L460,330" style="fill:none;stroke:black;stroke-width:2.4px;stroke-dasharray:2.4,7.2,0,0;"/>
            </g>
            <g transform="matrix(0.950693,0,0,0.885873,-191.063,-57.8671)">
                <rect x="227.269" y="313.665" width="31.556" height="33.865" style="fill:none;stroke:black;stroke-width:2.18px;"/>
            </g>
        </g>
        <g transform="matrix(1,0,0,1,0,1325)">
            <g transform="matrix(6.65,0,0,1,-1680,-80)">
                <path d="M300,330L460,330" style="fill:none;stroke:black;stroke-width:0.42px;stroke-dasharray:0.42,1.26,0,0;"/>
            </g>
            <g transform="matrix(0.625,0,0,1,7.5,-80)">
                <path d="M300,330L460,330" style="fill:none;stroke:black;stroke-width:2.4px;stroke-dasharray:2.4,7.2,0,0;"/>
            </g>
            <g transform="matrix(0.625,0,0,1,-112.5,-80)">
                <path d="M300,330L460,330" style="fill:none;stroke:black;stroke-width:2.4px;stroke-dasharray:2.4,7.2,0,0;"/>
            </g>
            <g transform="matrix(0.950693,0,0,0.885873,-191.063,-57.8671)">
                <rect x="227.269" y="313.665" width="31.556" height="33.865" style="fill:none;stroke:black;stroke-width:2.18px;"/>
            </g>
        </g>
        <g transform="matrix(1,0,0,1,0,1275)">
            <g transform="matrix(6.65,0,0,1,-1680,-80)">
                <path d="M300,330L460,330" style="fill:none;stroke:black;stroke-width:0.42px;stroke-dasharray:0.42,1.26,0,0;"/>
            </g>
            <g transform="matrix(0.625,0,0,1,7.5,-80)">
                <path d="M300,330L460,330" style="fill:none;stroke:black;stroke-width:2.4px;stroke-dasharray:2.4,7.2,0,0;"/>
            </g>
            <g transform="matrix(0.625,0,0,1,-112.5,-80)">
                <path d="M300,330L460,330" style="fill:none;stroke:black;stroke-width:2.4px;stroke-dasharray:2.4,7.2,0,0;"/>
            </g>
            <g transform="matrix(0.950693,0,0,0.885873,-191.063,-57.8671)">
                <rect x="227.269" y="313.665" width="31.556" height="33.865" style="fill:none;stroke:black;stroke-width:2.18px;"/>
            </g>
        </g>
        <g transform="matrix(1,0,0,1,0,1225)">
            <g transform="matrix(6.65,0,0,1,-1680,-80)">
                <path d="M300,330L460,330" style="fill:none;stroke:black;stroke-width:0.42px;stroke-dasharray:0.42,1.26,0,0;"/>
            </g>
            <g transform="matrix(0.625,0,0,1,7.5,-80)">
                <path d="M300,330L460,330" style="fill:none;stroke:black;stroke-width:2.4px;stroke-dasharray:2.4,7.2,0,0;"/>
            </g>
            <g transform="matrix(0.625,0,0,1,-112.5,-80)">
                <path d="M300,330L460,330" style="fill:none;stroke:black;stroke-width:2.4px;stroke-dasharray:2.4,7.2,0,0;"/>
            </g>
            <g transform="matrix(0.950693,0,0,0.885873,-191.063,-57.8671)">
                <rect x="227.269" y="313.665" width="31.556" height="33.865" style="fill:none;stroke:black;stroke-width:2.18px;"/>
            </g>
        </g>
        <g transform="matrix(1,0,0,1,0,1175)">
            <g transform="matrix(6.65,0,0,1,-1680,-80)">
                <path d="M300,330L460,330" style="fill:none;stroke:black;stroke-width:0.42px;stroke-dasharray:0.42,1.26,0,0;"/>
            </g>
            <g transform="matrix(0.625,0,0,1,7.5,-80)">
                <path d="M300,330L460,330" style="fill:none;stroke:black;stroke-width:2.4px;stroke-dasharray:2.4,7.2,0,0;"/>
            </g>
            <g transform="matrix(0.625,0,0,1,-112.5,-80)">
                <path d="M300,330L460,330" style="fill:none;stroke:black;stroke-width:2.4px;stroke-dasharray:2.4,7.2,0,0;"/>
            </g>
            <g transform="matrix(0.950693,0,0,0.885873,-191.063,-57.8671)">
                <rect x="227.269" y="313.665" width="31.556" height="33.865" style="fill:none;stroke:black;stroke-width:2.18px;"/>
            </g>
        </g>
        <g transform="matrix(1,0,0,1,0,1125)">
            <g transform="matrix(6.65,0,0,1,-1680,-80)">
                <path d="M300,330L460,330" style="fill:none;stroke:black;stroke-width:0.42px;stroke-dasharray:0.42,1.26,0,0;"/>
            </g>
            <g transform="matrix(0.625,0,0,1,7.5,-80)">
                <path d="M300,330L460,330" style="fill:none;stroke:black;stroke-width:2.4px;stroke-dasharray:2.4,7.2,0,0;"/>
            </g>
            <g transform="matrix(0.625,0,0,1,-112.5,-80)">
                <path d="M300,330L460,330" style="fill:none;stroke:black;stroke-width:2.4px;stroke-dasharray:2.4,7.2,0,0;"/>
            </g>
            <g transform="matrix(0.950693,0,0,0.885873,-191.063,-57.8671)">
                <rect x="227.269" y="313.665" width="31.556" height="33.865" style="fill:none;stroke:black;stroke-width:2.18px;"/>
            </g>
        </g>
        <g transform="matrix(1,0,0,1,0,1075)">
            <g transform="matrix(6.65,0,0,1,-1680,-80)">
                <path d="M300,330L460,330" style="fill:none;stroke:black;stroke-width:0.42px;stroke-dasharray:0.42,1.26,0,0;"/>
            </g>
            <g transform="matrix(0.625,0,0,1,7.5,-80)">
                <path d="M300,330L460,330" style="fill:none;stroke:black;stroke-width:2.4px;stroke-dasharray:2.4,7.2,0,0;"/>
            </g>
            <g transform="matrix(0.625,0,0,1,-112.5,-80)">
                <path d="M300,330L460,330" style="fill:none;stroke:black;stroke-width:2.4px;stroke-dasharray:2.4,7.2,0,0;"/>
            </g>
            <g transform="matrix(0.950693,0,0,0.885873,-191.063,-57.8671)">
                <rect x="227.269" y="313.665" width="31.556" height="33.865" style="fill:none;stroke:black;stroke-width:2.18px;"/>
            </g>
        </g>
        <g transform="matrix(1,0,0,1,0,1025)">
            <g transform="matrix(6.65,0,0,1,-1680,-80)">
                <path d="M300,330L460,330" style="fill:none;stroke:black;stroke-width:0.42px;stroke-dasharray:0.42,1.26,0,0;"/>
            </g>
            <g transform="matrix(0.625,0,0,1,7.5,-80)">
                <path d="M300,330L460,330" style="fill:none;stroke:black;stroke-width:2.4px;stroke-dasharray:2.4,7.2,0,0;"/>
            </g>
            <g transform="matrix(0.625,0,0,1,-112.5,-80)">
                <path d="M300,330L460,330" style="fill:none;stroke:black;stroke-width:2.4px;stroke-dasharray:2.4,7.2,0,0;"/>
            </g>
            <g transform="matrix(0.950693,0,0,0.885873,-191.063,-57.8671)">
                <rect x="227.269" y="313.665" width="31.556" height="33.865" style="fill:none;stroke:black;stroke-width:2.18px;"/>
            </g>
        </g>
        <g transform="matrix(1,0,0,1,0,975)">
            <g transform="matrix(6.65,0,0,1,-1680,-80)">
                <path d="M300,330L460,330" style="fill:none;stroke:black;stroke-width:0.42px;stroke-dasharray:0.42,1.26,0,0;"/>
            </g>
            <g transform="matrix(0.625,0,0,1,7.5,-80)">
                <path d="M300,330L460,330" style="fill:none;stroke:black;stroke-width:2.4px;stroke-dasharray:2.4,7.2,0,0;"/>
            </g>
            <g transform="matrix(0.625,0,0,1,-112.5,-80)">
                <path d="M300,330L460,330" style="fill:none;stroke:black;stroke-width:2.4px;stroke-dasharray:2.4,7.2,0,0;"/>
            </g>
            <g transform="matrix(0.950693,0,0,0.885873,-191.063,-57.8671)">
                <rect x="227.269" y="313.665" width="31.556" height="33.865" style="fill:none;stroke:black;stroke-width:2.18px;"/>
            </g>
        </g>
        <g transform="matrix(1,0,0,1,0,925)">
            <g transform="matrix(6.65,0,0,1,-1680,-80)">
                <path d="M300,330L460,330" style="fill:none;stroke:black;stroke-width:0.42px;stroke-dasharray:0.42,1.26,0,0;"/>
            </g>
            <g transform="matrix(0.625,0,0,1,7.5,-80)">
                <path d="M300,330L460,330" style="fill:none;stroke:black;stroke-width:2.4px;stroke-dasharray:2.4,7.2,0,0;"/>
            </g>
            <g transform="matrix(0.625,0,0,1,-112.5,-80)">
                <path d="M300,330L460,330" style="fill:none;stroke:black;stroke-width:2.4px;stroke-dasharray:2.4,7.2,0,0;"/>
            </g>
            <g transform="matrix(0.950693,0,0,0.885873,-191.063,-57.8671)">
                <rect x="227.269" y="313.665" width="31.556" height="33.865" style="fill:none;stroke:black;stroke-width:2.18px;"/>
            </g>
        </g>
        <g transform="matrix(1,0,0,1,0,875)">
            <g transform="matrix(6.65,0,0,1,-1680,-80)">
                <path d="M300,330L460,330" style="fill:none;stroke:black;stroke-width:0.42px;stroke-dasharray:0.42,1.26,0,0;"/>
            </g>
            <g transform="matrix(0.625,0,0,1,7.5,-80)">
                <path d="M300,330L460,330" style="fill:none;stroke:black;stroke-width:2.4px;stroke-dasharray:2.4,7.2,0,0;"/>
            </g>
            <g transform="matrix(0.625,0,0,1,-112.5,-80)">
                <path d="M300,330L460,330" style="fill:none;stroke:black;stroke-width:2.4px;stroke-dasharray:2.4,7.2,0,0;"/>
            </g>
            <g transform="matrix(0.950693,0,0,0.885873,-191.063,-57.8671)">
                <rect x="227.269" y="313.665" width="31.556" height="33.865" style="fill:none;stroke:black;stroke-width:2.18px;"/>
            </g>
        </g>
        <g transform="matrix(1,0,0,1,0,825)">
            <g transform="matrix(6.65,0,0,1,-1680,-80)">
                <path d="M300,330L460,330" style="fill:none;stroke:black;stroke-width:0.42px;stroke-dasharray:0.42,1.26,0,0;"/>
            </g>
            <g transform="matrix(0.625,0,0,1,7.5,-80)">
                <path d="M300,330L460,330" style="fill:none;stroke:black;stroke-width:2.4px;stroke-dasharray:2.4,7.2,0,0;"/>
            </g>
            <g transform="matrix(0.625,0,0,1,-112.5,-80)">
                <path d="M300,330L460,330" style="fill:none;stroke:black;stroke-width:2.4px;stroke-dasharray:2.4,7.2,0,0;"/>
            </g>
            <g transform="matrix(0.950693,0,0,0.885873,-191.063,-57.8671)">
                <rect x="227.269" y="313.665" width="31.556" height="33.865" style="fill:none;stroke:black;stroke-width:2.18px;"/>
            </g>
        </g>
        <g transform="matrix(1,0,0,1,0,775)">
            <g transform="matrix(6.65,0,0,1,-1680,-80)">
                <path d="M300,330L460,330" style="fill:none;stroke:black;stroke-width:0.42px;stroke-dasharray:0.42,1.26,0,0;"/>
            </g>
            <g transform="matrix(0.625,0,0,1,7.5,-80)">
                <path d="M300,330L460,330" style="fill:none;stroke:black;stroke-width:2.4px;stroke-dasharray:2.4,7.2,0,0;"/>
            </g>
            <g transform="matrix(0.625,0,0,1,-112.5,-80)">
                <path d="M300,330L460,330" style="fill:none;stroke:black;stroke-width:2.4px;stroke-dasharray:2.4,7.2,0,0;"/>
            </g>
            <g transform="matrix(0.950693,0,0,0.885873,-191.063,-57.8671)">
                <rect x="227.269" y="313.665" width="31.556" height="33.865" style="fill:none;stroke:black;stroke-width:2.18px;"/>
            </g>
        </g>
        <g transform="matrix(1,0,0,1,0,725)">
            <g transform="matrix(6.65,0,0,1,-1680,-80)">
                <path d="M300,330L460,330" style="fill:none;stroke:black;stroke-width:0.42px;stroke-dasharray:0.42,1.26,0,0;"/>
            </g>
            <g transform="matrix(0.625,0,0,1,7.5,-80)">
                <path d="M300,330L460,330" style="fill:none;stroke:black;stroke-width:2.4px;stroke-dasharray:2.4,7.2,0,0;"/>
            </g>
            <g transform="matrix(0.625,0,0,1,-112.5,-80)">
                <path d="M300,330L460,330" style="fill:none;stroke:black;stroke-width:2.4px;stroke-dasharray:2.4,7.2,0,0;"/>
            </g>
            <g transform="matrix(0.950693,0,0,0.885873,-191.063,-57.8671)">
                <rect x="227.269" y="313.665" width="31.556" height="33.865" style="fill:none;stroke:black;stroke-width:2.18px;"/>
            </g>
        </g>
        <g transform="matrix(1,0,0,1,0,675)">
            <g transform="matrix(6.65,0,0,1,-1680,-80)">
                <path d="M300,330L460,330" style="fill:none;stroke:black;stroke-width:0.42px;stroke-dasharray:0.42,1.26,0,0;"/>
            </g>
            <g transform="matrix(0.625,0,0,1,7.5,-80)">
                <path d="M300,330L460,330" style="fill:none;stroke:black;stroke-width:2.4px;stroke-dasharray:2.4,7.2,0,0;"/>
            </g>
            <g transform="matrix(0.625,0,0,1,-112.5,-80)">
                <path d="M300,330L460,330" style="fill:none;stroke:black;stroke-width:2.4px;stroke-dasharray:2.4,7.2,0,0;"/>
            </g>
            <g transform="matrix(0.950693,0,0,0.885873,-191.063,-57.8671)">
                <rect x="227.269" y="313.665" width="31.556" height="33.865" style="fill:none;stroke:black;stroke-width:2.18px;"/>
            </g>
        </g>
        <g transform="matrix(1,0,0,1,0,625)">
            <g transform="matrix(6.65,0,0,1,-1680,-80)">
                <path d="M300,330L460,330" style="fill:none;stroke:black;stroke-width:0.42px;stroke-dasharray:0.42,1.26,0,0;"/>
            </g>
            <g transform="matrix(0.625,0,0,1,7.5,-80)">
                <path d="M300,330L460,330" style="fill:none;stroke:black;stroke-width:2.4px;stroke-dasharray:2.4,7.2,0,0;"/>
            </g>
            <g transform="matrix(0.625,0,0,1,-112.5,-80)">
                <path d="M300,330L460,330" style="fill:none;stroke:black;stroke-width:2.4px;stroke-dasharray:2.4,7.2,0,0;"/>
            </g>
            <g transform="matrix(0.950693,0,0,0.885873,-191.063,-57.8671)">
                <rect x="227.269" y="313.665" width="31.556" height="33.865" style="fill:none;stroke:black;stroke-width:2.18px;"/>
            </g>
        </g>
        <g transform="matrix(1,0,0,1,0,575)">
            <g transform="matrix(6.65,0,0,1,-1680,-80)">
                <path d="M300,330L460,330" style="fill:none;stroke:black;stroke-width:0.42px;stroke-dasharray:0.42,1.26,0,0;"/>
            </g>
            <g transform="matrix(0.625,0,0,1,7.5,-80)">
                <path d="M300,330L460,330" style="fill:none;stroke:black;stroke-width:2.4px;stroke-dasharray:2.4,7.2,0,0;"/>
            </g>
            <g transform="matrix(0.625,0,0,1,-112.5,-80)">
                <path d="M300,330L460,330" style="fill:none;stroke:black;stroke-width:2.4px;stroke-dasharray:2.4,7.2,0,0;"/>
            </g>
            <g transform="matrix(0.950693,0,0,0.885873,-191.063,-57.8671)">
                <rect x="227.269" y="313.665" width="31.556" height="33.865" style="fill:none;stroke:black;stroke-width:2.18px;"/>
            </g>
        </g>
        <g transform="matrix(1,0,0,1,0,525)">
            <g transform="matrix(6.65,0,0,1,-1680,-80)">
                <path d="M300,330L460,330" style="fill:none;stroke:black;stroke-width:0.42px;stroke-dasharray:0.42,1.26,0,0;"/>
            </g>
            <g transform="matrix(0.625,0,0,1,7.5,-80)">
                <path d="M300,330L460,330" style="fill:none;stroke:black;stroke-width:2.4px;stroke-dasharray:2.4,7.2,0,0;"/>
            </g>
            <g transform="matrix(0.625,0,0,1,-112.5,-80)">
                <path d="M300,330L460,330" style="fill:none;stroke:black;stroke-width:2.4px;stroke-dasharray:2.4,7.2,0,0;"/>
            </g>
            <g transform="matrix(0.950693,0,0,0.885873,-191.063,-57.8671)">
                <rect x="227.269" y="313.665" width="31.556" height="33.865" style="fill:none;stroke:black;stroke-width:2.18px;"/>
            </g>
        </g>
        <g transform="matrix(1,0,0,1,0,475)">
            <g transform="matrix(6.65,0,0,1,-1680,-80)">
                <path d="M300,330L460,330" style="fill:none;stroke:black;stroke-width:0.42px;stroke-dasharray:0.42,1.26,0,0;"/>
            </g>
            <g transform="matrix(0.625,0,0,1,7.5,-80)">
                <path d="M300,330L460,330" style="fill:none;stroke:black;stroke-width:2.4px;stroke-dasharray:2.4,7.2,0,0;"/>
            </g>
            <g transform="matrix(0.625,0,0,1,-112.5,-80)">
                <path d="M300,330L460,330" style="fill:none;stroke:black;stroke-width:2.4px;stroke-dasharray:2.4,7.2,0,0;"/>
            </g>
            <g transform="matrix(0.950693,0,0,0.885873,-191.063,-57.8671)">
                <rect x="227.269" y="313.665" width="31.556" height="33.865" style="fill:none;stroke:black;stroke-width:2.18px;"/>
            </g>
        </g>
        <g transform="matrix(1,0,0,1,0,425)">
            <g transform="matrix(6.65,0,0,1,-1680,-80)">
                <path d="M300,330L460,330" style="fill:none;stroke:black;stroke-width:0.42px;stroke-dasharray:0.42,1.26,0,0;"/>
            </g>
            <g transform="matrix(0.625,0,0,1,7.5,-80)">
                <path d="M300,330L460,330" style="fill:none;stroke:black;stroke-width:2.4px;stroke-dasharray:2.4,7.2,0,0;"/>
            </g>
            <g transform="matrix(0.625,0,0,1,-112.5,-80)">
                <path d="M300,330L460,330" style="fill:none;stroke:black;stroke-width:2.4px;stroke-dasharray:2.4,7.2,0,0;"/>
            </g>
            <g transform="matrix(0.950693,0,0,0.885873,-191.063,-57.8671)">
                <rect x="227.269" y="313.665" width="31.556" height="33.865" style="fill:none;stroke:black;stroke-width:2.18px;"/>
            </g>
        </g>
        <g transform="matrix(1,0,0,1,0,375)">
            <g transform="matrix(6.65,0,0,1,-1680,-80)">
                <path d="M300,330L460,330" style="fill:none;stroke:black;stroke-width:0.42px;stroke-dasharray:0.42,1.26,0,0;"/>
            </g>
            <g transform="matrix(0.625,0,0,1,7.5,-80)">
                <path d="M300,330L460,330" style="fill:none;stroke:black;stroke-width:2.4px;stroke-dasharray:2.4,7.2,0,0;"/>
            </g>
            <g transform="matrix(0.625,0,0,1,-112.5,-80)">
                <path d="M300,330L460,330" style="fill:none;stroke:black;stroke-width:2.4px;stroke-dasharray:2.4,7.2,0,0;"/>
            </g>
            <g transform="matrix(0.950693,0,0,0.885873,-191.063,-57.8671)">
                <rect x="227.269" y="313.665" width="31.556" height="33.865" style="fill:none;stroke:black;stroke-width:2.18px;"/>
            </g>
        </g>
        <g transform="matrix(1,0,0,1,0,325)">
            <g transform="matrix(6.65,0,0,1,-1680,-80)">
                <path d="M300,330L460,330" style="fill:none;stroke:black;stroke-width:0.42px;stroke-dasharray:0.42,1.26,0,0;"/>
            </g>
            <g transform="matrix(0.625,0,0,1,7.5,-80)">
                <path d="M300,330L460,330" style="fill:none;stroke:black;stroke-width:2.4px;stroke-dasharray:2.4,7.2,0,0;"/>
            </g>
            <g transform="matrix(0.625,0,0,1,-112.5,-80)">
                <path d="M300,330L460,330" style="fill:none;stroke:black;stroke-width:2.4px;stroke-dasharray:2.4,7.2,0,0;"/>
            </g>
            <g transform="matrix(0.950693,0,0,0.885873,-191.063,-57.8671)">
                <rect x="227.269" y="313.665" width="31.556" height="33.865" style="fill:none;stroke:black;stroke-width:2.18px;"/>
            </g>
        </g>
        <g transform="matrix(1,0,0,1,0,275)">
            <g transform="matrix(6.65,0,0,1,-1680,-80)">
                <path d="M300,330L460,330" style="fill:none;stroke:black;stroke-width:0.42px;stroke-dasharray:0.42,1.26,0,0;"/>
            </g>
            <g transform="matrix(0.625,0,0,1,7.5,-80)">
                <path d="M300,330L460,330" style="fill:none;stroke:black;stroke-width:2.4px;stroke-dasharray:2.4,7.2,0,0;"/>
            </g>
            <g transform="matrix(0.625,0,0,1,-112.5,-80)">
                <path d="M300,330L460,330" style="fill:none;stroke:black;stroke-width:2.4px;stroke-dasharray:2.4,7.2,0,0;"/>
            </g>
            <g transform="matrix(0.950693,0,0,0.885873,-191.063,-57.8671)">
                <rect x="227.269" y="313.665" width="31.556" height="33.865" style="fill:none;stroke:black;stroke-width:2.18px;"/>
            </g>
        </g>
        <g transform="matrix(1,0,0,1,0,225)">
            <g transform="matrix(6.65,0,0,1,-1680,-80)">
                <path d="M300,330L460,330" style="fill:none;stroke:black;stroke-width:0.42px;stroke-dasharray:0.42,1.26,0,0;"/>
            </g>
            <g transform="matrix(0.625,0,0,1,7.5,-80)">
                <path d="M300,330L460,330" style="fill:none;stroke:black;stroke-width:2.4px;stroke-dasharray:2.4,7.2,0,0;"/>
            </g>
            <g transform="matrix(0.625,0,0,1,-112.5,-80)">
                <path d="M300,330L460,330" style="fill:none;stroke:black;stroke-width:2.4px;stroke-dasharray:2.4,7.2,0,0;"/>
            </g>
            <g transform="matrix(0.950693,0,0,0.885873,-191.063,-57.8671)">
                <rect x="227.269" y="313.665" width="31.556" height="33.865" style="fill:none;stroke:black;stroke-width:2.18px;"/>
            </g>
        </g>
        <g transform="matrix(1,0,0,1,0,175)">
            <g transform="matrix(6.65,0,0,1,-1680,-80)">
                <path d="M300,330L460,330" style="fill:none;stroke:black;stroke-width:0.42px;stroke-dasharray:0.42,1.26,0,0;"/>
            </g>
            <g transform="matrix(0.625,0,0,1,7.5,-80)">
                <path d="M300,330L460,330" style="fill:none;stroke:black;stroke-width:2.4px;stroke-dasharray:2.4,7.2,0,0;"/>
            </g>
            <g transform="matrix(0.625,0,0,1,-112.5,-80)">
                <path d="M300,330L460,330" style="fill:none;stroke:black;stroke-width:2.4px;stroke-dasharray:2.4,7.2,0,0;"/>
            </g>
            <g transform="matrix(0.950693,0,0,0.885873,-191.063,-57.8671)">
                <rect x="227.269" y="313.665" width="31.556" height="33.865" style="fill:none;stroke:black;stroke-width:2.18px;"/>
            </g>
        </g>
        <g transform="matrix(1,0,0,1,0,125)">
            <g transform="matrix(6.65,0,0,1,-1680,-80)">
                <path d="M300,330L460,330" style="fill:none;stroke:black;stroke-width:0.42px;stroke-dasharray:0.42,1.26,0,0;"/>
            </g>
            <g transform="matrix(0.625,0,0,1,7.5,-80)">
                <path d="M300,330L460,330" style="fill:none;stroke:black;stroke-width:2.4px;stroke-dasharray:2.4,7.2,0,0;"/>
            </g>
            <g transform="matrix(0.625,0,0,1,-112.5,-80)">
                <path d="M300,330L460,330" style="fill:none;stroke:black;stroke-width:2.4px;stroke-dasharray:2.4,7.2,0,0;"/>
            </g>
            <g transform="matrix(0.950693,0,0,0.885873,-191.063,-57.8671)">
                <rect x="227.269" y="313.665" width="31.556" height="33.865" style="fill:none;stroke:black;stroke-width:2.18px;"/>
            </g>
        </g>
        <g transform="matrix(1,0,0,1,0,75)">
            <g transform="matrix(6.65,0,0,1,-1680,-80)">
                <path d="M300,330L460,330" style="fill:none;stroke:black;stroke-width:0.42px;stroke-dasharray:0.42,1.26,0,0;"/>
            </g>
            <g transform="matrix(0.625,0,0,1,7.5,-80)">
                <path d="M300,330L460,330" style="fill:none;stroke:black;stroke-width:2.4px;stroke-dasharray:2.4,7.2,0,0;"/>
            </g>
            <g transform="matrix(0.625,0,0,1,-112.5,-80)">
                <path d="M300,330L460,330" style="fill:none;stroke:black;stroke-width:2.4px;stroke-dasharray:2.4,7.2,0,0;"/>
            </g>
            <g transform="matrix(0.950693,0,0,0.885873,-191.063,-57.8671)">
                <rect x="227.269" y="313.665" width="31.556" height="33.865" style="fill:none;stroke:black;stroke-width:2.18px;"/>
            </g>
        </g>
        <g transform="matrix(1,0,0,1,0,25)">
            <g transform="matrix(6.65,0,0,1,-1680,-80)">
                <path d="M300,330L460,330" style="fill:none;stroke:black;stroke-width:0.42px;stroke-dasharray:0.42,1.26,0,0;"/>
            </g>
            <g transform="matrix(0.625,0,0,1,7.5,-80)">
                <path d="M300,330L460,330" style="fill:none;stroke:black;stroke-width:2.4px;stroke-dasharray:2.4,7.2,0,0;"/>
            </g>
            <g transform="matrix(0.625,0,0,1,-112.5,-80)">
                <path d="M300,330L460,330" style="fill:none;stroke:black;stroke-width:2.4px;stroke-dasharray:2.4,7.2,0,0;"/>
            </g>
            <g transform="matrix(0.950693,0,0,0.885873,-191.063,-57.8671)">
                <rect x="227.269" y="313.665" width="31.556" height="33.865" style="fill:none;stroke:black;stroke-width:2.18px;"/>
            </g>
        </g>
        <g transform="matrix(1,0,0,1,0,-25)">
            <g transform="matrix(6.65,0,0,1,-1680,-80)">
                <path d="M300,330L460,330" style="fill:none;stroke:black;stroke-width:0.42px;stroke-dasharray:0.42,1.26,0,0;"/>
            </g>
            <g transform="matrix(0.625,0,0,1,7.5,-80)">
                <path d="M300,330L460,330" style="fill:none;stroke:black;stroke-width:2.4px;stroke-dasharray:2.4,7.2,0,0;"/>
            </g>
            <g transform="matrix(0.625,0,0,1,-112.5,-80)">
                <path d="M300,330L460,330" style="fill:none;stroke:black;stroke-width:2.4px;stroke-dasharray:2.4,7.2,0,0;"/>
            </g>
            <g transform="matrix(0.950693,0,0,0.885873,-191.063,-57.8671)">
                <rect x="227.269" y="313.665" width="31.556" height="33.865" style="fill:none;stroke:black;stroke-width:2.18px;"/>
            </g>
        </g>
        <g transform="matrix(8.4625,0,0,1,-2513.75,-155)">
            <path d="M300,330L460,330" style="fill:none;stroke:rgb(128,128,128);stroke-width:0.17px;"/>
        </g>
        <g transform="matrix(7.2125,0,0,1,-2038.75,-230)">
            <path d="M300,330L460,330" style="fill:none;stroke:black;stroke-width:0.39px;"/>
        </g>
    </g>
</svg>
