<?xml version="1.0" encoding="UTF-8" standalone="no"?>
<!DOCTYPE svg PUBLIC "-//W3C//DTD SVG 1.1//EN" "http://www.w3.org/Graphics/SVG/1.1/DTD/svg11.dtd">
<svg width="100%" height="100%" viewBox="0 0 5850 7800" version="1.1" xmlns="http://www.w3.org/2000/svg" xmlns:xlink="http://www.w3.org/1999/xlink" xml:space="preserve" xmlns:serif="http://www.serif.com/" style="fill-rule:evenodd;clip-rule:evenodd;stroke-miterlimit:10;">
    <g transform="matrix(4.16667,0,0,4.16667,0,0)">
        <rect x="0" y="0" width="1404" height="1872" style="fill:rgb(254,254,254);"/>
        <g>
            <g transform="matrix(-1,1.22465e-16,1.22465e-16,1,1404,1872)">
                <path d="M0,0L1404,0" style="fill:none;fill-rule:nonzero;stroke:black;stroke-width:0.5px;"/>
            </g>
            <g transform="matrix(-1,1.22465e-16,1.22465e-16,1,1404,1846)">
                <path d="M0,0L1404,0" style="fill:none;fill-rule:nonzero;stroke:black;stroke-width:0.5px;"/>
            </g>
            <g transform="matrix(-1,1.22465e-16,1.22465e-16,1,1404,1820)">
                <path d="M0,0L1404,0" style="fill:none;fill-rule:nonzero;stroke:black;stroke-width:0.5px;"/>
            </g>
            <g transform="matrix(-1,1.22465e-16,1.22465e-16,1,1404,1794)">
                <path d="M0,0L1404,0" style="fill:none;fill-rule:nonzero;stroke:black;stroke-width:0.5px;"/>
            </g>
            <g transform="matrix(-1,1.22465e-16,1.22465e-16,1,1404,1768)">
                <path d="M0,0L1404,0" style="fill:none;fill-rule:nonzero;stroke:black;stroke-width:0.5px;"/>
            </g>
            <g transform="matrix(-1,1.22465e-16,1.22465e-16,1,1404,1742)">
                <path d="M0,0L1404,0" style="fill:none;fill-rule:nonzero;stroke:black;stroke-width:0.5px;"/>
            </g>
            <g transform="matrix(-1,1.22465e-16,1.22465e-16,1,1404,1716)">
                <path d="M0,0L1404,0" style="fill:none;fill-rule:nonzero;stroke:black;stroke-width:0.5px;"/>
            </g>
            <g transform="matrix(-1,1.22465e-16,1.22465e-16,1,1404,1690)">
                <path d="M0,0L1404,0" style="fill:none;fill-rule:nonzero;stroke:black;stroke-width:0.5px;"/>
            </g>
            <g transform="matrix(-1,1.22465e-16,1.22465e-16,1,1404,1664)">
                <path d="M0,0L1404,0" style="fill:none;fill-rule:nonzero;stroke:black;stroke-width:0.5px;"/>
            </g>
            <g transform="matrix(-1,1.22465e-16,1.22465e-16,1,1404,1638)">
                <path d="M0,0L1404,0" style="fill:none;fill-rule:nonzero;stroke:black;stroke-width:0.5px;"/>
            </g>
            <g transform="matrix(-1,1.22465e-16,1.22465e-16,1,1404,1612)">
                <path d="M0,0L1404,0" style="fill:none;fill-rule:nonzero;stroke:black;stroke-width:0.5px;"/>
            </g>
            <g transform="matrix(-1,1.22465e-16,1.22465e-16,1,1404,1586)">
                <path d="M0,0L1404,0" style="fill:none;fill-rule:nonzero;stroke:black;stroke-width:0.5px;"/>
            </g>
            <g transform="matrix(-1,1.22465e-16,1.22465e-16,1,1404,1560)">
                <path d="M0,0L1404,0" style="fill:none;fill-rule:nonzero;stroke:black;stroke-width:0.5px;"/>
            </g>
            <g transform="matrix(-1,1.22465e-16,1.22465e-16,1,1404,1534)">
                <path d="M0,0L1404,0" style="fill:none;fill-rule:nonzero;stroke:black;stroke-width:0.5px;"/>
            </g>
            <g transform="matrix(-1,1.22465e-16,1.22465e-16,1,1404,1508)">
                <path d="M0,0L1404,0" style="fill:none;fill-rule:nonzero;stroke:black;stroke-width:0.5px;"/>
            </g>
            <g transform="matrix(-1,1.22465e-16,1.22465e-16,1,1404,1482)">
                <path d="M0,0L1404,0" style="fill:none;fill-rule:nonzero;stroke:black;stroke-width:0.5px;"/>
            </g>
            <g transform="matrix(-1,1.22465e-16,1.22465e-16,1,1404,1456)">
                <path d="M0,0L1404,0" style="fill:none;fill-rule:nonzero;stroke:black;stroke-width:0.5px;"/>
            </g>
            <g transform="matrix(-1,1.22465e-16,1.22465e-16,1,1404,1430)">
                <path d="M0,0L1404,0" style="fill:none;fill-rule:nonzero;stroke:black;stroke-width:0.5px;"/>
            </g>
            <g transform="matrix(-1,1.22465e-16,1.22465e-16,1,1404,1404)">
                <path d="M0,0L1404,0" style="fill:none;fill-rule:nonzero;stroke:black;stroke-width:0.5px;"/>
            </g>
            <g transform="matrix(-1,1.22465e-16,1.22465e-16,1,1404,1378)">
                <path d="M0,0L1404,0" style="fill:none;fill-rule:nonzero;stroke:black;stroke-width:0.5px;"/>
            </g>
            <g transform="matrix(-1,1.22465e-16,1.22465e-16,1,1404,1352)">
                <path d="M0,0L1404,0" style="fill:none;fill-rule:nonzero;stroke:black;stroke-width:0.5px;"/>
            </g>
            <g transform="matrix(-1,1.22465e-16,1.22465e-16,1,1404,1326)">
                <path d="M0,0L1404,0" style="fill:none;fill-rule:nonzero;stroke:black;stroke-width:0.5px;"/>
            </g>
            <g transform="matrix(-1,1.22465e-16,1.22465e-16,1,1404,1300)">
                <path d="M0,0L1404,0" style="fill:none;fill-rule:nonzero;stroke:black;stroke-width:0.5px;"/>
            </g>
            <g transform="matrix(-1,1.22465e-16,1.22465e-16,1,1404,1274)">
                <path d="M0,0L1404,0" style="fill:none;fill-rule:nonzero;stroke:black;stroke-width:0.5px;"/>
            </g>
            <g transform="matrix(-1,1.22465e-16,1.22465e-16,1,1404,1248)">
                <path d="M0,0L1404,0" style="fill:none;fill-rule:nonzero;stroke:black;stroke-width:0.5px;"/>
            </g>
            <g transform="matrix(-1,1.22465e-16,1.22465e-16,1,1404,1222)">
                <path d="M0,0L1404,0" style="fill:none;fill-rule:nonzero;stroke:black;stroke-width:0.5px;"/>
            </g>
            <g transform="matrix(-1,1.22465e-16,1.22465e-16,1,1404,1196)">
                <path d="M0,0L1404,0" style="fill:none;fill-rule:nonzero;stroke:black;stroke-width:0.5px;"/>
            </g>
            <g transform="matrix(-1,1.22465e-16,1.22465e-16,1,1404,1170)">
                <path d="M0,0L1404,0" style="fill:none;fill-rule:nonzero;stroke:black;stroke-width:0.5px;"/>
            </g>
            <g transform="matrix(-1,1.22465e-16,1.22465e-16,1,1404,1144)">
                <path d="M0,0L1404,0" style="fill:none;fill-rule:nonzero;stroke:black;stroke-width:0.5px;"/>
            </g>
            <g transform="matrix(-1,1.22465e-16,1.22465e-16,1,1404,1118)">
                <path d="M0,0L1404,0" style="fill:none;fill-rule:nonzero;stroke:black;stroke-width:0.5px;"/>
            </g>
            <g transform="matrix(-1,1.22465e-16,1.22465e-16,1,1404,1092)">
                <path d="M0,0L1404,0" style="fill:none;fill-rule:nonzero;stroke:black;stroke-width:0.5px;"/>
            </g>
            <g transform="matrix(-1,1.22465e-16,1.22465e-16,1,1404,1066)">
                <path d="M0,0L1404,0" style="fill:none;fill-rule:nonzero;stroke:black;stroke-width:0.5px;"/>
            </g>
            <g transform="matrix(-1,1.22465e-16,1.22465e-16,1,1404,1040)">
                <path d="M0,0L1404,0" style="fill:none;fill-rule:nonzero;stroke:black;stroke-width:0.5px;"/>
            </g>
            <g transform="matrix(-1,1.22465e-16,1.22465e-16,1,1404,1014)">
                <path d="M0,0L1404,0" style="fill:none;fill-rule:nonzero;stroke:black;stroke-width:0.5px;"/>
            </g>
            <g transform="matrix(-1,1.22465e-16,1.22465e-16,1,1404,988)">
                <path d="M0,0L1404,0" style="fill:none;fill-rule:nonzero;stroke:black;stroke-width:0.5px;"/>
            </g>
            <g transform="matrix(-1,1.22465e-16,1.22465e-16,1,1404,962)">
                <path d="M0,0L1404,0" style="fill:none;fill-rule:nonzero;stroke:black;stroke-width:0.5px;"/>
            </g>
            <g transform="matrix(-1,1.22465e-16,1.22465e-16,1,1404,936)">
                <path d="M0,0L1404,0" style="fill:none;fill-rule:nonzero;stroke:black;stroke-width:0.5px;"/>
            </g>
            <g transform="matrix(-1,1.22465e-16,1.22465e-16,1,1404,910)">
                <path d="M0,0L1404,0" style="fill:none;fill-rule:nonzero;stroke:black;stroke-width:0.5px;"/>
            </g>
            <g transform="matrix(-1,1.22465e-16,1.22465e-16,1,1404,884)">
                <path d="M0,0L1404,0" style="fill:none;fill-rule:nonzero;stroke:black;stroke-width:0.5px;"/>
            </g>
            <g transform="matrix(-1,1.22465e-16,1.22465e-16,1,1404,858)">
                <path d="M0,0L1404,0" style="fill:none;fill-rule:nonzero;stroke:black;stroke-width:0.5px;"/>
            </g>
            <g transform="matrix(-1,1.22465e-16,1.22465e-16,1,1404,832)">
                <path d="M0,0L1404,0" style="fill:none;fill-rule:nonzero;stroke:black;stroke-width:0.5px;"/>
            </g>
            <g transform="matrix(-1,1.22465e-16,1.22465e-16,1,1404,806)">
                <path d="M0,0L1404,0" style="fill:none;fill-rule:nonzero;stroke:black;stroke-width:0.5px;"/>
            </g>
            <g transform="matrix(-1,1.22465e-16,1.22465e-16,1,1404,780)">
                <path d="M0,0L1404,0" style="fill:none;fill-rule:nonzero;stroke:black;stroke-width:0.5px;"/>
            </g>
            <g transform="matrix(-1,1.22465e-16,1.22465e-16,1,1404,754)">
                <path d="M0,0L1404,0" style="fill:none;fill-rule:nonzero;stroke:black;stroke-width:0.5px;"/>
            </g>
            <g transform="matrix(-1,1.22465e-16,1.22465e-16,1,1404,728)">
                <path d="M0,0L1404,0" style="fill:none;fill-rule:nonzero;stroke:black;stroke-width:0.5px;"/>
            </g>
            <g transform="matrix(-1,1.22465e-16,1.22465e-16,1,1404,702)">
                <path d="M0,0L1404,0" style="fill:none;fill-rule:nonzero;stroke:black;stroke-width:0.5px;"/>
            </g>
            <g transform="matrix(-1,1.22465e-16,1.22465e-16,1,1404,676)">
                <path d="M0,0L1404,0" style="fill:none;fill-rule:nonzero;stroke:black;stroke-width:0.5px;"/>
            </g>
            <g transform="matrix(-1,1.22465e-16,1.22465e-16,1,1404,650)">
                <path d="M0,0L1404,0" style="fill:none;fill-rule:nonzero;stroke:black;stroke-width:0.5px;"/>
            </g>
            <g transform="matrix(-1,1.22465e-16,1.22465e-16,1,1404,624)">
                <path d="M0,0L1404,0" style="fill:none;fill-rule:nonzero;stroke:black;stroke-width:0.5px;"/>
            </g>
            <g transform="matrix(-1,1.22465e-16,1.22465e-16,1,1404,598)">
                <path d="M0,0L1404,0" style="fill:none;fill-rule:nonzero;stroke:black;stroke-width:0.5px;"/>
            </g>
            <g transform="matrix(-1,1.22465e-16,1.22465e-16,1,1404,572)">
                <path d="M0,0L1404,0" style="fill:none;fill-rule:nonzero;stroke:black;stroke-width:0.5px;"/>
            </g>
            <g transform="matrix(-1,1.22465e-16,1.22465e-16,1,1404,546)">
                <path d="M0,0L1404,0" style="fill:none;fill-rule:nonzero;stroke:black;stroke-width:0.5px;"/>
            </g>
            <g transform="matrix(-1,1.22465e-16,1.22465e-16,1,1404,520)">
                <path d="M0,0L1404,0" style="fill:none;fill-rule:nonzero;stroke:black;stroke-width:0.5px;"/>
            </g>
            <g transform="matrix(-1,1.22465e-16,1.22465e-16,1,1404,494)">
                <path d="M0,0L1404,0" style="fill:none;fill-rule:nonzero;stroke:black;stroke-width:0.5px;"/>
            </g>
            <g transform="matrix(-1,1.22465e-16,1.22465e-16,1,1404,468)">
                <path d="M0,0L1404,0" style="fill:none;fill-rule:nonzero;stroke:black;stroke-width:0.5px;"/>
            </g>
            <g transform="matrix(-1,1.22465e-16,1.22465e-16,1,1404,442)">
                <path d="M0,0L1404,0" style="fill:none;fill-rule:nonzero;stroke:black;stroke-width:0.5px;"/>
            </g>
            <g transform="matrix(-1,1.22465e-16,1.22465e-16,1,1404,416)">
                <path d="M0,0L1404,0" style="fill:none;fill-rule:nonzero;stroke:black;stroke-width:0.5px;"/>
            </g>
            <g transform="matrix(-1,1.22465e-16,1.22465e-16,1,1404,390)">
                <path d="M0,0L1404,0" style="fill:none;fill-rule:nonzero;stroke:black;stroke-width:0.5px;"/>
            </g>
            <g transform="matrix(-1,1.22465e-16,1.22465e-16,1,1404,364)">
                <path d="M0,0L1404,0" style="fill:none;fill-rule:nonzero;stroke:black;stroke-width:0.5px;"/>
            </g>
            <g transform="matrix(-1,1.22465e-16,1.22465e-16,1,1404,338)">
                <path d="M0,0L1404,0" style="fill:none;fill-rule:nonzero;stroke:black;stroke-width:0.5px;"/>
            </g>
            <g transform="matrix(-1,1.22465e-16,1.22465e-16,1,1404,312)">
                <path d="M0,0L1404,0" style="fill:none;fill-rule:nonzero;stroke:black;stroke-width:0.5px;"/>
            </g>
            <g transform="matrix(-1,1.22465e-16,1.22465e-16,1,1404,286)">
                <path d="M0,0L1404,0" style="fill:none;fill-rule:nonzero;stroke:black;stroke-width:0.5px;"/>
            </g>
            <g transform="matrix(-1,1.22465e-16,1.22465e-16,1,1404,260)">
                <path d="M0,0L1404,0" style="fill:none;fill-rule:nonzero;stroke:black;stroke-width:0.5px;"/>
            </g>
            <g transform="matrix(-1,1.22465e-16,1.22465e-16,1,1404,234)">
                <path d="M0,0L1404,0" style="fill:none;fill-rule:nonzero;stroke:black;stroke-width:0.5px;"/>
            </g>
            <g transform="matrix(-1,1.22465e-16,1.22465e-16,1,1404,208)">
                <path d="M0,0L1404,0" style="fill:none;fill-rule:nonzero;stroke:black;stroke-width:0.5px;"/>
            </g>
            <g transform="matrix(-1,1.22465e-16,1.22465e-16,1,1404,182)">
                <path d="M0,0L1404,0" style="fill:none;fill-rule:nonzero;stroke:black;stroke-width:0.5px;"/>
            </g>
            <g transform="matrix(-1,1.22465e-16,1.22465e-16,1,1404,156)">
                <path d="M0,0L1404,0" style="fill:none;fill-rule:nonzero;stroke:black;stroke-width:0.5px;"/>
            </g>
            <g transform="matrix(-1,1.22465e-16,1.22465e-16,1,1404,130)">
                <path d="M0,0L1404,0" style="fill:none;fill-rule:nonzero;stroke:black;stroke-width:0.5px;"/>
            </g>
            <g transform="matrix(-1,1.22465e-16,1.22465e-16,1,1404,104)">
                <path d="M0,0L1404,0" style="fill:none;fill-rule:nonzero;stroke:black;stroke-width:0.5px;"/>
            </g>
            <g transform="matrix(-1,1.22465e-16,1.22465e-16,1,1404,78)">
                <path d="M0,0L1404,0" style="fill:none;fill-rule:nonzero;stroke:black;stroke-width:0.5px;"/>
            </g>
            <g transform="matrix(-1,1.22465e-16,1.22465e-16,1,1404,52)">
                <path d="M0,0L1404,0" style="fill:none;fill-rule:nonzero;stroke:black;stroke-width:0.5px;"/>
            </g>
            <g transform="matrix(-1,1.22465e-16,1.22465e-16,1,1404,26)">
                <path d="M0,0L1404,0" style="fill:none;fill-rule:nonzero;stroke:black;stroke-width:0.5px;"/>
            </g>
            <g transform="matrix(-1,1.22465e-16,1.22465e-16,1,1404,0)">
                <path d="M0,0L1404,0" style="fill:none;fill-rule:nonzero;stroke:black;stroke-width:0.5px;"/>
            </g>
        </g>
        <g>
            <g transform="matrix(-1,1.22465e-16,1.22465e-16,1,1404,1874)">
                <path d="M-0.001,0L-0.001,-1874" style="fill:none;fill-rule:nonzero;stroke:black;stroke-width:0.5px;"/>
            </g>
            <g transform="matrix(-1,1.22465e-16,1.22465e-16,1,1378,1874)">
                <path d="M-0.001,0L-0.001,-1874" style="fill:none;fill-rule:nonzero;stroke:black;stroke-width:0.5px;"/>
            </g>
            <g transform="matrix(-1,1.22465e-16,1.22465e-16,1,1352,1874)">
                <path d="M-0.001,0L-0.001,-1874" style="fill:none;fill-rule:nonzero;stroke:black;stroke-width:0.5px;"/>
            </g>
            <g transform="matrix(-1,1.22465e-16,1.22465e-16,1,1326,1874)">
                <path d="M-0.001,0L-0.001,-1874" style="fill:none;fill-rule:nonzero;stroke:black;stroke-width:0.5px;"/>
            </g>
            <g transform="matrix(-1,1.22465e-16,1.22465e-16,1,1300,1874)">
                <path d="M-0.001,0L-0.001,-1874" style="fill:none;fill-rule:nonzero;stroke:black;stroke-width:0.5px;"/>
            </g>
            <g transform="matrix(-1,1.22465e-16,1.22465e-16,1,1274,1874)">
                <path d="M-0.001,0L-0.001,-1874" style="fill:none;fill-rule:nonzero;stroke:black;stroke-width:0.5px;"/>
            </g>
            <g transform="matrix(-1,1.22465e-16,1.22465e-16,1,1248,1874)">
                <path d="M-0.001,0L-0.001,-1874" style="fill:none;fill-rule:nonzero;stroke:black;stroke-width:0.5px;"/>
            </g>
            <g transform="matrix(-1,1.22465e-16,1.22465e-16,1,1222,1874)">
                <path d="M-0.001,0L-0.001,-1874" style="fill:none;fill-rule:nonzero;stroke:black;stroke-width:0.5px;"/>
            </g>
            <g transform="matrix(-1,1.22465e-16,1.22465e-16,1,1196,1874)">
                <path d="M-0.001,0L-0.001,-1874" style="fill:none;fill-rule:nonzero;stroke:black;stroke-width:0.5px;"/>
            </g>
            <g transform="matrix(-1,1.22465e-16,1.22465e-16,1,1170,1874)">
                <path d="M-0.001,0L-0.001,-1874" style="fill:none;fill-rule:nonzero;stroke:black;stroke-width:0.5px;"/>
            </g>
            <g transform="matrix(-1,1.22465e-16,1.22465e-16,1,1144,1874)">
                <path d="M-0.001,0L-0.001,-1874" style="fill:none;fill-rule:nonzero;stroke:black;stroke-width:0.5px;"/>
            </g>
            <g transform="matrix(-1,1.22465e-16,1.22465e-16,1,1118,1874)">
                <path d="M-0.001,0L-0.001,-1874" style="fill:none;fill-rule:nonzero;stroke:black;stroke-width:0.5px;"/>
            </g>
            <g transform="matrix(-1,1.22465e-16,1.22465e-16,1,1092,1874)">
                <path d="M-0.001,0L-0.001,-1874" style="fill:none;fill-rule:nonzero;stroke:black;stroke-width:0.5px;"/>
            </g>
            <g transform="matrix(-1,1.22465e-16,1.22465e-16,1,1066,1874)">
                <path d="M-0.001,0L-0.001,-1874" style="fill:none;fill-rule:nonzero;stroke:black;stroke-width:0.5px;"/>
            </g>
            <g transform="matrix(-1,1.22465e-16,1.22465e-16,1,1040,1874)">
                <path d="M-0.001,0L-0.001,-1874" style="fill:none;fill-rule:nonzero;stroke:black;stroke-width:0.5px;"/>
            </g>
            <g transform="matrix(-1,1.22465e-16,1.22465e-16,1,1014,1874)">
                <path d="M-0.001,0L-0.001,-1874" style="fill:none;fill-rule:nonzero;stroke:black;stroke-width:0.5px;"/>
            </g>
            <g transform="matrix(-1,1.22465e-16,1.22465e-16,1,988,1874)">
                <path d="M-0.001,0L-0.001,-1874" style="fill:none;fill-rule:nonzero;stroke:black;stroke-width:0.5px;"/>
            </g>
            <g transform="matrix(-1,1.22465e-16,1.22465e-16,1,962,1874)">
                <path d="M-0.001,0L-0.001,-1874" style="fill:none;fill-rule:nonzero;stroke:black;stroke-width:0.5px;"/>
            </g>
            <g transform="matrix(-1,1.22465e-16,1.22465e-16,1,936,1874)">
                <path d="M-0.001,0L-0.001,-1874" style="fill:none;fill-rule:nonzero;stroke:black;stroke-width:0.5px;"/>
            </g>
            <g transform="matrix(-1,1.22465e-16,1.22465e-16,1,910,1874)">
                <path d="M-0.001,0L-0.001,-1874" style="fill:none;fill-rule:nonzero;stroke:black;stroke-width:0.5px;"/>
            </g>
            <g transform="matrix(-1,1.22465e-16,1.22465e-16,1,884,1874)">
                <path d="M-0.001,0L-0.001,-1874" style="fill:none;fill-rule:nonzero;stroke:black;stroke-width:0.5px;"/>
            </g>
            <g transform="matrix(-1,1.22465e-16,1.22465e-16,1,858,1874)">
                <path d="M-0.001,0L-0.001,-1874" style="fill:none;fill-rule:nonzero;stroke:black;stroke-width:0.5px;"/>
            </g>
            <g transform="matrix(-1,1.22465e-16,1.22465e-16,1,832,1874)">
                <path d="M-0.001,0L-0.001,-1874" style="fill:none;fill-rule:nonzero;stroke:black;stroke-width:0.5px;"/>
            </g>
            <g transform="matrix(-1,1.22465e-16,1.22465e-16,1,806,1874)">
                <path d="M-0.001,0L-0.001,-1874" style="fill:none;fill-rule:nonzero;stroke:black;stroke-width:0.5px;"/>
            </g>
            <g transform="matrix(-1,1.22465e-16,1.22465e-16,1,780,1874)">
                <path d="M-0.001,0L-0.001,-1874" style="fill:none;fill-rule:nonzero;stroke:black;stroke-width:0.5px;"/>
            </g>
            <g transform="matrix(-1,1.22465e-16,1.22465e-16,1,754,1874)">
                <path d="M-0.001,0L-0.001,-1874" style="fill:none;fill-rule:nonzero;stroke:black;stroke-width:0.5px;"/>
            </g>
            <g transform="matrix(-1,1.22465e-16,1.22465e-16,1,728,1874)">
                <path d="M-0.001,0L-0.001,-1874" style="fill:none;fill-rule:nonzero;stroke:black;stroke-width:0.5px;"/>
            </g>
            <g transform="matrix(-1,1.22465e-16,1.22465e-16,1,702,1874)">
                <path d="M-0.001,0L-0.001,-1874" style="fill:none;fill-rule:nonzero;stroke:black;stroke-width:0.5px;"/>
            </g>
            <g transform="matrix(-1,1.22465e-16,1.22465e-16,1,676,1874)">
                <path d="M-0.001,0L-0.001,-1874" style="fill:none;fill-rule:nonzero;stroke:black;stroke-width:0.5px;"/>
            </g>
            <g transform="matrix(-1,1.22465e-16,1.22465e-16,1,650,1874)">
                <path d="M-0.001,0L-0.001,-1874" style="fill:none;fill-rule:nonzero;stroke:black;stroke-width:0.5px;"/>
            </g>
            <g transform="matrix(-1,1.22465e-16,1.22465e-16,1,624,1874)">
                <path d="M-0.001,0L-0.001,-1874" style="fill:none;fill-rule:nonzero;stroke:black;stroke-width:0.5px;"/>
            </g>
            <g transform="matrix(-1,1.22465e-16,1.22465e-16,1,598,1874)">
                <path d="M-0.001,0L-0.001,-1874" style="fill:none;fill-rule:nonzero;stroke:black;stroke-width:0.5px;"/>
            </g>
            <g transform="matrix(-1,1.22465e-16,1.22465e-16,1,572,1874)">
                <path d="M-0.001,0L-0.001,-1874" style="fill:none;fill-rule:nonzero;stroke:black;stroke-width:0.5px;"/>
            </g>
            <g transform="matrix(-1,1.22465e-16,1.22465e-16,1,546,1874)">
                <path d="M-0.001,0L-0.001,-1874" style="fill:none;fill-rule:nonzero;stroke:black;stroke-width:0.5px;"/>
            </g>
            <g transform="matrix(-1,1.22465e-16,1.22465e-16,1,520,1874)">
                <path d="M-0.001,0L-0.001,-1874" style="fill:none;fill-rule:nonzero;stroke:black;stroke-width:0.5px;"/>
            </g>
            <g transform="matrix(-1,1.22465e-16,1.22465e-16,1,494,1874)">
                <path d="M-0.001,0L-0.001,-1874" style="fill:none;fill-rule:nonzero;stroke:black;stroke-width:0.5px;"/>
            </g>
            <g transform="matrix(-1,1.22465e-16,1.22465e-16,1,468,1874)">
                <path d="M-0.001,0L-0.001,-1874" style="fill:none;fill-rule:nonzero;stroke:black;stroke-width:0.5px;"/>
            </g>
            <g transform="matrix(-1,1.22465e-16,1.22465e-16,1,442,1874)">
                <path d="M-0.001,0L-0.001,-1874" style="fill:none;fill-rule:nonzero;stroke:black;stroke-width:0.5px;"/>
            </g>
            <g transform="matrix(-1,1.22465e-16,1.22465e-16,1,416,1874)">
                <path d="M-0.001,0L-0.001,-1874" style="fill:none;fill-rule:nonzero;stroke:black;stroke-width:0.5px;"/>
            </g>
            <g transform="matrix(-1,1.22465e-16,1.22465e-16,1,390,1874)">
                <path d="M-0.001,0L-0.001,-1874" style="fill:none;fill-rule:nonzero;stroke:black;stroke-width:0.5px;"/>
            </g>
            <g transform="matrix(-1,1.22465e-16,1.22465e-16,1,364,1874)">
                <path d="M-0.001,0L-0.001,-1874" style="fill:none;fill-rule:nonzero;stroke:black;stroke-width:0.5px;"/>
            </g>
            <g transform="matrix(-1,1.22465e-16,1.22465e-16,1,338,1874)">
                <path d="M-0.001,0L-0.001,-1874" style="fill:none;fill-rule:nonzero;stroke:black;stroke-width:0.5px;"/>
            </g>
            <g transform="matrix(-1,1.22465e-16,1.22465e-16,1,312,1874)">
                <path d="M-0.001,0L-0.001,-1874" style="fill:none;fill-rule:nonzero;stroke:black;stroke-width:0.5px;"/>
            </g>
            <g transform="matrix(-1,1.22465e-16,1.22465e-16,1,286,1874)">
                <path d="M-0.001,0L-0.001,-1874" style="fill:none;fill-rule:nonzero;stroke:black;stroke-width:0.5px;"/>
            </g>
            <g transform="matrix(-1,1.22465e-16,1.22465e-16,1,260,1874)">
                <path d="M-0.001,0L-0.001,-1874" style="fill:none;fill-rule:nonzero;stroke:black;stroke-width:0.5px;"/>
            </g>
            <g transform="matrix(-1,1.22465e-16,1.22465e-16,1,234,1874)">
                <path d="M-0.001,0L-0.001,-1874" style="fill:none;fill-rule:nonzero;stroke:black;stroke-width:0.5px;"/>
            </g>
            <g transform="matrix(-1,1.22465e-16,1.22465e-16,1,208,1874)">
                <path d="M-0.001,0L-0.001,-1874" style="fill:none;fill-rule:nonzero;stroke:black;stroke-width:0.5px;"/>
            </g>
            <g transform="matrix(-1,1.22465e-16,1.22465e-16,1,182,1874)">
                <path d="M-0.001,0L-0.001,-1874" style="fill:none;fill-rule:nonzero;stroke:black;stroke-width:0.5px;"/>
            </g>
            <g transform="matrix(-1,1.22465e-16,1.22465e-16,1,156,1874)">
                <path d="M-0.001,0L-0.001,-1874" style="fill:none;fill-rule:nonzero;stroke:black;stroke-width:0.5px;"/>
            </g>
            <g transform="matrix(-1,1.22465e-16,1.22465e-16,1,130,1874)">
                <path d="M-0.001,0L-0.001,-1874" style="fill:none;fill-rule:nonzero;stroke:black;stroke-width:0.5px;"/>
            </g>
            <g transform="matrix(-1,1.22465e-16,1.22465e-16,1,104,1874)">
                <path d="M-0.001,0L-0.001,-1874" style="fill:none;fill-rule:nonzero;stroke:black;stroke-width:0.5px;"/>
            </g>
            <g transform="matrix(-1,1.22465e-16,1.22465e-16,1,77.9995,1874)">
                <path d="M-0.001,0L-0.001,-1874" style="fill:none;fill-rule:nonzero;stroke:black;stroke-width:0.5px;"/>
            </g>
            <g transform="matrix(-1,1.22465e-16,1.22465e-16,1,51.9995,1874)">
                <path d="M-0.001,0L-0.001,-1874" style="fill:none;fill-rule:nonzero;stroke:black;stroke-width:0.5px;"/>
            </g>
            <g transform="matrix(-1,1.22465e-16,1.22465e-16,1,25.9995,1874)">
                <path d="M-0.001,0L-0.001,-1874" style="fill:none;fill-rule:nonzero;stroke:black;stroke-width:0.5px;"/>
            </g>
            <g transform="matrix(-1,1.22465e-16,1.22465e-16,1,-0.0005,1874)">
                <path d="M-0.001,0L-0.001,-1874" style="fill:none;fill-rule:nonzero;stroke:black;stroke-width:0.5px;"/>
            </g>
        </g>
    </g>
</svg>
